%TF.GenerationSoftware,KiCad,Pcbnew,(6.0.7-1)-1*%
%TF.CreationDate,2022-09-29T17:50:23+03:00*%
%TF.ProjectId,Flux_Capacitor_Micro,466c7578-5f43-4617-9061-6369746f725f,3.0A*%
%TF.SameCoordinates,PX86594f8PY6db8610*%
%TF.FileFunction,Soldermask,Bot*%
%TF.FilePolarity,Negative*%
%FSLAX46Y46*%
G04 Gerber Fmt 4.6, Leading zero omitted, Abs format (unit mm)*
G04 Created by KiCad (PCBNEW (6.0.7-1)-1) date 2022-09-29 17:50:23*
%MOMM*%
%LPD*%
G01*
G04 APERTURE LIST*
G04 Aperture macros list*
%AMRoundRect*
0 Rectangle with rounded corners*
0 $1 Rounding radius*
0 $2 $3 $4 $5 $6 $7 $8 $9 X,Y pos of 4 corners*
0 Add a 4 corners polygon primitive as box body*
4,1,4,$2,$3,$4,$5,$6,$7,$8,$9,$2,$3,0*
0 Add four circle primitives for the rounded corners*
1,1,$1+$1,$2,$3*
1,1,$1+$1,$4,$5*
1,1,$1+$1,$6,$7*
1,1,$1+$1,$8,$9*
0 Add four rect primitives between the rounded corners*
20,1,$1+$1,$2,$3,$4,$5,0*
20,1,$1+$1,$4,$5,$6,$7,0*
20,1,$1+$1,$6,$7,$8,$9,0*
20,1,$1+$1,$8,$9,$2,$3,0*%
G04 Aperture macros list end*
%ADD10C,0.500000*%
%ADD11C,0.100000*%
%ADD12C,1.000000*%
%ADD13O,1.000000X1.000000*%
%ADD14RoundRect,0.135000X-0.185000X0.135000X-0.185000X-0.135000X0.185000X-0.135000X0.185000X0.135000X0*%
%ADD15RoundRect,0.250000X0.375000X0.250000X-0.375000X0.250000X-0.375000X-0.250000X0.375000X-0.250000X0*%
%ADD16RoundRect,0.300000X0.450000X0.900000X-0.450000X0.900000X-0.450000X-0.900000X0.450000X-0.900000X0*%
%ADD17O,15.000000X9.000000*%
%ADD18RoundRect,0.135000X0.226274X0.035355X0.035355X0.226274X-0.226274X-0.035355X-0.035355X-0.226274X0*%
%ADD19RoundRect,0.135000X-0.035355X0.226274X-0.226274X0.035355X0.035355X-0.226274X0.226274X-0.035355X0*%
%ADD20RoundRect,0.135000X0.185000X-0.135000X0.185000X0.135000X-0.185000X0.135000X-0.185000X-0.135000X0*%
%ADD21RoundRect,0.135000X0.035355X-0.226274X0.226274X-0.035355X-0.035355X0.226274X-0.226274X0.035355X0*%
%ADD22RoundRect,0.050000X0.212132X0.282843X-0.282843X-0.212132X-0.212132X-0.282843X0.282843X0.212132X0*%
%ADD23RoundRect,0.050000X-0.212132X0.282843X-0.282843X0.212132X0.212132X-0.282843X0.282843X-0.212132X0*%
%ADD24RoundRect,0.170000X0.000000X0.961665X-0.961665X0.000000X0.000000X-0.961665X0.961665X0.000000X0*%
G04 APERTURE END LIST*
D10*
X18000000Y31900000D02*
G75*
G03*
X18000000Y34300000I0J1200000D01*
G01*
X11000000Y34300000D02*
G75*
G03*
X11000000Y31900000I0J-1200000D01*
G01*
X11000000Y34300000D02*
X18000000Y34300000D01*
X11000000Y31900000D02*
X18000000Y31900000D01*
G36*
X23569082Y21179448D02*
G01*
X23626075Y21158708D01*
X23667612Y21139327D01*
X23761490Y21105501D01*
X23859517Y21082003D01*
X23955782Y21070073D01*
X24044377Y21070950D01*
X24122457Y21083823D01*
X24217289Y21111805D01*
X24314936Y21152699D01*
X24361401Y21171879D01*
X24413406Y21182759D01*
X24458490Y21177918D01*
X24499204Y21157422D01*
X24500742Y21156067D01*
X24513142Y21140145D01*
X24533603Y21109679D01*
X24560926Y21066726D01*
X24593910Y21013341D01*
X24631357Y20951584D01*
X24672067Y20883510D01*
X24714840Y20811176D01*
X24758476Y20736640D01*
X24801775Y20661959D01*
X24843538Y20589189D01*
X24882564Y20520389D01*
X24917655Y20457614D01*
X24947611Y20402921D01*
X24971231Y20358369D01*
X24987317Y20326013D01*
X24994667Y20307911D01*
X24997058Y20261554D01*
X24983048Y20215296D01*
X24954584Y20176303D01*
X24945765Y20168959D01*
X24914690Y20148356D01*
X24870896Y20123433D01*
X24818166Y20096109D01*
X24760283Y20068303D01*
X24701031Y20041931D01*
X24644193Y20018914D01*
X24628264Y20012923D01*
X24488868Y19967196D01*
X24346925Y19933252D01*
X24194808Y19909229D01*
X24024605Y19895982D01*
X23835382Y19899527D01*
X23648202Y19922370D01*
X23463719Y19964393D01*
X23282589Y20025479D01*
X23105467Y20105510D01*
X23065201Y20126781D01*
X23019821Y20154109D01*
X22988377Y20179329D01*
X22968266Y20205228D01*
X22956882Y20234596D01*
X22951622Y20270221D01*
X22950956Y20280352D01*
X22951049Y20291677D01*
X22952850Y20303949D01*
X22957166Y20318764D01*
X22964804Y20337720D01*
X22976570Y20362413D01*
X22993271Y20394440D01*
X23015713Y20435400D01*
X23044704Y20486889D01*
X23081049Y20550503D01*
X23125555Y20627842D01*
X23179029Y20720500D01*
X23223751Y20797777D01*
X23268441Y20874619D01*
X23309610Y20945020D01*
X23346220Y21007228D01*
X23377240Y21059495D01*
X23401634Y21100068D01*
X23418367Y21127199D01*
X23426407Y21139135D01*
X23427927Y21140814D01*
X23467523Y21170258D01*
X23515403Y21183217D01*
X23569082Y21179448D01*
G37*
G36*
X23103991Y23470158D02*
G01*
X23133286Y23463439D01*
X23164177Y23450989D01*
X23172276Y23446864D01*
X23180000Y23442391D01*
X23187733Y23436499D01*
X23196289Y23427897D01*
X23206483Y23415294D01*
X23219130Y23397399D01*
X23235046Y23372920D01*
X23255043Y23340568D01*
X23279939Y23299051D01*
X23310547Y23247078D01*
X23347682Y23183358D01*
X23392159Y23106601D01*
X23444793Y23015514D01*
X23506399Y22908808D01*
X23536223Y22857054D01*
X23576701Y22786270D01*
X23608784Y22729182D01*
X23633444Y22683872D01*
X23651648Y22648423D01*
X23664367Y22620918D01*
X23672570Y22599438D01*
X23677227Y22582066D01*
X23679308Y22566885D01*
X23679952Y22551668D01*
X23675166Y22514144D01*
X23658856Y22481168D01*
X23628709Y22449095D01*
X23582411Y22414282D01*
X23506540Y22357224D01*
X23423234Y22276289D01*
X23356419Y22186409D01*
X23305298Y22086243D01*
X23269074Y21974449D01*
X23246950Y21849687D01*
X23243632Y21822814D01*
X23235205Y21770992D01*
X23224680Y21733515D01*
X23210350Y21706724D01*
X23190512Y21686963D01*
X23163460Y21670573D01*
X23155401Y21667001D01*
X23144217Y21663650D01*
X23129025Y21660898D01*
X23108100Y21658688D01*
X23079718Y21656961D01*
X23042150Y21655659D01*
X22993674Y21654724D01*
X22932561Y21654098D01*
X22857088Y21653723D01*
X22765527Y21653540D01*
X22656154Y21653492D01*
X22569270Y21653497D01*
X22469435Y21653614D01*
X22386186Y21654026D01*
X22317839Y21654919D01*
X22262708Y21656478D01*
X22219107Y21658889D01*
X22185351Y21662337D01*
X22159754Y21667007D01*
X22140631Y21673085D01*
X22126295Y21680755D01*
X22115062Y21690204D01*
X22105246Y21701617D01*
X22095160Y21715179D01*
X22088786Y21726077D01*
X22077307Y21764696D01*
X22071411Y21818288D01*
X22070836Y21884273D01*
X22075318Y21960069D01*
X22084596Y22043097D01*
X22098407Y22130777D01*
X22116489Y22220528D01*
X22138579Y22309770D01*
X22164414Y22395923D01*
X22183991Y22451619D01*
X22244762Y22595196D01*
X22319352Y22738575D01*
X22404736Y22876250D01*
X22497886Y23002713D01*
X22512953Y23021015D01*
X22568866Y23083833D01*
X22631071Y23147143D01*
X22697421Y23209273D01*
X22765771Y23268547D01*
X22833976Y23323294D01*
X22899890Y23371840D01*
X22961367Y23412511D01*
X23016261Y23443633D01*
X23062427Y23463533D01*
X23097719Y23470539D01*
X23103991Y23470158D01*
G37*
G36*
X26470794Y21677823D02*
G01*
X26464005Y21562734D01*
X26453271Y21457684D01*
X26437861Y21356331D01*
X26417046Y21252335D01*
X26391145Y21146627D01*
X26326288Y20942114D01*
X26244215Y20745033D01*
X26145843Y20556365D01*
X26032089Y20377086D01*
X25903871Y20208174D01*
X25762105Y20050608D01*
X25607710Y19905366D01*
X25441602Y19773425D01*
X25264698Y19655765D01*
X25077916Y19553363D01*
X24882172Y19467196D01*
X24678385Y19398244D01*
X24665805Y19394631D01*
X24593716Y19375072D01*
X24523891Y19358447D01*
X24451976Y19343943D01*
X24373618Y19330744D01*
X24284462Y19318034D01*
X24180154Y19305001D01*
X24173066Y19304457D01*
X24145385Y19303592D01*
X24103058Y19303106D01*
X24049391Y19303010D01*
X23987692Y19303318D01*
X23921270Y19304041D01*
X23889684Y19304531D01*
X23807273Y19306533D01*
X23738798Y19309575D01*
X23680073Y19313944D01*
X23626914Y19319927D01*
X23575135Y19327812D01*
X23565574Y19329457D01*
X23345796Y19377209D01*
X23134002Y19442531D01*
X22930795Y19525112D01*
X22736778Y19624646D01*
X22552554Y19740825D01*
X22378725Y19873340D01*
X22215896Y20021884D01*
X22189883Y20048097D01*
X22143265Y20096415D01*
X22098528Y20144297D01*
X22059732Y20187365D01*
X22030938Y20221244D01*
X21953248Y20323369D01*
X21843631Y20489518D01*
X21745590Y20665869D01*
X21660968Y20848682D01*
X21591610Y21034216D01*
X21539357Y21218731D01*
X21529934Y21259460D01*
X21513755Y21335242D01*
X21501288Y21404830D01*
X21492100Y21472505D01*
X21485754Y21542554D01*
X21481818Y21619258D01*
X21479857Y21706902D01*
X21479476Y21800000D01*
X21773892Y21800000D01*
X21778876Y21637828D01*
X21796870Y21465071D01*
X21828734Y21297638D01*
X21875254Y21130348D01*
X21894794Y21072126D01*
X21971519Y20882241D01*
X22064473Y20702157D01*
X22172702Y20532673D01*
X22295255Y20374589D01*
X22431179Y20228706D01*
X22579522Y20095824D01*
X22739331Y19976744D01*
X22909655Y19872265D01*
X23089539Y19783187D01*
X23278033Y19710312D01*
X23474184Y19654439D01*
X23677039Y19616368D01*
X23706718Y19612695D01*
X23772311Y19606787D01*
X23847607Y19602146D01*
X23927752Y19598902D01*
X24007889Y19597185D01*
X24083162Y19597123D01*
X24148715Y19598845D01*
X24199693Y19602481D01*
X24286288Y19613773D01*
X24486038Y19653320D01*
X24680977Y19710659D01*
X24869616Y19784997D01*
X25050467Y19875541D01*
X25222042Y19981499D01*
X25382853Y20102077D01*
X25531413Y20236483D01*
X25666232Y20383924D01*
X25725007Y20457828D01*
X25841943Y20626493D01*
X25941547Y20802131D01*
X26023867Y20983590D01*
X26088952Y21169722D01*
X26136848Y21359374D01*
X26167604Y21551397D01*
X26181267Y21744641D01*
X26177886Y21937956D01*
X26157507Y22130191D01*
X26120180Y22320196D01*
X26065951Y22506821D01*
X25994869Y22688916D01*
X25906981Y22865329D01*
X25802335Y23034912D01*
X25680980Y23196513D01*
X25542962Y23348983D01*
X25446151Y23442169D01*
X25331954Y23539608D01*
X25214257Y23625611D01*
X25087728Y23704023D01*
X24947039Y23778686D01*
X24894641Y23803798D01*
X24703988Y23881560D01*
X24508662Y23940507D01*
X24309442Y23980547D01*
X24107102Y24001589D01*
X23902419Y24003541D01*
X23696169Y23986314D01*
X23489129Y23949815D01*
X23382851Y23923243D01*
X23191801Y23860410D01*
X23008598Y23780608D01*
X22834209Y23684815D01*
X22669603Y23574010D01*
X22515748Y23449171D01*
X22373612Y23311275D01*
X22244163Y23161301D01*
X22128370Y23000228D01*
X22027200Y22829032D01*
X21941621Y22648694D01*
X21872602Y22460190D01*
X21821112Y22264499D01*
X21805395Y22185782D01*
X21790517Y22093164D01*
X21780794Y22002783D01*
X21775496Y21907456D01*
X21773892Y21800000D01*
X21479476Y21800000D01*
X21479436Y21809770D01*
X21479498Y21830435D01*
X21480786Y21934550D01*
X21484041Y22024404D01*
X21489757Y22104424D01*
X21498432Y22179037D01*
X21510560Y22252672D01*
X21526637Y22329758D01*
X21547159Y22414720D01*
X21571035Y22501257D01*
X21634996Y22687422D01*
X21714999Y22872263D01*
X21809031Y23051772D01*
X21915081Y23221939D01*
X22031135Y23378757D01*
X22050839Y23402392D01*
X22100543Y23458185D01*
X22159046Y23520078D01*
X22222107Y23583833D01*
X22285487Y23645209D01*
X22344946Y23699967D01*
X22396244Y23743866D01*
X22467795Y23799354D01*
X22631366Y23910972D01*
X22806409Y24011642D01*
X22988915Y24099352D01*
X23174875Y24172090D01*
X23360281Y24227842D01*
X23437368Y24246540D01*
X23517894Y24263530D01*
X23594514Y24276282D01*
X23671905Y24285326D01*
X23754743Y24291195D01*
X23847703Y24294421D01*
X23955462Y24295536D01*
X23993585Y24295555D01*
X24081450Y24294919D01*
X24155827Y24292993D01*
X24221078Y24289407D01*
X24281569Y24283788D01*
X24341663Y24275765D01*
X24405724Y24264965D01*
X24478116Y24251018D01*
X24507972Y24244823D01*
X24710191Y24191986D01*
X24909048Y24121376D01*
X25101660Y24034278D01*
X25285141Y23931974D01*
X25456608Y23815748D01*
X25466023Y23808690D01*
X25639902Y23666056D01*
X25798488Y23511865D01*
X25941387Y23346919D01*
X26068209Y23172020D01*
X26178559Y22987973D01*
X26272047Y22795578D01*
X26348280Y22595640D01*
X26406865Y22388960D01*
X26447410Y22176342D01*
X26469523Y21958588D01*
X26472690Y21744641D01*
X26472811Y21736500D01*
X26470794Y21677823D01*
G37*
G36*
X24035755Y22233035D02*
G01*
X24120143Y22212139D01*
X24196270Y22176674D01*
X24262896Y22128510D01*
X24318785Y22069521D01*
X24362697Y22001579D01*
X24393395Y21926555D01*
X24409641Y21846321D01*
X24410196Y21762750D01*
X24393822Y21677713D01*
X24359281Y21593083D01*
X24310676Y21520190D01*
X24246557Y21457906D01*
X24169194Y21409113D01*
X24079878Y21374820D01*
X24073282Y21373081D01*
X24015725Y21364680D01*
X23943994Y21364019D01*
X23911133Y21365930D01*
X23869850Y21371306D01*
X23833907Y21381292D01*
X23794646Y21397852D01*
X23783581Y21403304D01*
X23727259Y21438528D01*
X23672708Y21483587D01*
X23625580Y21533340D01*
X23591524Y21582648D01*
X23572657Y21621534D01*
X23544780Y21708907D01*
X23535084Y21797390D01*
X23543221Y21884650D01*
X23568843Y21968351D01*
X23611600Y22046159D01*
X23671144Y22115741D01*
X23699025Y22140664D01*
X23771928Y22190680D01*
X23849463Y22222461D01*
X23933489Y22236866D01*
X23944344Y22237489D01*
X24035755Y22233035D01*
G37*
G36*
X24888117Y23462101D02*
G01*
X24900602Y23457427D01*
X24930475Y23442730D01*
X24967910Y23421659D01*
X25007639Y23397082D01*
X25007793Y23396982D01*
X25164177Y23284132D01*
X25306975Y23157767D01*
X25435515Y23018985D01*
X25549127Y22868884D01*
X25647138Y22708562D01*
X25728877Y22539117D01*
X25793673Y22361646D01*
X25840855Y22177249D01*
X25869751Y21987023D01*
X25876203Y21913374D01*
X25879003Y21845882D01*
X25876523Y21792775D01*
X25868234Y21751570D01*
X25853608Y21719784D01*
X25832115Y21694935D01*
X25803229Y21674539D01*
X25796427Y21670747D01*
X25787398Y21666641D01*
X25776303Y21663262D01*
X25761395Y21660537D01*
X25740926Y21658395D01*
X25713149Y21656763D01*
X25676316Y21655571D01*
X25628682Y21654746D01*
X25568498Y21654217D01*
X25494017Y21653912D01*
X25403493Y21653759D01*
X25295177Y21653686D01*
X25206917Y21653656D01*
X25112996Y21653697D01*
X25035460Y21653892D01*
X24972555Y21654310D01*
X24922531Y21655022D01*
X24883636Y21656098D01*
X24854118Y21657610D01*
X24832226Y21659626D01*
X24816208Y21662218D01*
X24804313Y21665456D01*
X24794790Y21669411D01*
X24785886Y21674152D01*
X24778810Y21678339D01*
X24747658Y21704478D01*
X24725901Y21739755D01*
X24712037Y21787429D01*
X24704565Y21850759D01*
X24698532Y21903372D01*
X24677669Y21995959D01*
X24645420Y22088033D01*
X24604249Y22171710D01*
X24598409Y22181415D01*
X24553712Y22243617D01*
X24497174Y22307096D01*
X24434061Y22366367D01*
X24369642Y22415947D01*
X24323560Y22451364D01*
X24288151Y22491320D01*
X24270692Y22532377D01*
X24270418Y22576462D01*
X24286567Y22625500D01*
X24289761Y22632105D01*
X24304483Y22660138D01*
X24326906Y22700904D01*
X24355788Y22752282D01*
X24389888Y22812151D01*
X24427964Y22878388D01*
X24468773Y22948873D01*
X24511074Y23021483D01*
X24553624Y23094097D01*
X24595183Y23164593D01*
X24634508Y23230850D01*
X24670356Y23290746D01*
X24701487Y23342160D01*
X24726658Y23382970D01*
X24744628Y23411054D01*
X24754153Y23424291D01*
X24755904Y23426079D01*
X24795099Y23452858D01*
X24841581Y23465546D01*
X24888117Y23462101D01*
G37*
D11*
X6725000Y31000000D02*
X6725000Y32400000D01*
X6325000Y32800000D02*
X3725000Y32800000D01*
X3325000Y32400000D02*
X3325000Y31000000D01*
X3725000Y30600000D02*
X6325000Y30600000D01*
X3725000Y32800000D02*
G75*
G03*
X3325000Y32400000I0J-400000D01*
G01*
X3325000Y31000000D02*
G75*
G03*
X3725000Y30600000I400000J0D01*
G01*
X6725000Y32400000D02*
G75*
G03*
X6325000Y32800000I-399999J1D01*
G01*
X6325000Y30600000D02*
G75*
G03*
X6725000Y31000000I1J399999D01*
G01*
G36*
X6607843Y30717157D02*
G01*
X6325000Y30600000D01*
X3725000Y30600000D01*
X3442157Y30717157D01*
X3325000Y31000000D01*
X3325000Y31708226D01*
X4088181Y31708226D01*
X4088835Y31674252D01*
X4090806Y31639781D01*
X4093937Y31606197D01*
X4098068Y31574884D01*
X4103041Y31547224D01*
X4108698Y31524602D01*
X4114880Y31508401D01*
X4120572Y31499686D01*
X4130722Y31487539D01*
X4142384Y31475893D01*
X4149406Y31469740D01*
X4156847Y31464048D01*
X4164785Y31459458D01*
X4174643Y31455399D01*
X4187844Y31451296D01*
X4205811Y31446579D01*
X4229967Y31440676D01*
X4243670Y31436957D01*
X4283562Y31421007D01*
X4319435Y31398764D01*
X4350661Y31370860D01*
X4376613Y31337925D01*
X4396666Y31300588D01*
X4410191Y31259480D01*
X4414527Y31230779D01*
X4414726Y31193834D01*
X4409869Y31154900D01*
X4400096Y31115980D01*
X4394310Y31096175D01*
X4390217Y31075227D01*
X4389847Y31057118D01*
X4393206Y31039583D01*
X4400297Y31020356D01*
X4401808Y31017089D01*
X4412056Y31001064D01*
X4427846Y30983560D01*
X4449595Y30964196D01*
X4477722Y30942591D01*
X4512646Y30918368D01*
X4526707Y30909246D01*
X4554506Y30892365D01*
X4584171Y30875578D01*
X4614041Y30859750D01*
X4642455Y30845750D01*
X4667753Y30834442D01*
X4688274Y30826695D01*
X4716028Y30821147D01*
X4744433Y30822790D01*
X4771647Y30831985D01*
X4797301Y30848603D01*
X4821028Y30872518D01*
X4821662Y30873286D01*
X4852462Y30904771D01*
X4887024Y30929921D01*
X4924557Y30948501D01*
X4964271Y30960272D01*
X5005375Y30965001D01*
X5047079Y30962451D01*
X5088592Y30952386D01*
X5095425Y30950000D01*
X5122465Y30938602D01*
X5146677Y30924564D01*
X5169556Y30906757D01*
X5192596Y30884054D01*
X5217291Y30855329D01*
X5233269Y30839745D01*
X5256003Y30825303D01*
X5270744Y30818920D01*
X5287875Y30814350D01*
X5305888Y30813021D01*
X5325717Y30815116D01*
X5348301Y30820816D01*
X5374576Y30830302D01*
X5405479Y30843757D01*
X5441947Y30861363D01*
X5443929Y30862356D01*
X5475481Y30879112D01*
X5507149Y30897571D01*
X5537910Y30917006D01*
X5566741Y30936692D01*
X5592618Y30955904D01*
X5614519Y30973915D01*
X5631420Y30990002D01*
X5642299Y31003437D01*
X5650263Y31018957D01*
X5656986Y31039234D01*
X5660406Y31059245D01*
X5659804Y31076016D01*
X5658310Y31082017D01*
X5654520Y31094985D01*
X5649298Y31111581D01*
X5643305Y31129652D01*
X5638730Y31143444D01*
X5633825Y31160398D01*
X5630952Y31175089D01*
X5629580Y31190531D01*
X5629176Y31209735D01*
X5631258Y31248533D01*
X5638900Y31285926D01*
X5652675Y31320052D01*
X5673134Y31352243D01*
X5700823Y31383832D01*
X5709291Y31392129D01*
X5736312Y31414953D01*
X5763673Y31431804D01*
X5793466Y31443806D01*
X5827784Y31452084D01*
X5851021Y31456701D01*
X5871372Y31461973D01*
X5887230Y31467970D01*
X5900345Y31475370D01*
X5912464Y31484847D01*
X5918629Y31490660D01*
X5929692Y31503894D01*
X5938680Y31519510D01*
X5945835Y31538407D01*
X5951400Y31561487D01*
X5955619Y31589652D01*
X5958734Y31623803D01*
X5960988Y31664842D01*
X5961676Y31694678D01*
X5961137Y31731197D01*
X5959261Y31767662D01*
X5956189Y31802782D01*
X5952062Y31835267D01*
X5947022Y31863826D01*
X5941211Y31887169D01*
X5934769Y31904005D01*
X5932571Y31908138D01*
X5915741Y31931473D01*
X5893947Y31949340D01*
X5866734Y31962038D01*
X5833643Y31969865D01*
X5813820Y31973651D01*
X5772415Y31986995D01*
X5734692Y32006773D01*
X5701287Y32032447D01*
X5672834Y32063481D01*
X5649967Y32099338D01*
X5633321Y32139480D01*
X5629642Y32153239D01*
X5624880Y32186397D01*
X5624423Y32222039D01*
X5628219Y32257441D01*
X5636216Y32289880D01*
X5641957Y32309247D01*
X5647032Y32339077D01*
X5646083Y32365287D01*
X5639135Y32388704D01*
X5633195Y32401019D01*
X5625568Y32413312D01*
X5615936Y32424591D01*
X5602773Y32436599D01*
X5584556Y32451079D01*
X5571311Y32460950D01*
X5540997Y32481819D01*
X5508517Y32502177D01*
X5474926Y32521505D01*
X5441276Y32539285D01*
X5408624Y32554996D01*
X5378022Y32568120D01*
X5350525Y32578137D01*
X5327188Y32584528D01*
X5309064Y32586773D01*
X5306518Y32586760D01*
X5289885Y32585698D01*
X5275106Y32582419D01*
X5260792Y32576181D01*
X5245551Y32566245D01*
X5227991Y32551870D01*
X5206724Y32532316D01*
X5195581Y32521869D01*
X5177319Y32505631D01*
X5161811Y32493374D01*
X5147453Y32483878D01*
X5132641Y32475921D01*
X5125010Y32472323D01*
X5088018Y32458714D01*
X5050899Y32451885D01*
X5011327Y32451365D01*
X4983980Y32454117D01*
X4954172Y32460569D01*
X4926423Y32471109D01*
X4899296Y32486437D01*
X4871355Y32507253D01*
X4841163Y32534257D01*
X4837883Y32537372D01*
X4816926Y32556358D01*
X4799323Y32570073D01*
X4783672Y32579194D01*
X4768571Y32584397D01*
X4752617Y32586359D01*
X4734407Y32585756D01*
X4717288Y32582915D01*
X4691606Y32575443D01*
X4661846Y32564110D01*
X4629118Y32549480D01*
X4594537Y32532116D01*
X4559214Y32512583D01*
X4524262Y32491446D01*
X4490794Y32469267D01*
X4459924Y32446612D01*
X4447475Y32436829D01*
X4430336Y32422685D01*
X4417747Y32410978D01*
X4408517Y32400437D01*
X4401455Y32389793D01*
X4395372Y32377776D01*
X4390021Y32362112D01*
X4386682Y32335888D01*
X4388680Y32307798D01*
X4396001Y32280114D01*
X4401862Y32258831D01*
X4405825Y32231383D01*
X4407279Y32201802D01*
X4406095Y32172851D01*
X4402145Y32147293D01*
X4394938Y32122885D01*
X4378124Y32085715D01*
X4355556Y32051483D01*
X4328263Y32021659D01*
X4297274Y31997710D01*
X4286782Y31991616D01*
X4269781Y31983075D01*
X4251465Y31974985D01*
X4233874Y31968178D01*
X4219046Y31963484D01*
X4209020Y31961735D01*
X4195284Y31959701D01*
X4177786Y31954008D01*
X4160002Y31945839D01*
X4144932Y31936381D01*
X4142338Y31934324D01*
X4128946Y31920663D01*
X4117775Y31903212D01*
X4108642Y31881314D01*
X4101362Y31854313D01*
X4095751Y31821550D01*
X4091625Y31782368D01*
X4088799Y31736111D01*
X4088181Y31708226D01*
X3325000Y31708226D01*
X3325000Y32400000D01*
X3442157Y32682843D01*
X3725000Y32800000D01*
X6325000Y32800000D01*
X6607843Y32682843D01*
X6725000Y32400000D01*
X6725000Y31000000D01*
X6607843Y30717157D01*
G37*
G36*
X5056412Y32010175D02*
G01*
X5101209Y32002165D01*
X5144480Y31987746D01*
X5185455Y31967084D01*
X5223364Y31940344D01*
X5257437Y31907693D01*
X5286903Y31869294D01*
X5299782Y31847761D01*
X5319099Y31804891D01*
X5331343Y31760888D01*
X5336801Y31716419D01*
X5335763Y31672153D01*
X5328516Y31628759D01*
X5315349Y31586907D01*
X5296550Y31547264D01*
X5272408Y31510501D01*
X5243211Y31477285D01*
X5209248Y31448285D01*
X5170807Y31424171D01*
X5128176Y31405611D01*
X5081644Y31393274D01*
X5065840Y31390759D01*
X5018404Y31388196D01*
X4971844Y31392842D01*
X4926902Y31404276D01*
X4884320Y31422074D01*
X4844838Y31445815D01*
X4809198Y31475078D01*
X4778141Y31509441D01*
X4752410Y31548481D01*
X4732744Y31591778D01*
X4721267Y31630851D01*
X4714129Y31678696D01*
X4714301Y31726106D01*
X4721548Y31772376D01*
X4735637Y31816800D01*
X4756331Y31858670D01*
X4783398Y31897282D01*
X4816601Y31931928D01*
X4855706Y31961903D01*
X4877369Y31974822D01*
X4920568Y31994100D01*
X4965322Y32006308D01*
X5010860Y32011611D01*
X5056412Y32010175D01*
G37*
X25675000Y31000000D02*
X25675000Y32400000D01*
X25275000Y32800000D02*
X22675000Y32800000D01*
X22275000Y32400000D02*
X22275000Y31000000D01*
X22675000Y30600000D02*
X25275000Y30600000D01*
X22675000Y32800000D02*
G75*
G03*
X22275000Y32400000I0J-400000D01*
G01*
X25675000Y32400000D02*
G75*
G03*
X25275000Y32800000I-399999J1D01*
G01*
X25275000Y30600000D02*
G75*
G03*
X25675000Y31000000I1J399999D01*
G01*
X22275000Y31000000D02*
G75*
G03*
X22675000Y30600000I400000J0D01*
G01*
G36*
X25557843Y30717157D02*
G01*
X25275000Y30600000D01*
X22675000Y30600000D01*
X22392157Y30717157D01*
X22275000Y31000000D01*
X22275000Y31715209D01*
X23058540Y31715209D01*
X23061284Y31632088D01*
X23071806Y31548263D01*
X23090099Y31463657D01*
X23103224Y31418290D01*
X23132082Y31340435D01*
X23168093Y31265645D01*
X23211111Y31194251D01*
X23227971Y31169590D01*
X23252410Y31136369D01*
X23277398Y31105844D01*
X23304905Y31075652D01*
X23336901Y31043430D01*
X23347565Y31033164D01*
X23399974Y30986665D01*
X23453332Y30946195D01*
X23509584Y30910378D01*
X23570678Y30877833D01*
X23613938Y30857858D01*
X23684246Y30830653D01*
X23755306Y30809918D01*
X23828857Y30795177D01*
X23906636Y30785955D01*
X23970596Y30783162D01*
X24051180Y30786419D01*
X24131628Y30796970D01*
X24211125Y30814589D01*
X24288857Y30839052D01*
X24364011Y30870133D01*
X24435773Y30907606D01*
X24503330Y30951247D01*
X24544664Y30982529D01*
X24608681Y31038604D01*
X24666755Y31099556D01*
X24718682Y31165061D01*
X24764261Y31234797D01*
X24803288Y31308441D01*
X24835562Y31385672D01*
X24860880Y31466165D01*
X24879039Y31549600D01*
X24881221Y31562979D01*
X24889987Y31644644D01*
X24891155Y31726737D01*
X24884845Y31808684D01*
X24871176Y31889911D01*
X24850267Y31969843D01*
X24822236Y32047905D01*
X24787202Y32123524D01*
X24745284Y32196124D01*
X24725264Y32225735D01*
X24700232Y32259224D01*
X24673196Y32292319D01*
X24645024Y32324122D01*
X24616579Y32353736D01*
X24588729Y32380264D01*
X24562339Y32402807D01*
X24538274Y32420468D01*
X24517402Y32432350D01*
X24506961Y32436617D01*
X24475363Y32444536D01*
X24441987Y32446553D01*
X24409121Y32442660D01*
X24379057Y32432848D01*
X24377960Y32432338D01*
X24354829Y32418202D01*
X24332370Y32398737D01*
X24312796Y32376142D01*
X24298323Y32352618D01*
X24292252Y32338915D01*
X24288090Y32325643D01*
X24285699Y32310861D01*
X24284364Y32291421D01*
X24284125Y32275256D01*
X24287207Y32244544D01*
X24295591Y32216706D01*
X24309850Y32190557D01*
X24330553Y32164917D01*
X24358275Y32138603D01*
X24384582Y32114486D01*
X24428896Y32065911D01*
X24434526Y32058090D01*
X24467054Y32012903D01*
X24498815Y31955995D01*
X24523938Y31895717D01*
X24542182Y31832604D01*
X24553306Y31767188D01*
X24557067Y31700000D01*
X24556799Y31681850D01*
X24551097Y31615066D01*
X24538230Y31550673D01*
X24518530Y31489075D01*
X24492327Y31430677D01*
X24459951Y31375884D01*
X24421734Y31325098D01*
X24378007Y31278724D01*
X24329099Y31237168D01*
X24275343Y31200832D01*
X24217069Y31170121D01*
X24154607Y31145439D01*
X24088288Y31127190D01*
X24087358Y31126991D01*
X24065718Y31123645D01*
X24038350Y31121262D01*
X24007180Y31119842D01*
X23974135Y31119386D01*
X23941140Y31119892D01*
X23910120Y31121362D01*
X23883002Y31123795D01*
X23861712Y31127190D01*
X23818110Y31138310D01*
X23753836Y31160929D01*
X23693631Y31189831D01*
X23637841Y31224660D01*
X23586813Y31265056D01*
X23540894Y31310662D01*
X23500431Y31361119D01*
X23465769Y31416069D01*
X23437257Y31475153D01*
X23415240Y31538013D01*
X23400066Y31604291D01*
X23398544Y31613422D01*
X23395859Y31632176D01*
X23394196Y31649717D01*
X23393438Y31668297D01*
X23393469Y31690167D01*
X23394171Y31717579D01*
X23395041Y31738049D01*
X23399222Y31786610D01*
X23406631Y31830843D01*
X23417815Y31872968D01*
X23433320Y31915207D01*
X23453692Y31959782D01*
X23465983Y31983377D01*
X23486430Y32017551D01*
X23509690Y32050403D01*
X23536770Y32083211D01*
X23544901Y32091887D01*
X23807074Y32091887D01*
X23807080Y32042452D01*
X23807141Y31993459D01*
X23807258Y31945580D01*
X23807429Y31899485D01*
X23807656Y31855842D01*
X23807938Y31815322D01*
X23808275Y31778596D01*
X23808667Y31746333D01*
X23809115Y31719202D01*
X23809618Y31697875D01*
X23810176Y31683020D01*
X23810790Y31675308D01*
X23820165Y31640490D01*
X23836166Y31609079D01*
X23858173Y31582112D01*
X23885621Y31560278D01*
X23917945Y31544270D01*
X23926253Y31541586D01*
X23944113Y31537337D01*
X23961327Y31534762D01*
X23972094Y31534162D01*
X24006287Y31537040D01*
X24038468Y31546796D01*
X24067779Y31562752D01*
X24093363Y31584233D01*
X24114361Y31610560D01*
X24129915Y31641058D01*
X24139168Y31675049D01*
X24139369Y31676681D01*
X24139971Y31686751D01*
X24140517Y31703753D01*
X24141007Y31727015D01*
X24141442Y31755869D01*
X24141822Y31789643D01*
X24142146Y31827667D01*
X24142415Y31869272D01*
X24142628Y31913787D01*
X24142786Y31960541D01*
X24142888Y32008866D01*
X24142935Y32058090D01*
X24142926Y32107543D01*
X24142862Y32156556D01*
X24142742Y32204457D01*
X24142567Y32250578D01*
X24142336Y32294247D01*
X24142050Y32334794D01*
X24141708Y32371550D01*
X24141311Y32403844D01*
X24140858Y32431006D01*
X24140350Y32452365D01*
X24139787Y32467253D01*
X24139168Y32474997D01*
X24139041Y32475762D01*
X24129483Y32510059D01*
X24113373Y32540903D01*
X24091486Y32567525D01*
X24064600Y32589153D01*
X24033490Y32605015D01*
X23998931Y32614342D01*
X23974408Y32616303D01*
X23941325Y32612748D01*
X23909977Y32602535D01*
X23881265Y32586333D01*
X23856092Y32564809D01*
X23835361Y32538633D01*
X23819973Y32508473D01*
X23810832Y32474997D01*
X23810628Y32473327D01*
X23810031Y32463233D01*
X23809489Y32446212D01*
X23809001Y32422935D01*
X23808568Y32394071D01*
X23808190Y32360292D01*
X23807867Y32322265D01*
X23807598Y32280663D01*
X23807385Y32236154D01*
X23807226Y32189408D01*
X23807122Y32141096D01*
X23807074Y32091887D01*
X23544901Y32091887D01*
X23568674Y32117252D01*
X23606407Y32153801D01*
X23631886Y32181936D01*
X23650455Y32212583D01*
X23661513Y32245039D01*
X23664991Y32279096D01*
X23660816Y32314541D01*
X23656702Y32329723D01*
X23642899Y32361152D01*
X23623615Y32388208D01*
X23599776Y32410492D01*
X23572308Y32427603D01*
X23542137Y32439142D01*
X23510189Y32444709D01*
X23477389Y32443904D01*
X23444665Y32436327D01*
X23412942Y32421578D01*
X23400296Y32412737D01*
X23383333Y32398846D01*
X23363560Y32381233D01*
X23342135Y32361020D01*
X23320217Y32339326D01*
X23298963Y32317272D01*
X23279533Y32295981D01*
X23263085Y32276572D01*
X23262471Y32275809D01*
X23212372Y32207607D01*
X23169615Y32136794D01*
X23134147Y32063283D01*
X23125446Y32042182D01*
X23097026Y31961113D01*
X23076405Y31879646D01*
X23063578Y31797703D01*
X23058540Y31715209D01*
X22275000Y31715209D01*
X22275000Y32400000D01*
X22392157Y32682843D01*
X22675000Y32800000D01*
X25275000Y32800000D01*
X25557843Y32682843D01*
X25675000Y32400000D01*
X25675000Y31000000D01*
X25557843Y30717157D01*
G37*
G36*
X18586507Y30870878D02*
G01*
X18669057Y30835953D01*
X18738625Y30777745D01*
X18791189Y30704861D01*
X18822727Y30625909D01*
X18833240Y30540890D01*
X18826890Y30476120D01*
X18792283Y30439925D01*
X18721480Y30427860D01*
X18656710Y30435480D01*
X18622420Y30458340D01*
X18610355Y30490090D01*
X18608450Y30532000D01*
X18608450Y30539620D01*
X18603370Y30568830D01*
X18569715Y30627885D01*
X18499230Y30657730D01*
X18435730Y30646300D01*
X18402075Y30621535D01*
X18382390Y30587245D01*
X18373500Y30554860D01*
X18385406Y30499298D01*
X18421125Y30446910D01*
X18473671Y30398809D01*
X18536060Y30356105D01*
X18603370Y30315782D01*
X18670680Y30274825D01*
X18733069Y30229422D01*
X18785615Y30175765D01*
X18821334Y30115281D01*
X18833240Y30049400D01*
X18800220Y29969390D01*
X18721480Y29935100D01*
X18224910Y29935100D01*
X18146170Y29950340D01*
X18118865Y29983360D01*
X18110610Y30047495D01*
X18118230Y30112265D01*
X18148075Y30149095D01*
X18222370Y30161160D01*
X18454780Y30161160D01*
X18454780Y30167510D01*
X18423030Y30180210D01*
X18344290Y30223072D01*
X18255390Y30293240D01*
X18214115Y30338960D01*
X18179190Y30397380D01*
X18155378Y30464055D01*
X18147440Y30534540D01*
X18158023Y30621817D01*
X18189773Y30702462D01*
X18242690Y30776475D01*
X18312611Y30835389D01*
X18395372Y30870737D01*
X18490975Y30882520D01*
X18586507Y30870878D01*
G37*
G36*
X12386720Y30868550D02*
G01*
X12447045Y30850770D01*
X12489590Y30803780D01*
X12832490Y30093850D01*
X12854080Y30029080D01*
X12835665Y29985900D01*
X12780420Y29947800D01*
X12712475Y29926210D01*
X12671835Y29938275D01*
X12648975Y29961770D01*
X12629290Y29998600D01*
X12563250Y30135760D01*
X12211460Y30135760D01*
X12145420Y29998600D01*
X12125735Y29960500D01*
X12102875Y29936370D01*
X12062235Y29924940D01*
X11994290Y29946530D01*
X11939045Y29985582D01*
X11920630Y30029080D01*
X11942220Y30093850D01*
X12053447Y30323720D01*
X12302900Y30323720D01*
X12471810Y30323720D01*
X12387990Y30497710D01*
X12302900Y30323720D01*
X12053447Y30323720D01*
X12285120Y30802510D01*
X12327030Y30852040D01*
X12386720Y30868550D01*
G37*
G36*
X9775671Y30874547D02*
G01*
X9851236Y30846819D01*
X9913395Y30800605D01*
X9959609Y30741973D01*
X9987337Y30676992D01*
X9996580Y30605660D01*
X9988484Y30530254D01*
X9964195Y30466595D01*
X9927841Y30416589D01*
X9883550Y30382140D01*
X9833385Y30357216D01*
X9779410Y30335785D01*
X9725435Y30318799D01*
X9675270Y30307210D01*
X9594625Y30278635D01*
X9562240Y30229740D01*
X9575363Y30176118D01*
X9614733Y30143944D01*
X9680350Y30133220D01*
X9741310Y30152905D01*
X9792110Y30194180D01*
X9848625Y30241805D01*
X9891170Y30257680D01*
X9958480Y30227200D01*
X9999437Y30179099D01*
X10013090Y30141475D01*
X9980070Y30068450D01*
X9968640Y30054480D01*
X9931810Y30015745D01*
X9874660Y29975740D01*
X9788300Y29939545D01*
X9733372Y29928591D01*
X9675270Y29924940D01*
X9598929Y29932419D01*
X9525692Y29954856D01*
X9455560Y29992250D01*
X9407300Y30033684D01*
X9369200Y30089405D01*
X9344435Y30157191D01*
X9336180Y30234820D01*
X9344276Y30310861D01*
X9368565Y30373885D01*
X9404919Y30421986D01*
X9449210Y30453260D01*
X9499692Y30474374D01*
X9554620Y30491995D01*
X9609547Y30505806D01*
X9660030Y30515490D01*
X9740675Y30544700D01*
X9773060Y30601215D01*
X9745755Y30655825D01*
X9677175Y30675510D01*
X9609230Y30659000D01*
X9589545Y30642490D01*
X9574940Y30629790D01*
X9508900Y30604390D01*
X9463815Y30620265D01*
X9420000Y30667890D01*
X9389520Y30737740D01*
X9428890Y30799970D01*
X9460640Y30824100D01*
X9547635Y30864105D01*
X9613834Y30878869D01*
X9686700Y30883790D01*
X9775671Y30874547D01*
G37*
G36*
X19086764Y30164335D02*
G01*
X19120260Y30135760D01*
X19132325Y30101470D01*
X19134230Y30057020D01*
X19134230Y30051940D01*
X19109465Y29960500D01*
X19071683Y29942402D01*
X19007865Y29936370D01*
X18945476Y29945577D01*
X18911980Y29973200D01*
X18898645Y30008125D01*
X18896740Y30053210D01*
X18896740Y30058290D01*
X18918330Y30147190D01*
X18959446Y30167192D01*
X19024375Y30173860D01*
X19086764Y30164335D01*
G37*
G36*
X19406010Y30836800D02*
G01*
X19409820Y30834260D01*
X19618100Y30646300D01*
X19663820Y30571370D01*
X19623815Y30492630D01*
X19546980Y30448180D01*
X19458080Y30487550D01*
X19441570Y30502790D01*
X19441570Y30049400D01*
X19439665Y30003045D01*
X19427600Y29968120D01*
X19393628Y29943355D01*
X19329810Y29935100D01*
X19264405Y29943672D01*
X19230750Y29969390D01*
X19218685Y30003045D01*
X19216780Y30046860D01*
X19216780Y30754250D01*
X19223130Y30821560D01*
X19240910Y30848865D01*
X19273930Y30863470D01*
X19334255Y30869820D01*
X19406010Y30836800D01*
G37*
G36*
X14627000Y30868550D02*
G01*
X14687325Y30850770D01*
X14729870Y30803780D01*
X15072770Y30093850D01*
X15094360Y30029080D01*
X15075945Y29985900D01*
X15020700Y29947800D01*
X14952755Y29926210D01*
X14912115Y29938275D01*
X14889255Y29961770D01*
X14869570Y29998600D01*
X14803530Y30135760D01*
X14451740Y30135760D01*
X14385700Y29998600D01*
X14366015Y29960500D01*
X14343155Y29936370D01*
X14302515Y29924940D01*
X14234570Y29946530D01*
X14179325Y29985582D01*
X14160910Y30029080D01*
X14182500Y30093850D01*
X14293727Y30323720D01*
X14543180Y30323720D01*
X14712090Y30323720D01*
X14628270Y30497710D01*
X14543180Y30323720D01*
X14293727Y30323720D01*
X14525400Y30802510D01*
X14567310Y30852040D01*
X14627000Y30868550D01*
G37*
G36*
X16248155Y30859978D02*
G01*
X16281810Y30834260D01*
X16293875Y30800605D01*
X16295780Y30756790D01*
X16295780Y30050670D01*
X16288160Y29985900D01*
X16254505Y29949705D01*
X16184020Y29937640D01*
X16118615Y29946212D01*
X16084960Y29971930D01*
X16072895Y30004950D01*
X16070990Y30049400D01*
X16070990Y30755520D01*
X16077340Y30821560D01*
X16111948Y30856803D01*
X16182750Y30868550D01*
X16248155Y30859978D01*
G37*
G36*
X17814700Y30836800D02*
G01*
X17818510Y30834260D01*
X18026790Y30646300D01*
X18072510Y30571370D01*
X18032505Y30492630D01*
X17955670Y30448180D01*
X17866770Y30487550D01*
X17850260Y30502790D01*
X17850260Y30049400D01*
X17848355Y30003045D01*
X17836290Y29968120D01*
X17802318Y29943355D01*
X17738500Y29935100D01*
X17673095Y29943672D01*
X17639440Y29969390D01*
X17627375Y30003045D01*
X17625470Y30046860D01*
X17625470Y30754250D01*
X17631820Y30821560D01*
X17649600Y30848865D01*
X17682620Y30863470D01*
X17742945Y30869820D01*
X17814700Y30836800D01*
G37*
G36*
X11854590Y30858390D02*
G01*
X11876180Y30831085D01*
X11882530Y30778380D01*
X11876180Y30725040D01*
X11850780Y30695195D01*
X11791090Y30685670D01*
X11547250Y30685670D01*
X11547250Y30048130D01*
X11545345Y30004315D01*
X11533915Y29971295D01*
X11500895Y29945260D01*
X11438030Y29937640D01*
X11374530Y29945260D01*
X11340875Y29971295D01*
X11329445Y30003680D01*
X11327540Y30046860D01*
X11327540Y30685670D01*
X11084970Y30685670D01*
X11020200Y30697100D01*
X10998610Y30724405D01*
X10992260Y30777110D01*
X10998610Y30830450D01*
X11024010Y30860295D01*
X11083700Y30869820D01*
X11789820Y30869820D01*
X11854590Y30858390D01*
G37*
G36*
X15604265Y30876607D02*
G01*
X15691260Y30851246D01*
X15771905Y30808979D01*
X15846200Y30749805D01*
X15908430Y30678010D01*
X15952880Y30597881D01*
X15979550Y30509418D01*
X15988440Y30412620D01*
X15979709Y30315346D01*
X15953515Y30225454D01*
X15909859Y30142943D01*
X15848740Y30067815D01*
X15775794Y30005307D01*
X15696658Y29960659D01*
X15611329Y29933870D01*
X15519810Y29924940D01*
X15419798Y29931846D01*
X15333120Y29952562D01*
X15259778Y29987091D01*
X15199770Y30035430D01*
X15164210Y30112900D01*
X15164210Y30392300D01*
X15176910Y30463420D01*
X15260730Y30498980D01*
X15484250Y30498980D01*
X15545210Y30487550D01*
X15566165Y30459610D01*
X15571880Y30405635D01*
X15566800Y30352295D01*
X15545210Y30322450D01*
X15489330Y30312290D01*
X15389000Y30312290D01*
X15389000Y30173860D01*
X15448373Y30156715D01*
X15514730Y30151000D01*
X15606170Y30170209D01*
X15687450Y30227835D01*
X15729783Y30282727D01*
X15755183Y30344957D01*
X15763650Y30414525D01*
X15744918Y30513903D01*
X15688720Y30592325D01*
X15608393Y30643284D01*
X15517270Y30660270D01*
X15448690Y30651539D01*
X15390270Y30625345D01*
X15312800Y30590420D01*
X15269938Y30607248D01*
X15222630Y30657730D01*
X15193420Y30729485D01*
X15227710Y30786000D01*
X15318444Y30841033D01*
X15412848Y30874053D01*
X15510920Y30885060D01*
X15604265Y30876607D01*
G37*
G36*
X10926220Y30858390D02*
G01*
X10947810Y30831085D01*
X10954160Y30778380D01*
X10947810Y30725040D01*
X10922410Y30695195D01*
X10862720Y30685670D01*
X10618880Y30685670D01*
X10618880Y30048130D01*
X10616975Y30004315D01*
X10605545Y29971295D01*
X10572525Y29945260D01*
X10509660Y29937640D01*
X10446160Y29945260D01*
X10412505Y29971295D01*
X10401075Y30003680D01*
X10399170Y30046860D01*
X10399170Y30685670D01*
X10156600Y30685670D01*
X10091830Y30697100D01*
X10070240Y30724405D01*
X10063890Y30777110D01*
X10070240Y30830450D01*
X10095640Y30860295D01*
X10155330Y30869820D01*
X10861450Y30869820D01*
X10926220Y30858390D01*
G37*
G36*
X16837435Y30876607D02*
G01*
X16924430Y30851246D01*
X17005075Y30808979D01*
X17079370Y30749805D01*
X17141600Y30678010D01*
X17186050Y30597881D01*
X17212720Y30509418D01*
X17221610Y30412620D01*
X17212879Y30315346D01*
X17186685Y30225454D01*
X17143029Y30142943D01*
X17081910Y30067815D01*
X17008964Y30005307D01*
X16929828Y29960659D01*
X16844499Y29933870D01*
X16752980Y29924940D01*
X16652968Y29931846D01*
X16566290Y29952562D01*
X16492948Y29987091D01*
X16432940Y30035430D01*
X16397380Y30112900D01*
X16397380Y30392300D01*
X16410080Y30463420D01*
X16493900Y30498980D01*
X16717420Y30498980D01*
X16778380Y30487550D01*
X16799335Y30459610D01*
X16805050Y30405635D01*
X16799970Y30352295D01*
X16778380Y30322450D01*
X16722500Y30312290D01*
X16622170Y30312290D01*
X16622170Y30173860D01*
X16681543Y30156715D01*
X16747900Y30151000D01*
X16839340Y30170209D01*
X16920620Y30227835D01*
X16962953Y30282727D01*
X16988353Y30344957D01*
X16996820Y30414525D01*
X16978088Y30513903D01*
X16921890Y30592325D01*
X16841563Y30643284D01*
X16750440Y30660270D01*
X16681860Y30651539D01*
X16623440Y30625345D01*
X16545970Y30590420D01*
X16503108Y30607248D01*
X16455800Y30657730D01*
X16426590Y30729485D01*
X16460880Y30786000D01*
X16551614Y30841033D01*
X16646018Y30874053D01*
X16744090Y30885060D01*
X16837435Y30876607D01*
G37*
G36*
X13079505Y30862835D02*
G01*
X13103000Y30835530D01*
X13119510Y30792350D01*
X13259210Y30365630D01*
X13405260Y30806320D01*
X13440820Y30847595D01*
X13501145Y30868550D01*
X13553850Y30859660D01*
X13593537Y30831085D01*
X13618620Y30786000D01*
X13757050Y30368170D01*
X13896750Y30792350D01*
X13925325Y30854580D01*
X13971045Y30874900D01*
X14037720Y30862200D01*
X14101537Y30827593D01*
X14122810Y30782190D01*
X14108840Y30719960D01*
X13863730Y30015110D01*
X13854840Y29996060D01*
X13819915Y29957960D01*
X13753240Y29938910D01*
X13683390Y29968120D01*
X13663070Y29993520D01*
X13651640Y30015110D01*
X13645087Y30034516D01*
X13627459Y30086636D01*
X13598757Y30171472D01*
X13558981Y30289024D01*
X13508130Y30439290D01*
X13359540Y30001140D01*
X13323345Y29959865D01*
X13258575Y29938910D01*
X13193805Y29959865D01*
X13160150Y29993520D01*
X13151260Y30015110D01*
X12907420Y30719960D01*
X12892180Y30782190D01*
X12913452Y30827910D01*
X12977270Y30863470D01*
X13036960Y30876170D01*
X13079505Y30862835D01*
G37*
G36*
X7524245Y21850045D02*
G01*
X7524238Y21747602D01*
X7524214Y21645479D01*
X7524174Y21544080D01*
X7524117Y21443806D01*
X7524043Y21345062D01*
X7523953Y21248251D01*
X7523845Y21153776D01*
X7523721Y21062039D01*
X7523581Y20973445D01*
X7523423Y20888396D01*
X7523249Y20807295D01*
X7523058Y20730546D01*
X7522850Y20658552D01*
X7522625Y20591716D01*
X7522384Y20530442D01*
X7522125Y20475131D01*
X7521850Y20426188D01*
X7521559Y20384016D01*
X7521250Y20349018D01*
X7520924Y20321596D01*
X7520278Y20277353D01*
X7519326Y20220131D01*
X7518238Y20169830D01*
X7516894Y20125722D01*
X7515173Y20087077D01*
X7512953Y20053167D01*
X7510115Y20023263D01*
X7506538Y19996637D01*
X7502099Y19972559D01*
X7496680Y19950302D01*
X7490158Y19929135D01*
X7482413Y19908331D01*
X7473325Y19887160D01*
X7462772Y19864895D01*
X7450633Y19840806D01*
X7436788Y19814164D01*
X7417501Y19778711D01*
X7371539Y19704366D01*
X7321262Y19636481D01*
X7266065Y19574412D01*
X7205345Y19517514D01*
X7138498Y19465140D01*
X7064920Y19416646D01*
X7062235Y19415024D01*
X7001135Y19381095D01*
X6939938Y19353181D01*
X6876142Y19330259D01*
X6807242Y19311305D01*
X6806512Y19311156D01*
X6797291Y19310243D01*
X6780120Y19309358D01*
X6755181Y19308505D01*
X6722651Y19307685D01*
X6682711Y19306904D01*
X6635539Y19306164D01*
X6581314Y19305469D01*
X6520216Y19304824D01*
X6452425Y19304230D01*
X6417251Y19303974D01*
X6368203Y19303679D01*
X6313382Y19303406D01*
X6253129Y19303157D01*
X6187783Y19302929D01*
X6117684Y19302724D01*
X6043172Y19302541D01*
X5964585Y19302379D01*
X5882265Y19302239D01*
X5796550Y19302119D01*
X5707781Y19302019D01*
X5616297Y19301939D01*
X5522438Y19301879D01*
X5426543Y19301839D01*
X5328953Y19301817D01*
X5230008Y19301814D01*
X5130046Y19301830D01*
X5029407Y19301863D01*
X4928432Y19301914D01*
X4827460Y19301982D01*
X4726831Y19302066D01*
X4626884Y19302168D01*
X4527960Y19302285D01*
X4430398Y19302419D01*
X4334537Y19302568D01*
X4240718Y19302732D01*
X4149280Y19302911D01*
X4060563Y19303104D01*
X3974907Y19303311D01*
X3892651Y19303532D01*
X3814136Y19303766D01*
X3739700Y19304014D01*
X3669684Y19304274D01*
X3604427Y19304546D01*
X3544269Y19304831D01*
X3489550Y19305127D01*
X3440610Y19305434D01*
X3397788Y19305752D01*
X3361424Y19306081D01*
X3331858Y19306420D01*
X3309429Y19306768D01*
X3294478Y19307127D01*
X3287343Y19307494D01*
X3262484Y19310942D01*
X3232871Y19316627D01*
X3203060Y19324378D01*
X3170731Y19334813D01*
X3133569Y19348551D01*
X3063389Y19379223D01*
X2988839Y19419982D01*
X2917802Y19467498D01*
X2850836Y19521235D01*
X2788501Y19580654D01*
X2731355Y19645219D01*
X2679958Y19714393D01*
X2634868Y19787640D01*
X2596643Y19864421D01*
X2596445Y19864870D01*
X2579256Y19905826D01*
X2565450Y19943715D01*
X2554614Y19980401D01*
X2546334Y20017744D01*
X2540197Y20057608D01*
X2535788Y20101854D01*
X2532694Y20152345D01*
X2532514Y20156876D01*
X2532088Y20173336D01*
X2531673Y20197430D01*
X2531267Y20228788D01*
X2530873Y20267042D01*
X2530489Y20311823D01*
X2530118Y20362762D01*
X2529758Y20419491D01*
X2529412Y20481640D01*
X2529079Y20548840D01*
X2528759Y20620723D01*
X2528454Y20696920D01*
X2528164Y20777062D01*
X2527889Y20860780D01*
X2527630Y20947705D01*
X2527388Y21037468D01*
X2527162Y21129701D01*
X2526954Y21224035D01*
X2526763Y21320100D01*
X2526591Y21417529D01*
X2526552Y21442379D01*
X2843967Y21442379D01*
X2843996Y21353175D01*
X2844071Y21266442D01*
X2844195Y21182543D01*
X2844368Y21101840D01*
X2844592Y21024693D01*
X2844868Y20951464D01*
X2845198Y20882515D01*
X2845583Y20818207D01*
X2846024Y20758902D01*
X2846523Y20704962D01*
X2846998Y20659526D01*
X2847868Y20579806D01*
X2848722Y20507584D01*
X2849583Y20442429D01*
X2850473Y20383912D01*
X2851414Y20331603D01*
X2852429Y20285070D01*
X2853539Y20243884D01*
X2854767Y20207615D01*
X2856135Y20175831D01*
X2857666Y20148103D01*
X2859381Y20124000D01*
X2861303Y20103093D01*
X2863454Y20084950D01*
X2865856Y20069141D01*
X2868532Y20055237D01*
X2871503Y20042806D01*
X2874792Y20031419D01*
X2878421Y20020645D01*
X2882413Y20010053D01*
X2887791Y19997195D01*
X2901887Y19967746D01*
X2918765Y19936540D01*
X2936756Y19906579D01*
X2954192Y19880867D01*
X2955376Y19879273D01*
X2971262Y19859670D01*
X2991708Y19836862D01*
X3015319Y19812203D01*
X3040698Y19787045D01*
X3066448Y19762744D01*
X3091173Y19740653D01*
X3113476Y19722126D01*
X3131960Y19708517D01*
X3153655Y19694503D01*
X3184617Y19676256D01*
X3214489Y19661242D01*
X3244588Y19649079D01*
X3276232Y19639382D01*
X3310741Y19631769D01*
X3349432Y19625855D01*
X3393625Y19621258D01*
X3444638Y19617594D01*
X3452276Y19617281D01*
X3469091Y19616887D01*
X3493410Y19616503D01*
X3524869Y19616131D01*
X3563099Y19615770D01*
X3607735Y19615422D01*
X3658409Y19615086D01*
X3714755Y19614763D01*
X3776406Y19614454D01*
X3842996Y19614159D01*
X3914156Y19613878D01*
X3989522Y19613612D01*
X4068725Y19613361D01*
X4151400Y19613127D01*
X4237179Y19612908D01*
X4325696Y19612706D01*
X4416583Y19612521D01*
X4509475Y19612354D01*
X4604004Y19612205D01*
X4699804Y19612074D01*
X4796508Y19611963D01*
X4893749Y19611871D01*
X4991161Y19611798D01*
X5088376Y19611746D01*
X5185028Y19611715D01*
X5280750Y19611705D01*
X5375175Y19611716D01*
X5467937Y19611750D01*
X5558669Y19611806D01*
X5647004Y19611886D01*
X5732576Y19611989D01*
X5815017Y19612115D01*
X5893960Y19612267D01*
X5969040Y19612443D01*
X6039890Y19612644D01*
X6106141Y19612871D01*
X6167429Y19613124D01*
X6223386Y19613404D01*
X6273645Y19613711D01*
X6317839Y19614046D01*
X6353312Y19614355D01*
X6414149Y19614936D01*
X6467755Y19615541D01*
X6514732Y19616198D01*
X6555684Y19616934D01*
X6591216Y19617778D01*
X6621931Y19618757D01*
X6648432Y19619899D01*
X6671324Y19621232D01*
X6691211Y19622785D01*
X6708695Y19624585D01*
X6724381Y19626659D01*
X6738873Y19629037D01*
X6752775Y19631746D01*
X6766689Y19634813D01*
X6788886Y19641339D01*
X6815819Y19651487D01*
X6845186Y19664229D01*
X6874822Y19678572D01*
X6902561Y19693520D01*
X6926237Y19708080D01*
X6944260Y19720690D01*
X6992309Y19759233D01*
X7038461Y19803147D01*
X7080722Y19850436D01*
X7117097Y19899104D01*
X7125569Y19912329D01*
X7140458Y19938181D01*
X7155038Y19966351D01*
X7168222Y19994585D01*
X7178923Y20020629D01*
X7186057Y20042229D01*
X7186107Y20042417D01*
X7188449Y20051438D01*
X7190644Y20060613D01*
X7192698Y20070217D01*
X7194615Y20080526D01*
X7196400Y20091816D01*
X7198060Y20104364D01*
X7199599Y20118445D01*
X7201023Y20134336D01*
X7202336Y20152311D01*
X7203545Y20172648D01*
X7204653Y20195622D01*
X7205667Y20221509D01*
X7206592Y20250585D01*
X7207433Y20283127D01*
X7208195Y20319409D01*
X7208883Y20359709D01*
X7209503Y20404301D01*
X7210060Y20453463D01*
X7210559Y20507470D01*
X7211005Y20566597D01*
X7211404Y20631122D01*
X7211761Y20701319D01*
X7212081Y20777466D01*
X7212369Y20859837D01*
X7212631Y20948709D01*
X7212871Y21044358D01*
X7213096Y21147060D01*
X7213309Y21257090D01*
X7213518Y21374725D01*
X7213726Y21500241D01*
X7213863Y21592804D01*
X7214029Y21739162D01*
X7214124Y21880824D01*
X7214151Y22017624D01*
X7214108Y22149398D01*
X7213999Y22275980D01*
X7213823Y22397207D01*
X7213581Y22512913D01*
X7213275Y22622934D01*
X7212904Y22727105D01*
X7212471Y22825261D01*
X7211977Y22917237D01*
X7211421Y23002869D01*
X7210805Y23081992D01*
X7210130Y23154441D01*
X7209396Y23220051D01*
X7208605Y23278659D01*
X7207758Y23330098D01*
X7206856Y23374204D01*
X7205899Y23410813D01*
X7204888Y23439759D01*
X7203824Y23460879D01*
X7202709Y23474006D01*
X7196958Y23504918D01*
X7185807Y23543741D01*
X7170467Y23584906D01*
X7151718Y23626540D01*
X7130340Y23666767D01*
X7107113Y23703716D01*
X7105823Y23705572D01*
X7086458Y23730880D01*
X7062273Y23758888D01*
X7035018Y23787808D01*
X7006443Y23815846D01*
X6978298Y23841213D01*
X6952334Y23862116D01*
X6926728Y23879722D01*
X6891526Y23900811D01*
X6853733Y23920746D01*
X6816190Y23938047D01*
X6781735Y23951228D01*
X6776762Y23952784D01*
X6755950Y23958062D01*
X6732418Y23962635D01*
X6710364Y23965656D01*
X6699026Y23966619D01*
X6680691Y23967780D01*
X6657829Y23968867D01*
X6630275Y23969883D01*
X6597864Y23970828D01*
X6560431Y23971703D01*
X6517811Y23972509D01*
X6469839Y23973246D01*
X6416350Y23973917D01*
X6357179Y23974522D01*
X6292161Y23975062D01*
X6221131Y23975537D01*
X6143924Y23975949D01*
X6060375Y23976299D01*
X5970320Y23976588D01*
X5873592Y23976817D01*
X5770028Y23976986D01*
X5659462Y23977097D01*
X5541730Y23977150D01*
X5416665Y23977147D01*
X5284105Y23977088D01*
X5143882Y23976975D01*
X4995833Y23976809D01*
X4839792Y23976590D01*
X4783161Y23976502D01*
X4654305Y23976293D01*
X4533252Y23976082D01*
X4419751Y23975866D01*
X4313553Y23975641D01*
X4214409Y23975405D01*
X4122068Y23975155D01*
X4036281Y23974888D01*
X3956798Y23974601D01*
X3883370Y23974292D01*
X3815748Y23973957D01*
X3753681Y23973594D01*
X3696921Y23973200D01*
X3645217Y23972771D01*
X3598320Y23972306D01*
X3555980Y23971801D01*
X3517948Y23971253D01*
X3483974Y23970660D01*
X3453808Y23970018D01*
X3427202Y23969325D01*
X3403904Y23968578D01*
X3383667Y23967774D01*
X3366239Y23966910D01*
X3351372Y23965984D01*
X3338817Y23964991D01*
X3328322Y23963931D01*
X3319639Y23962799D01*
X3312518Y23961593D01*
X3306710Y23960310D01*
X3301965Y23958947D01*
X3243464Y23937430D01*
X3180403Y23907711D01*
X3122651Y23872686D01*
X3069331Y23831815D01*
X3019569Y23784557D01*
X2985494Y23745872D01*
X2947884Y23695009D01*
X2915594Y23641627D01*
X2889256Y23586912D01*
X2869500Y23532055D01*
X2856957Y23478244D01*
X2856665Y23475827D01*
X2855934Y23464198D01*
X2855212Y23444916D01*
X2854500Y23418345D01*
X2853799Y23384846D01*
X2853112Y23344779D01*
X2852438Y23298508D01*
X2851780Y23246392D01*
X2851140Y23188795D01*
X2850517Y23126077D01*
X2849914Y23058599D01*
X2849332Y22986725D01*
X2848772Y22910814D01*
X2848236Y22831229D01*
X2847725Y22748331D01*
X2847241Y22662481D01*
X2846784Y22574042D01*
X2846356Y22483375D01*
X2845959Y22390841D01*
X2845594Y22296802D01*
X2845262Y22201620D01*
X2844965Y22105655D01*
X2844704Y22009270D01*
X2844480Y21912826D01*
X2844294Y21816685D01*
X2844149Y21721209D01*
X2844045Y21626757D01*
X2843984Y21533694D01*
X2843967Y21442379D01*
X2526552Y21442379D01*
X2526438Y21515951D01*
X2526305Y21614999D01*
X2526191Y21714303D01*
X2526098Y21813494D01*
X2526026Y21912204D01*
X2525976Y22010064D01*
X2525947Y22106704D01*
X2525941Y22201757D01*
X2525958Y22294853D01*
X2525999Y22385623D01*
X2526064Y22473698D01*
X2526153Y22558710D01*
X2526267Y22640290D01*
X2526407Y22718069D01*
X2526574Y22791677D01*
X2526767Y22860747D01*
X2526987Y22924909D01*
X2527234Y22983794D01*
X2527510Y23037034D01*
X2527815Y23084259D01*
X2528148Y23125101D01*
X2528512Y23159192D01*
X2528901Y23190564D01*
X2529648Y23249628D01*
X2530329Y23301348D01*
X2530964Y23346273D01*
X2531570Y23384951D01*
X2532165Y23417929D01*
X2532767Y23445756D01*
X2533394Y23468980D01*
X2534063Y23488147D01*
X2534794Y23503807D01*
X2535604Y23516508D01*
X2536510Y23526797D01*
X2537530Y23535221D01*
X2538684Y23542330D01*
X2539988Y23548671D01*
X2541460Y23554792D01*
X2557945Y23614722D01*
X2582561Y23688093D01*
X2610708Y23755454D01*
X2642787Y23817739D01*
X2679199Y23875883D01*
X2684039Y23882874D01*
X2739004Y23954832D01*
X2799051Y24020703D01*
X2863866Y24080266D01*
X2933137Y24133301D01*
X3006549Y24179588D01*
X3083790Y24218907D01*
X3164546Y24251038D01*
X3248504Y24275761D01*
X3254543Y24277249D01*
X3261744Y24279017D01*
X3268776Y24280681D01*
X3275883Y24282245D01*
X3283312Y24283712D01*
X3291305Y24285085D01*
X3300110Y24286367D01*
X3309969Y24287560D01*
X3321129Y24288668D01*
X3333834Y24289694D01*
X3348328Y24290642D01*
X3364858Y24291513D01*
X3383667Y24292310D01*
X3405001Y24293038D01*
X3429104Y24293699D01*
X3456222Y24294296D01*
X3486598Y24294832D01*
X3520479Y24295310D01*
X3558109Y24295732D01*
X3599732Y24296103D01*
X3645595Y24296425D01*
X3695940Y24296701D01*
X3751015Y24296934D01*
X3811062Y24297127D01*
X3876328Y24297283D01*
X3947057Y24297406D01*
X4023494Y24297497D01*
X4105883Y24297561D01*
X4194470Y24297599D01*
X4289500Y24297616D01*
X4391218Y24297614D01*
X4499867Y24297597D01*
X4615694Y24297566D01*
X4738943Y24297526D01*
X4869859Y24297479D01*
X5008687Y24297428D01*
X5119781Y24297386D01*
X5254640Y24297330D01*
X5381771Y24297269D01*
X5501411Y24297200D01*
X5613802Y24297120D01*
X5719183Y24297029D01*
X5817793Y24296922D01*
X5909872Y24296798D01*
X5995661Y24296654D01*
X6075398Y24296489D01*
X6149324Y24296299D01*
X6217679Y24296082D01*
X6280701Y24295837D01*
X6338631Y24295559D01*
X6391708Y24295248D01*
X6440173Y24294901D01*
X6484264Y24294516D01*
X6524222Y24294089D01*
X6560287Y24293619D01*
X6592698Y24293103D01*
X6621695Y24292540D01*
X6647517Y24291926D01*
X6670405Y24291259D01*
X6690597Y24290537D01*
X6708335Y24289758D01*
X6723857Y24288919D01*
X6737403Y24288017D01*
X6749214Y24287051D01*
X6759528Y24286018D01*
X6768586Y24284916D01*
X6776626Y24283742D01*
X6783890Y24282494D01*
X6790617Y24281169D01*
X6797046Y24279766D01*
X6847634Y24266612D01*
X6925347Y24239987D01*
X7001980Y24206054D01*
X7076454Y24165311D01*
X7147692Y24118253D01*
X7151084Y24115772D01*
X7177273Y24095027D01*
X7206522Y24069555D01*
X7237231Y24040931D01*
X7267798Y24010731D01*
X7296622Y23980531D01*
X7322101Y23951906D01*
X7342634Y23926432D01*
X7381623Y23870906D01*
X7419426Y23809016D01*
X7452063Y23746480D01*
X7478808Y23684696D01*
X7498935Y23625065D01*
X7502944Y23610749D01*
X7506390Y23597460D01*
X7509271Y23584578D01*
X7511654Y23571248D01*
X7513607Y23556613D01*
X7515197Y23539817D01*
X7516491Y23520003D01*
X7517556Y23496316D01*
X7518460Y23467898D01*
X7519269Y23433893D01*
X7520053Y23393445D01*
X7520876Y23345697D01*
X7520884Y23345199D01*
X7521210Y23321024D01*
X7521519Y23289105D01*
X7521812Y23249846D01*
X7522088Y23203650D01*
X7522348Y23150920D01*
X7522591Y23092059D01*
X7522817Y23027470D01*
X7523027Y22957557D01*
X7523220Y22882723D01*
X7523396Y22803370D01*
X7523556Y22719903D01*
X7523699Y22632723D01*
X7523826Y22542235D01*
X7523936Y22448842D01*
X7524029Y22352946D01*
X7524106Y22254951D01*
X7524165Y22155261D01*
X7524209Y22054277D01*
X7524218Y22017624D01*
X7524235Y21952404D01*
X7524245Y21850045D01*
G37*
G36*
X6903204Y22896961D02*
G01*
X6899384Y22864451D01*
X6897993Y22855996D01*
X6881193Y22780420D01*
X6857304Y22708591D01*
X6826626Y22640842D01*
X6789460Y22577502D01*
X6746106Y22518902D01*
X6696867Y22465374D01*
X6642041Y22417247D01*
X6581931Y22374853D01*
X6516836Y22338522D01*
X6447058Y22308585D01*
X6372897Y22285373D01*
X6341733Y22278371D01*
X6286881Y22270210D01*
X6229102Y22266115D01*
X6170865Y22266137D01*
X6114638Y22270330D01*
X6062888Y22278747D01*
X6040173Y22283972D01*
X5990347Y22297965D01*
X5943089Y22315220D01*
X5896536Y22336553D01*
X5848823Y22362783D01*
X5798084Y22394724D01*
X5783523Y22404353D01*
X5766133Y22415768D01*
X5752025Y22424931D01*
X5742367Y22431083D01*
X5738327Y22433468D01*
X5736512Y22432290D01*
X5729247Y22426221D01*
X5717009Y22415466D01*
X5700374Y22400559D01*
X5679916Y22382031D01*
X5656211Y22360416D01*
X5629832Y22336245D01*
X5601356Y22310050D01*
X5571357Y22282365D01*
X5540410Y22253721D01*
X5509090Y22224652D01*
X5477972Y22195688D01*
X5447631Y22167363D01*
X5418641Y22140208D01*
X5391578Y22114758D01*
X5367016Y22091542D01*
X5345530Y22071095D01*
X5327696Y22053948D01*
X5314088Y22040633D01*
X5308169Y22034762D01*
X5289699Y22016403D01*
X5275159Y22001550D01*
X5263619Y21988843D01*
X5254152Y21976924D01*
X5245827Y21964433D01*
X5237718Y21950010D01*
X5228893Y21932298D01*
X5218426Y21909937D01*
X5205387Y21881568D01*
X5204089Y21878784D01*
X5191149Y21855009D01*
X5175440Y21833489D01*
X5155410Y21812348D01*
X5129509Y21789706D01*
X5109627Y21773439D01*
X5112672Y21540003D01*
X5115717Y21306566D01*
X5132554Y21302260D01*
X5144976Y21299053D01*
X5191226Y21286553D01*
X5232535Y21274466D01*
X5267870Y21263106D01*
X5296196Y21252785D01*
X5358190Y21224822D01*
X5422448Y21187664D01*
X5481474Y21144397D01*
X5535057Y21095267D01*
X5582983Y21040518D01*
X5625043Y20980394D01*
X5661023Y20915140D01*
X5690712Y20845001D01*
X5713899Y20770222D01*
X5715898Y20762378D01*
X5723211Y20731142D01*
X5728477Y20702806D01*
X5731916Y20675170D01*
X5733748Y20646033D01*
X5734193Y20613194D01*
X5733919Y20598446D01*
X5733472Y20574454D01*
X5733054Y20560721D01*
X5732066Y20535177D01*
X5730813Y20514974D01*
X5729061Y20498167D01*
X5726580Y20482813D01*
X5723139Y20466970D01*
X5718506Y20448694D01*
X5714518Y20434037D01*
X5689223Y20357528D01*
X5657847Y20286441D01*
X5620403Y20220792D01*
X5576904Y20160598D01*
X5527362Y20105874D01*
X5471789Y20056635D01*
X5410198Y20012899D01*
X5342603Y19974680D01*
X5333302Y19970120D01*
X5291913Y19952003D01*
X5247305Y19935491D01*
X5201941Y19921370D01*
X5158286Y19910423D01*
X5118803Y19903434D01*
X5107159Y19902464D01*
X5088566Y19901693D01*
X5065402Y19901227D01*
X5039519Y19901104D01*
X5012765Y19901358D01*
X4979250Y19902350D01*
X4939886Y19905081D01*
X4904225Y19909833D01*
X4869779Y19917057D01*
X4834058Y19927200D01*
X4794573Y19940712D01*
X4756327Y19956023D01*
X4692504Y19987938D01*
X4631400Y20026437D01*
X4573879Y20070759D01*
X4520806Y20120144D01*
X4473044Y20173829D01*
X4431457Y20231054D01*
X4396909Y20291057D01*
X4374852Y20338919D01*
X4353576Y20397523D01*
X4338497Y20457128D01*
X4329365Y20519056D01*
X4325929Y20584630D01*
X4326469Y20603572D01*
X4491975Y20603572D01*
X4492448Y20568963D01*
X4494274Y20536775D01*
X4495057Y20528451D01*
X4504205Y20475310D01*
X4520707Y20421635D01*
X4544813Y20366589D01*
X4573918Y20315679D01*
X4610135Y20265762D01*
X4651409Y20219957D01*
X4696741Y20179257D01*
X4745132Y20144657D01*
X4795583Y20117150D01*
X4809289Y20111046D01*
X4843652Y20097349D01*
X4879206Y20085113D01*
X4913217Y20075236D01*
X4942948Y20068622D01*
X4947690Y20067851D01*
X4973844Y20065060D01*
X5004953Y20063576D01*
X5038464Y20063421D01*
X5071826Y20064618D01*
X5102489Y20067191D01*
X5113761Y20068737D01*
X5151366Y20076744D01*
X5192075Y20089014D01*
X5233655Y20104652D01*
X5273872Y20122764D01*
X5310492Y20142455D01*
X5341284Y20162832D01*
X5354301Y20173114D01*
X5378536Y20194154D01*
X5404034Y20218224D01*
X5428829Y20243371D01*
X5450951Y20267641D01*
X5468435Y20289080D01*
X5496048Y20331096D01*
X5521758Y20381898D01*
X5543063Y20437625D01*
X5559391Y20496966D01*
X5564171Y20524744D01*
X5567567Y20560169D01*
X5569054Y20598446D01*
X5568602Y20636923D01*
X5566181Y20672946D01*
X5561760Y20703864D01*
X5550736Y20749379D01*
X5528713Y20811232D01*
X5499301Y20869712D01*
X5462615Y20924599D01*
X5418770Y20975677D01*
X5406465Y20988145D01*
X5362342Y21028039D01*
X5317056Y21061176D01*
X5269029Y21088617D01*
X5216683Y21111422D01*
X5194295Y21119489D01*
X5171416Y21126914D01*
X5150803Y21132806D01*
X5133792Y21136816D01*
X5121719Y21138594D01*
X5115922Y21137791D01*
X5115820Y21137636D01*
X5114929Y21131992D01*
X5114038Y21119389D01*
X5113191Y21100901D01*
X5112429Y21077602D01*
X5111795Y21050564D01*
X5111331Y21020862D01*
X5109977Y20907164D01*
X5121527Y20904276D01*
X5123292Y20903823D01*
X5155102Y20892091D01*
X5187989Y20873751D01*
X5220376Y20849816D01*
X5250683Y20821301D01*
X5262722Y20808103D01*
X5285770Y20779152D01*
X5304938Y20748624D01*
X5322402Y20713237D01*
X5336995Y20680492D01*
X5336831Y20607081D01*
X5336736Y20584325D01*
X5336425Y20563301D01*
X5335734Y20547463D01*
X5334489Y20535192D01*
X5332517Y20524871D01*
X5329642Y20514883D01*
X5325690Y20503610D01*
X5307943Y20462766D01*
X5281323Y20419221D01*
X5248827Y20381281D01*
X5210565Y20349071D01*
X5166648Y20322719D01*
X5157038Y20318031D01*
X5134751Y20308500D01*
X5113523Y20301920D01*
X5091065Y20297818D01*
X5065093Y20295721D01*
X5033320Y20295158D01*
X5006075Y20295632D01*
X4974424Y20297863D01*
X4947183Y20302257D01*
X4922279Y20309177D01*
X4897633Y20318989D01*
X4880411Y20327353D01*
X4838545Y20353561D01*
X4802570Y20385388D01*
X4772597Y20422704D01*
X4748737Y20465378D01*
X4731104Y20513279D01*
X4727933Y20525169D01*
X4724838Y20540487D01*
X4722891Y20557027D01*
X4721846Y20577096D01*
X4721452Y20603003D01*
X4721459Y20612841D01*
X4722656Y20644961D01*
X4726170Y20672418D01*
X4732620Y20697847D01*
X4742627Y20723886D01*
X4756812Y20753169D01*
X4772510Y20781030D01*
X4793269Y20810597D01*
X4816721Y20835767D01*
X4844226Y20857766D01*
X4877147Y20877818D01*
X4916847Y20897150D01*
X4945472Y20909890D01*
X4945353Y21020742D01*
X4945337Y21034496D01*
X4945227Y21066192D01*
X4944899Y21090867D01*
X4944191Y21109351D01*
X4942946Y21122474D01*
X4941003Y21131062D01*
X4938204Y21135946D01*
X4934390Y21137954D01*
X4929400Y21137915D01*
X4923075Y21136657D01*
X4910860Y21133507D01*
X4887674Y21126327D01*
X4861191Y21117087D01*
X4833857Y21106693D01*
X4808117Y21096048D01*
X4786414Y21086059D01*
X4763960Y21073875D01*
X4736583Y21056934D01*
X4708632Y21037819D01*
X4682089Y21017954D01*
X4658937Y20998766D01*
X4641158Y20981677D01*
X4608307Y20942631D01*
X4574303Y20893565D01*
X4544791Y20841274D01*
X4520850Y20787695D01*
X4503561Y20734769D01*
X4501772Y20727105D01*
X4497752Y20702369D01*
X4494718Y20672231D01*
X4492762Y20638647D01*
X4491975Y20603572D01*
X4326469Y20603572D01*
X4327939Y20655169D01*
X4331190Y20692473D01*
X4342724Y20763071D01*
X4361353Y20830744D01*
X4387425Y20896638D01*
X4421289Y20961898D01*
X4451748Y21010177D01*
X4489840Y21059986D01*
X4532380Y21104917D01*
X4580581Y21146231D01*
X4635654Y21185190D01*
X4677978Y21211082D01*
X4723835Y21235343D01*
X4771129Y21256176D01*
X4821530Y21274242D01*
X4876709Y21290200D01*
X4938335Y21304710D01*
X4947512Y21306675D01*
X4947125Y21495221D01*
X4947045Y21522105D01*
X4946834Y21562374D01*
X4946527Y21601186D01*
X4946140Y21637424D01*
X4945686Y21669971D01*
X4945179Y21697711D01*
X4944635Y21719527D01*
X4944066Y21734303D01*
X4941394Y21784840D01*
X4925081Y21797518D01*
X4904109Y21815653D01*
X4877657Y21846036D01*
X4856289Y21881443D01*
X4839201Y21923053D01*
X4836418Y21931164D01*
X4833446Y21939099D01*
X4830079Y21946789D01*
X4825965Y21954593D01*
X4820752Y21962870D01*
X4814091Y21971980D01*
X4805629Y21982283D01*
X4795014Y21994138D01*
X4781897Y22007905D01*
X4765924Y22023943D01*
X4746746Y22042612D01*
X4724010Y22064272D01*
X4697366Y22089282D01*
X4666462Y22118001D01*
X4630947Y22150790D01*
X4590469Y22188008D01*
X4544677Y22230014D01*
X4493220Y22277168D01*
X4481581Y22287824D01*
X4451581Y22315219D01*
X4423399Y22340854D01*
X4397633Y22364189D01*
X4374882Y22384689D01*
X4355742Y22401815D01*
X4340810Y22415030D01*
X4330686Y22423796D01*
X4325966Y22427577D01*
X4324978Y22428157D01*
X4320993Y22429678D01*
X4316253Y22429379D01*
X4309577Y22426686D01*
X4299780Y22421024D01*
X4285679Y22411816D01*
X4266091Y22398490D01*
X4207066Y22361236D01*
X4142628Y22328047D01*
X4077029Y22302178D01*
X4009212Y22283216D01*
X3938119Y22270750D01*
X3886653Y22266217D01*
X3814502Y22266582D01*
X3742868Y22274521D01*
X3672459Y22289752D01*
X3603985Y22311992D01*
X3538152Y22340961D01*
X3475669Y22376376D01*
X3417245Y22417956D01*
X3363588Y22465418D01*
X3315407Y22518482D01*
X3302356Y22534981D01*
X3257267Y22599530D01*
X3220052Y22666037D01*
X3190738Y22734402D01*
X3169351Y22804519D01*
X3155920Y22876287D01*
X3150762Y22945680D01*
X3320534Y22945680D01*
X3321076Y22918341D01*
X3322251Y22894776D01*
X3324101Y22876543D01*
X3326513Y22863173D01*
X3332943Y22836729D01*
X3341677Y22807170D01*
X3351867Y22777099D01*
X3362664Y22749118D01*
X3373220Y22725829D01*
X3390126Y22695623D01*
X3416796Y22655920D01*
X3447511Y22617055D01*
X3480746Y22580793D01*
X3514973Y22548898D01*
X3548668Y22523131D01*
X3573684Y22507337D01*
X3631586Y22477462D01*
X3693087Y22454181D01*
X3756632Y22438131D01*
X3814569Y22430576D01*
X3878159Y22429901D01*
X3941814Y22436856D01*
X4004602Y22451277D01*
X4065589Y22473005D01*
X4123841Y22501876D01*
X4129387Y22505059D01*
X4148411Y22516119D01*
X4165333Y22526154D01*
X4178488Y22534169D01*
X4186207Y22539167D01*
X4197751Y22547362D01*
X4182129Y22563593D01*
X4177437Y22568342D01*
X4163701Y22581502D01*
X4146522Y22597284D01*
X4127243Y22614518D01*
X4107210Y22632036D01*
X4087766Y22648668D01*
X4070256Y22663247D01*
X4056024Y22674603D01*
X4046416Y22681567D01*
X4039500Y22685712D01*
X4028766Y22691066D01*
X4021761Y22693160D01*
X4020434Y22693005D01*
X4012029Y22690984D01*
X3998033Y22686991D01*
X3980031Y22681491D01*
X3959611Y22674949D01*
X3929366Y22665533D01*
X3902489Y22658585D01*
X3879317Y22654630D01*
X3857937Y22653455D01*
X3836437Y22654846D01*
X3812902Y22658589D01*
X3791831Y22663115D01*
X3745586Y22677143D01*
X3704494Y22696185D01*
X3667173Y22720958D01*
X3632242Y22752176D01*
X3631712Y22752715D01*
X3602744Y22785878D01*
X3580556Y22819760D01*
X3572317Y22835055D01*
X3562631Y22855120D01*
X3555690Y22873594D01*
X3551054Y22892421D01*
X3548285Y22913549D01*
X3546946Y22938923D01*
X3546596Y22970489D01*
X3546616Y22985867D01*
X3546831Y23007322D01*
X3547450Y23023367D01*
X3548679Y23035747D01*
X3550721Y23046210D01*
X3553781Y23056502D01*
X3558064Y23068369D01*
X3562275Y23079123D01*
X3585539Y23126340D01*
X3614188Y23167814D01*
X3647770Y23203245D01*
X3685837Y23232332D01*
X3727938Y23254775D01*
X3773625Y23270274D01*
X3822447Y23278530D01*
X3873956Y23279241D01*
X3905363Y23276323D01*
X3936102Y23270440D01*
X3965310Y23260940D01*
X3996369Y23246929D01*
X4005467Y23242181D01*
X4046245Y23215421D01*
X4082224Y23182258D01*
X4113110Y23143055D01*
X4138606Y23098174D01*
X4158418Y23047977D01*
X4163576Y23029416D01*
X4169539Y22989029D01*
X4168740Y22946348D01*
X4161200Y22900208D01*
X4158906Y22889698D01*
X4154258Y22863711D01*
X4152598Y22843640D01*
X4153880Y22828255D01*
X4158058Y22816328D01*
X4159391Y22814198D01*
X4166556Y22805388D01*
X4178087Y22792936D01*
X4192974Y22777787D01*
X4210205Y22760884D01*
X4228772Y22743171D01*
X4247664Y22725593D01*
X4265871Y22709094D01*
X4282383Y22694618D01*
X4296190Y22683109D01*
X4306281Y22675511D01*
X4311647Y22672769D01*
X4312121Y22672999D01*
X4315704Y22678227D01*
X4321505Y22689289D01*
X4328907Y22704779D01*
X4337296Y22723288D01*
X4346056Y22743411D01*
X4354572Y22763740D01*
X4362228Y22782867D01*
X4368409Y22799387D01*
X4372499Y22811892D01*
X4384380Y22862431D01*
X4392833Y22927885D01*
X4393709Y22993268D01*
X4387054Y23057730D01*
X4372919Y23120424D01*
X4351352Y23180500D01*
X4321512Y23240258D01*
X4285388Y23295391D01*
X4243548Y23344727D01*
X4196096Y23388170D01*
X4143136Y23425626D01*
X4084773Y23456999D01*
X4021111Y23482194D01*
X4001708Y23488330D01*
X3977809Y23494677D01*
X3954156Y23499257D01*
X3929078Y23502254D01*
X3900902Y23503856D01*
X3867957Y23504249D01*
X3828571Y23503618D01*
X3807827Y23503062D01*
X3781980Y23502099D01*
X3761268Y23500712D01*
X3743870Y23498585D01*
X3727966Y23495405D01*
X3711734Y23490858D01*
X3693355Y23484627D01*
X3671007Y23476400D01*
X3630617Y23459083D01*
X3578989Y23430762D01*
X3529590Y23396917D01*
X3484351Y23358905D01*
X3445205Y23318079D01*
X3444668Y23317443D01*
X3417367Y23281621D01*
X3390840Y23240302D01*
X3366507Y23196064D01*
X3345789Y23151487D01*
X3330107Y23109153D01*
X3328344Y23101668D01*
X3325927Y23084420D01*
X3323902Y23061594D01*
X3322311Y23034748D01*
X3321192Y23005442D01*
X3320586Y22975232D01*
X3320534Y22945680D01*
X3150762Y22945680D01*
X3150470Y22949603D01*
X3153029Y23024364D01*
X3163622Y23100467D01*
X3165277Y23108918D01*
X3182856Y23179335D01*
X3206486Y23244961D01*
X3236573Y23306532D01*
X3273523Y23364787D01*
X3317743Y23420461D01*
X3369638Y23474291D01*
X3371729Y23476276D01*
X3421720Y23520712D01*
X3470797Y23558139D01*
X3520325Y23589329D01*
X3571669Y23615056D01*
X3626192Y23636094D01*
X3685261Y23653216D01*
X3686703Y23653573D01*
X3729476Y23662205D01*
X3776967Y23668566D01*
X3826124Y23672415D01*
X3873897Y23673510D01*
X3917234Y23671609D01*
X3976841Y23663632D01*
X4046267Y23647209D01*
X4113586Y23623686D01*
X4178233Y23593529D01*
X4239638Y23557201D01*
X4297236Y23515167D01*
X4350459Y23467892D01*
X4398739Y23415838D01*
X4441510Y23359472D01*
X4478205Y23299256D01*
X4508255Y23235656D01*
X4531095Y23169135D01*
X4531707Y23166948D01*
X4540753Y23131979D01*
X4547407Y23099684D01*
X4551906Y23067916D01*
X4554488Y23034526D01*
X4555390Y22997366D01*
X4555339Y22993268D01*
X4554851Y22954286D01*
X4553656Y22922409D01*
X4548737Y22861738D01*
X4540166Y22806373D01*
X4527530Y22754791D01*
X4510417Y22705469D01*
X4488418Y22656884D01*
X4461118Y22607515D01*
X4433048Y22560614D01*
X4476577Y22518676D01*
X4482403Y22513093D01*
X4498936Y22497423D01*
X4520305Y22477332D01*
X4545709Y22453564D01*
X4574344Y22426863D01*
X4605409Y22397972D01*
X4638100Y22367635D01*
X4671615Y22336595D01*
X4705152Y22305597D01*
X4737908Y22275383D01*
X4769079Y22246698D01*
X4797865Y22220284D01*
X4823461Y22196887D01*
X4845066Y22177248D01*
X4846608Y22175855D01*
X4865018Y22159567D01*
X4881634Y22145480D01*
X4895412Y22134433D01*
X4905307Y22127266D01*
X4910277Y22124818D01*
X4912594Y22125328D01*
X4921920Y22128532D01*
X4935606Y22133969D01*
X4951590Y22140840D01*
X4982122Y22152108D01*
X5015665Y22158456D01*
X5049529Y22158014D01*
X5085064Y22150751D01*
X5123618Y22136633D01*
X5155767Y22122700D01*
X5387913Y22336639D01*
X5395625Y22343748D01*
X5432121Y22377412D01*
X5466785Y22409428D01*
X5499152Y22439365D01*
X5528761Y22466792D01*
X5555147Y22491280D01*
X5577847Y22512398D01*
X5596397Y22529716D01*
X5610335Y22542802D01*
X5619197Y22551227D01*
X5622519Y22554560D01*
X5622488Y22556127D01*
X5619739Y22563938D01*
X5613916Y22576848D01*
X5605643Y22593515D01*
X5595543Y22612596D01*
X5585430Y22631515D01*
X5561829Y22679500D01*
X5543041Y22724670D01*
X5528331Y22769140D01*
X5516966Y22815029D01*
X5508211Y22864451D01*
X5507328Y22870966D01*
X5504893Y22897500D01*
X5503398Y22928779D01*
X5502813Y22962966D01*
X5502989Y22984172D01*
X5665797Y22984172D01*
X5666521Y22947450D01*
X5668667Y22911624D01*
X5672170Y22879083D01*
X5676962Y22852216D01*
X5688895Y22808777D01*
X5707359Y22756920D01*
X5729106Y22708304D01*
X5729858Y22706809D01*
X5737971Y22691001D01*
X5743586Y22681339D01*
X5747662Y22676703D01*
X5751158Y22675972D01*
X5755035Y22678025D01*
X5757585Y22679909D01*
X5768213Y22688588D01*
X5782914Y22701312D01*
X5800373Y22716879D01*
X5819273Y22734082D01*
X5838301Y22751720D01*
X5856140Y22768586D01*
X5871476Y22783477D01*
X5882994Y22795189D01*
X5886143Y22798526D01*
X5896607Y22809956D01*
X5903766Y22819450D01*
X5907890Y22828661D01*
X5909250Y22839241D01*
X5908115Y22852845D01*
X5904757Y22871124D01*
X5899446Y22895732D01*
X5897095Y22906734D01*
X5893071Y22928375D01*
X5890891Y22946784D01*
X5890249Y22965185D01*
X5890842Y22986802D01*
X5896504Y23031863D01*
X5909756Y23077386D01*
X5929883Y23120307D01*
X5956263Y23159836D01*
X5988274Y23195181D01*
X6025296Y23225550D01*
X6066705Y23250153D01*
X6111882Y23268198D01*
X6134015Y23273663D01*
X6168717Y23278423D01*
X6205640Y23279938D01*
X6241705Y23278119D01*
X6273831Y23272877D01*
X6278987Y23271609D01*
X6322169Y23257909D01*
X6360135Y23239487D01*
X6394836Y23215223D01*
X6428221Y23183992D01*
X6430491Y23181597D01*
X6449282Y23160718D01*
X6463559Y23142266D01*
X6475016Y23123839D01*
X6485348Y23103036D01*
X6499799Y23065998D01*
X6511951Y23016781D01*
X6516195Y22967940D01*
X6512625Y22920003D01*
X6501335Y22873500D01*
X6482418Y22828961D01*
X6455970Y22786914D01*
X6422085Y22747890D01*
X6422072Y22747876D01*
X6383562Y22714255D01*
X6343670Y22688605D01*
X6302218Y22670831D01*
X6259026Y22660836D01*
X6249336Y22659585D01*
X6197596Y22656525D01*
X6149617Y22660262D01*
X6104597Y22670906D01*
X6061734Y22688572D01*
X6058468Y22690283D01*
X6052337Y22693712D01*
X6047072Y22696415D01*
X6042092Y22698002D01*
X6036816Y22698082D01*
X6030664Y22696265D01*
X6023055Y22692161D01*
X6013407Y22685379D01*
X6001139Y22675529D01*
X5985672Y22662222D01*
X5966423Y22645066D01*
X5942811Y22623671D01*
X5914257Y22597648D01*
X5880179Y22566605D01*
X5859861Y22548127D01*
X5895723Y22524264D01*
X5931365Y22502459D01*
X5991756Y22473236D01*
X6056032Y22451072D01*
X6123859Y22436096D01*
X6176507Y22430100D01*
X6241090Y22429963D01*
X6304634Y22437883D01*
X6366944Y22453820D01*
X6427828Y22477736D01*
X6487091Y22509590D01*
X6513733Y22527155D01*
X6563008Y22566693D01*
X6607754Y22612177D01*
X6647266Y22662652D01*
X6680839Y22717167D01*
X6707769Y22774768D01*
X6727351Y22834501D01*
X6732344Y22859278D01*
X6736366Y22892962D01*
X6738709Y22930899D01*
X6739386Y22971119D01*
X6738409Y23011648D01*
X6735789Y23050516D01*
X6731539Y23085750D01*
X6725669Y23115380D01*
X6717472Y23142170D01*
X6699959Y23184197D01*
X6676957Y23227402D01*
X6649461Y23270143D01*
X6618465Y23310780D01*
X6584963Y23347671D01*
X6557231Y23374198D01*
X6522702Y23403102D01*
X6487265Y23427601D01*
X6448511Y23449324D01*
X6404025Y23469901D01*
X6365381Y23484310D01*
X6306898Y23499246D01*
X6246101Y23507330D01*
X6184357Y23508485D01*
X6123028Y23502629D01*
X6063480Y23489685D01*
X6027893Y23478362D01*
X5967092Y23452911D01*
X5910540Y23421265D01*
X5858682Y23383903D01*
X5811963Y23341305D01*
X5770828Y23293949D01*
X5735721Y23242317D01*
X5707088Y23186887D01*
X5685374Y23128139D01*
X5671023Y23066553D01*
X5668881Y23050744D01*
X5666561Y23019400D01*
X5665797Y22984172D01*
X5502989Y22984172D01*
X5503106Y22998221D01*
X5504246Y23032706D01*
X5506201Y23064582D01*
X5508942Y23092010D01*
X5512436Y23113153D01*
X5520403Y23145256D01*
X5543385Y23214643D01*
X5573468Y23281940D01*
X5610052Y23346155D01*
X5652537Y23406295D01*
X5700321Y23461368D01*
X5752805Y23510381D01*
X5781037Y23532689D01*
X5841649Y23573171D01*
X5906511Y23607444D01*
X5974507Y23635021D01*
X6044518Y23655416D01*
X6115429Y23668144D01*
X6126120Y23669255D01*
X6155292Y23670949D01*
X6190309Y23671499D01*
X6229623Y23670868D01*
X6248469Y23670235D01*
X6274375Y23668979D01*
X6295831Y23667231D01*
X6315146Y23664727D01*
X6334627Y23661205D01*
X6356584Y23656402D01*
X6421048Y23639023D01*
X6483605Y23616213D01*
X6541397Y23588215D01*
X6595680Y23554330D01*
X6647708Y23513863D01*
X6698734Y23466114D01*
X6744471Y23415872D01*
X6790499Y23354891D01*
X6828926Y23291019D01*
X6859804Y23224161D01*
X6883182Y23154221D01*
X6899109Y23081103D01*
X6902724Y23052049D01*
X6905201Y23014896D01*
X6906109Y22974871D01*
X6906047Y22971119D01*
X6905444Y22934663D01*
X6903204Y22896961D01*
G37*
D12*
X15770000Y28700000D03*
D13*
X14500000Y28700000D03*
X13230000Y28700000D03*
D14*
X10100000Y29210000D03*
X10100000Y28190000D03*
D15*
X26000000Y27950000D03*
X21950000Y29450000D03*
X26000000Y29450000D03*
X21950000Y27950000D03*
D12*
X12000000Y13650000D03*
D16*
X3450000Y12750000D03*
D12*
X17000000Y8650000D03*
X9500000Y11150000D03*
X17000000Y13650000D03*
X12000000Y8650000D03*
D16*
X3450000Y9550000D03*
D12*
X19500000Y11150000D03*
X14500000Y11150000D03*
D16*
X25550000Y9550000D03*
X25550000Y12750000D03*
D17*
X14500000Y11150000D03*
D18*
X12610624Y22089376D03*
X11889376Y22810624D03*
D14*
X18900000Y29210000D03*
X18900000Y28190000D03*
D15*
X3000000Y27950000D03*
X7050000Y29450000D03*
X3000000Y29450000D03*
X7050000Y27950000D03*
D19*
X17110624Y22810624D03*
X16389376Y22089376D03*
D20*
X20000000Y28190000D03*
X20000000Y29210000D03*
D21*
X11889376Y26589376D03*
X12610624Y27310624D03*
D18*
X17110624Y26589376D03*
X16389376Y27310624D03*
D20*
X9000000Y28190000D03*
X9000000Y29210000D03*
D22*
X14959619Y26290990D03*
X15242462Y26008148D03*
X15525305Y25725305D03*
X15808148Y25442462D03*
X16090990Y25159619D03*
D23*
X16090990Y24240381D03*
X15808148Y23957538D03*
X15525305Y23674695D03*
X15242462Y23391852D03*
X14959619Y23109010D03*
D22*
X14040381Y23109010D03*
X13757538Y23391852D03*
X13474695Y23674695D03*
X13191852Y23957538D03*
X12909010Y24240381D03*
D23*
X12909010Y25159619D03*
X13191852Y25442462D03*
X13474695Y25725305D03*
X13757538Y26008148D03*
X14040381Y26290990D03*
D24*
X14500000Y24700000D03*
M02*
