%TF.GenerationSoftware,KiCad,Pcbnew,(6.0.7-1)-1*%
%TF.CreationDate,2022-09-29T17:50:22+03:00*%
%TF.ProjectId,Flux_Capacitor_Micro,466c7578-5f43-4617-9061-6369746f725f,3.0A*%
%TF.SameCoordinates,PX86594f8PY6db8610*%
%TF.FileFunction,Copper,L2,Bot*%
%TF.FilePolarity,Positive*%
%FSLAX46Y46*%
G04 Gerber Fmt 4.6, Leading zero omitted, Abs format (unit mm)*
G04 Created by KiCad (PCBNEW (6.0.7-1)-1) date 2022-09-29 17:50:22*
%MOMM*%
%LPD*%
G01*
G04 APERTURE LIST*
G04 Aperture macros list*
%AMRoundRect*
0 Rectangle with rounded corners*
0 $1 Rounding radius*
0 $2 $3 $4 $5 $6 $7 $8 $9 X,Y pos of 4 corners*
0 Add a 4 corners polygon primitive as box body*
4,1,4,$2,$3,$4,$5,$6,$7,$8,$9,$2,$3,0*
0 Add four circle primitives for the rounded corners*
1,1,$1+$1,$2,$3*
1,1,$1+$1,$4,$5*
1,1,$1+$1,$6,$7*
1,1,$1+$1,$8,$9*
0 Add four rect primitives between the rounded corners*
20,1,$1+$1,$2,$3,$4,$5,0*
20,1,$1+$1,$4,$5,$6,$7,0*
20,1,$1+$1,$6,$7,$8,$9,0*
20,1,$1+$1,$8,$9,$2,$3,0*%
G04 Aperture macros list end*
%TA.AperFunction,NonConductor*%
%ADD10C,0.300000*%
%TD*%
%TA.AperFunction,SMDPad,CuDef*%
%ADD11C,1.000000*%
%TD*%
%TA.AperFunction,SMDPad,CuDef*%
%ADD12O,1.000000X1.000000*%
%TD*%
%TA.AperFunction,SMDPad,CuDef*%
%ADD13RoundRect,0.135000X-0.185000X0.135000X-0.185000X-0.135000X0.185000X-0.135000X0.185000X0.135000X0*%
%TD*%
%TA.AperFunction,SMDPad,CuDef*%
%ADD14RoundRect,0.250000X0.375000X0.250000X-0.375000X0.250000X-0.375000X-0.250000X0.375000X-0.250000X0*%
%TD*%
%TA.AperFunction,SMDPad,CuDef*%
%ADD15RoundRect,0.300000X0.450000X0.900000X-0.450000X0.900000X-0.450000X-0.900000X0.450000X-0.900000X0*%
%TD*%
%TA.AperFunction,SMDPad,CuDef*%
%ADD16O,15.000000X9.000000*%
%TD*%
%TA.AperFunction,SMDPad,CuDef*%
%ADD17RoundRect,0.135000X0.226274X0.035355X0.035355X0.226274X-0.226274X-0.035355X-0.035355X-0.226274X0*%
%TD*%
%TA.AperFunction,SMDPad,CuDef*%
%ADD18RoundRect,0.135000X-0.035355X0.226274X-0.226274X0.035355X0.035355X-0.226274X0.226274X-0.035355X0*%
%TD*%
%TA.AperFunction,SMDPad,CuDef*%
%ADD19RoundRect,0.135000X0.185000X-0.135000X0.185000X0.135000X-0.185000X0.135000X-0.185000X-0.135000X0*%
%TD*%
%TA.AperFunction,SMDPad,CuDef*%
%ADD20RoundRect,0.135000X0.035355X-0.226274X0.226274X-0.035355X-0.035355X0.226274X-0.226274X0.035355X0*%
%TD*%
%TA.AperFunction,SMDPad,CuDef*%
%ADD21RoundRect,0.050000X0.212132X0.282843X-0.282843X-0.212132X-0.212132X-0.282843X0.282843X0.212132X0*%
%TD*%
%TA.AperFunction,SMDPad,CuDef*%
%ADD22RoundRect,0.050000X-0.212132X0.282843X-0.282843X0.212132X0.212132X-0.282843X0.282843X-0.212132X0*%
%TD*%
%TA.AperFunction,SMDPad,CuDef*%
%ADD23RoundRect,0.170000X0.000000X0.961665X-0.961665X0.000000X0.000000X-0.961665X0.961665X0.000000X0*%
%TD*%
%TA.AperFunction,ViaPad*%
%ADD24C,0.500000*%
%TD*%
%TA.AperFunction,Conductor*%
%ADD25C,0.150000*%
%TD*%
G04 APERTURE END LIST*
D10*
X11000000Y34400000D02*
G75*
G03*
X11000000Y31800000I0J-1300000D01*
G01*
X18000000Y31800000D02*
X11000000Y31800000D01*
X18000000Y31800000D02*
G75*
G03*
X18000000Y34400000I0J1300000D01*
G01*
X11000000Y34400000D02*
X18000000Y34400000D01*
D11*
X15770000Y28700000D03*
D12*
X14500000Y28700000D03*
X13230000Y28700000D03*
D13*
X10100000Y29210000D03*
X10100000Y28190000D03*
D14*
X26000000Y27950000D03*
X21950000Y29450000D03*
X26000000Y29450000D03*
X21950000Y27950000D03*
D15*
X3450000Y12750000D03*
X3450000Y9550000D03*
X25550000Y9550000D03*
X25550000Y12750000D03*
D16*
X14500000Y11150000D03*
D17*
X12610624Y22089376D03*
X11889376Y22810624D03*
D13*
X18900000Y29210000D03*
X18900000Y28190000D03*
D14*
X3000000Y27950000D03*
X7050000Y29450000D03*
X3000000Y29450000D03*
X7050000Y27950000D03*
D18*
X17110624Y22810624D03*
X16389376Y22089376D03*
D19*
X20000000Y28190000D03*
X20000000Y29210000D03*
D20*
X11889376Y26589376D03*
X12610624Y27310624D03*
D17*
X17110624Y26589376D03*
X16389376Y27310624D03*
D19*
X9000000Y28190000D03*
X9000000Y29210000D03*
D21*
X14959619Y26290990D03*
X15242462Y26008148D03*
X15525305Y25725305D03*
X15808148Y25442462D03*
X16090990Y25159619D03*
D22*
X16090990Y24240381D03*
X15808148Y23957538D03*
X15525305Y23674695D03*
X15242462Y23391852D03*
X14959619Y23109010D03*
D21*
X14040381Y23109010D03*
X13757538Y23391852D03*
X13474695Y23674695D03*
X13191852Y23957538D03*
X12909010Y24240381D03*
D22*
X12909010Y25159619D03*
X13191852Y25442462D03*
X13474695Y25725305D03*
X13757538Y26008148D03*
X14040381Y26290990D03*
D23*
X14500000Y24700000D03*
D24*
X16350000Y19400000D03*
X18410000Y21440000D03*
X20450000Y23500000D03*
X21475000Y24525000D03*
X17375000Y20425000D03*
X14500000Y16810000D03*
X22490000Y25540000D03*
X19425000Y22475000D03*
X6850000Y25900000D03*
X7875000Y24875000D03*
X19750000Y24200000D03*
X18722000Y23178000D03*
X10950000Y21800000D03*
X11975000Y20775000D03*
X13000000Y19750000D03*
X14410523Y19676563D03*
X13390000Y17900000D03*
X13990000Y18820000D03*
D25*
X18947500Y29210000D02*
X19422500Y29685000D01*
X11585000Y29210000D02*
X11825000Y29450000D01*
X18160000Y29210000D02*
X18947500Y29210000D01*
X27075000Y14700000D02*
X25550000Y13175000D01*
X15808148Y25442462D02*
X16285686Y25920000D01*
X17650000Y27128752D02*
X17110624Y26589376D01*
X15770000Y28700000D02*
X17650000Y28700000D01*
X16285686Y25920000D02*
X16441248Y25920000D01*
X17650000Y28700000D02*
X18160000Y29210000D01*
X16441248Y25920000D02*
X17110624Y26589376D01*
X27075000Y25000000D02*
X27075000Y14700000D01*
X19422500Y29685000D02*
X20885000Y29685000D01*
X22970000Y30155000D02*
X23925000Y29200000D01*
X21355000Y30155000D02*
X22970000Y30155000D01*
X23925000Y29200000D02*
X23925000Y28150000D01*
X23925000Y28150000D02*
X27075000Y25000000D01*
X11825000Y29450000D02*
X15020000Y29450000D01*
X15020000Y29450000D02*
X15770000Y28700000D01*
X17650000Y28700000D02*
X17650000Y27128752D01*
X10100000Y29210000D02*
X11585000Y29210000D01*
X25550000Y13175000D02*
X25550000Y12750000D01*
X20885000Y29685000D02*
X21355000Y30155000D01*
X14500000Y24134314D02*
X14500000Y24700000D01*
X15242462Y23391852D02*
X14500000Y24134314D01*
X18932964Y22683000D02*
X21950000Y25700036D01*
X18516964Y22683000D02*
X18932964Y22683000D01*
X20000000Y28190000D02*
X20710000Y28190000D01*
X17532999Y23060000D02*
X18139964Y23060000D01*
X16160000Y23605686D02*
X16987313Y23605686D01*
X20710000Y28190000D02*
X20950000Y27950000D01*
X18900000Y28190000D02*
X20000000Y28190000D01*
X15808148Y23957538D02*
X16160000Y23605686D01*
X20950000Y27950000D02*
X21950000Y27950000D01*
X18139964Y23060000D02*
X18516964Y22683000D01*
X21950000Y25700036D02*
X21950000Y27950000D01*
X16987313Y23605686D02*
X17532999Y23060000D01*
X13191852Y25442462D02*
X12823314Y25811000D01*
X7270036Y25620000D02*
X7055036Y25405000D01*
X8315000Y28190000D02*
X9000000Y28190000D01*
X12823314Y25811000D02*
X12653609Y25811000D01*
X9105980Y25620000D02*
X7270036Y25620000D01*
X8075000Y27950000D02*
X8315000Y28190000D01*
X6960000Y27950000D02*
X7050000Y27950000D01*
X12444609Y26020000D02*
X9505980Y26020000D01*
X7055036Y25405000D02*
X6644964Y25405000D01*
X12653609Y25811000D02*
X12444609Y26020000D01*
X9000000Y28190000D02*
X10100000Y28190000D01*
X6355000Y25694964D02*
X6355000Y27345000D01*
X6355000Y27345000D02*
X6960000Y27950000D01*
X6644964Y25405000D02*
X6355000Y25694964D01*
X7050000Y27950000D02*
X8075000Y27950000D01*
X9505980Y26020000D02*
X9105980Y25620000D01*
X19425000Y22779056D02*
X19425000Y22475000D01*
X17151248Y22770000D02*
X18033984Y22770000D01*
X18410000Y21440000D02*
X16370000Y19400000D01*
X16370000Y19400000D02*
X16350000Y19400000D01*
X21475000Y24525000D02*
X21170944Y24525000D01*
X18400984Y22403000D02*
X19048944Y22403000D01*
X20450000Y23500000D02*
X20145944Y23500000D01*
X20145944Y23500000D02*
X19425000Y22779056D01*
X17110624Y22810624D02*
X17151248Y22770000D01*
X19048944Y22078944D02*
X19048944Y22403000D01*
X21475000Y24829056D02*
X21475000Y24525000D01*
X22185944Y25540000D02*
X21475000Y24829056D01*
X19048944Y22403000D02*
X19120944Y22475000D01*
X18410000Y21440000D02*
X19048944Y22078944D01*
X21170944Y24525000D02*
X20450000Y23804056D01*
X14500000Y16810000D02*
X14500000Y17550000D01*
X20450000Y23804056D02*
X20450000Y23500000D01*
X22490000Y25540000D02*
X22185944Y25540000D01*
X14500000Y17550000D02*
X16350000Y19400000D01*
X18033984Y22770000D02*
X18400984Y22403000D01*
X19120944Y22475000D02*
X19425000Y22475000D01*
X8990000Y25900000D02*
X6850000Y25900000D01*
X9390000Y26300000D02*
X8990000Y25900000D01*
X13991168Y26828832D02*
X13648832Y26828832D01*
X15242462Y26008148D02*
X15570000Y26335686D01*
X12044350Y27155650D02*
X11713189Y27155650D01*
X12490000Y26710000D02*
X12044350Y27155650D01*
X11139203Y26300000D02*
X9390000Y26300000D01*
X13648832Y26828832D02*
X13530000Y26710000D01*
X15311168Y26828832D02*
X15008832Y26828832D01*
X11323102Y26765563D02*
X11323102Y26483899D01*
X14380000Y26440000D02*
X13991168Y26828832D01*
X15008832Y26828832D02*
X14620000Y26440000D01*
X13530000Y26710000D02*
X12490000Y26710000D01*
X15570000Y26335686D02*
X15570000Y26570000D01*
X11713189Y27155650D02*
X11323102Y26765563D01*
X15570000Y26570000D02*
X15311168Y26828832D01*
X14620000Y26440000D02*
X14380000Y26440000D01*
X11323102Y26483899D02*
X11139203Y26300000D01*
X7875000Y24875000D02*
X8340000Y25340000D01*
X9221960Y25340000D02*
X9621960Y25740000D01*
X8340000Y25340000D02*
X9221960Y25340000D01*
X12328629Y25740000D02*
X12909010Y25159619D01*
X9621960Y25740000D02*
X12328629Y25740000D01*
X16234000Y25016609D02*
X16234000Y24528706D01*
X16090990Y25159619D02*
X16234000Y25016609D01*
X16234000Y24528706D02*
X16562706Y24200000D01*
X19750000Y23896016D02*
X19750000Y24200000D01*
X17184959Y24200000D02*
X17764959Y23620000D01*
X17764959Y23620000D02*
X18463964Y23620000D01*
X18463964Y23620000D02*
X18523964Y23680000D01*
X19533984Y23680000D02*
X19750000Y23896016D01*
X16562706Y24200000D02*
X17184959Y24200000D01*
X18523964Y23680000D02*
X19533984Y23680000D01*
X18560000Y23340000D02*
X18722000Y23178000D01*
X16090990Y24240381D02*
X16411371Y23920000D01*
X17068979Y23920000D02*
X17648979Y23340000D01*
X17648979Y23340000D02*
X18560000Y23340000D01*
X16411371Y23920000D02*
X17068979Y23920000D01*
X10950000Y22620000D02*
X12140000Y23810000D01*
X12478629Y23810000D02*
X12909010Y24240381D01*
X12140000Y23810000D02*
X12478629Y23810000D01*
X10950000Y21800000D02*
X10950000Y22620000D01*
X12044350Y22244350D02*
X12044350Y21913189D01*
X12500000Y22700000D02*
X12044350Y22244350D01*
X12300000Y21100000D02*
X11975000Y20775000D01*
X13191852Y23931852D02*
X12790000Y23530000D01*
X12790000Y22840000D02*
X12650000Y22700000D01*
X13191852Y23957538D02*
X13191852Y23931852D01*
X12300000Y21657539D02*
X12300000Y21100000D01*
X12790000Y23530000D02*
X12790000Y22840000D01*
X12650000Y22700000D02*
X12500000Y22700000D01*
X12044350Y21913189D02*
X12300000Y21657539D01*
X13176898Y22283102D02*
X13176898Y21983899D01*
X13070000Y22390000D02*
X13176898Y22283102D01*
X12760000Y20768040D02*
X12760000Y19990000D01*
X13176898Y21983899D02*
X12860000Y21667001D01*
X12860000Y20868040D02*
X12760000Y20768040D01*
X13070000Y23270000D02*
X13070000Y22390000D01*
X13474695Y23674695D02*
X13070000Y23270000D01*
X12760000Y19990000D02*
X13000000Y19750000D01*
X12860000Y21667001D02*
X12860000Y20868040D01*
X13360000Y22495980D02*
X13360000Y22994314D01*
X13360000Y22994314D02*
X13757538Y23391852D01*
X14410523Y19676563D02*
X14410523Y20903497D01*
X14410523Y20903497D02*
X13456898Y21857122D01*
X13456898Y21857122D02*
X13456898Y22399082D01*
X13456898Y22399082D02*
X13360000Y22495980D01*
X12610624Y27310624D02*
X12931248Y26990000D01*
X13532852Y27108832D02*
X13532852Y27732852D01*
X12931248Y26990000D02*
X13414020Y26990000D01*
X13532852Y27732852D02*
X14500000Y28700000D01*
X13414020Y26990000D02*
X13532852Y27108832D01*
X13335686Y26430000D02*
X13757538Y26008148D01*
X11889376Y26589376D02*
X12178752Y26300000D01*
X12178752Y26300000D02*
X12370000Y26300000D01*
X12500000Y26430000D02*
X13335686Y26430000D01*
X12370000Y26300000D02*
X12500000Y26430000D01*
X12480000Y20884020D02*
X12580000Y20984020D01*
X12580000Y20984020D02*
X12580000Y22058752D01*
X12480000Y18810000D02*
X12480000Y20884020D01*
X12580000Y22058752D02*
X12610624Y22089376D01*
X13390000Y17900000D02*
X12480000Y18810000D01*
X14615559Y19181563D02*
X14905523Y19471527D01*
X14690523Y21019477D02*
X13736898Y21973102D01*
X13736898Y22515062D02*
X13660000Y22591960D01*
X14905523Y19471527D02*
X14905523Y19881599D01*
X13660000Y22728629D02*
X14040381Y23109010D01*
X13736898Y21973102D02*
X13736898Y22515062D01*
X13660000Y22591960D02*
X13660000Y22728629D01*
X14351563Y19181563D02*
X14615559Y19181563D01*
X13990000Y18820000D02*
X14351563Y19181563D01*
X14690523Y20096599D02*
X14690523Y21019477D01*
X14905523Y19881599D02*
X14690523Y20096599D01*
%TA.AperFunction,Conductor*%
G36*
X21689594Y35846979D02*
G01*
X21700000Y35844191D01*
X21709409Y35846712D01*
X21714287Y35846712D01*
X21728416Y35848259D01*
X21858953Y35842560D01*
X22034466Y35834897D01*
X22040887Y35834334D01*
X22369600Y35791059D01*
X22375949Y35789940D01*
X22505361Y35761250D01*
X22699644Y35718178D01*
X22705879Y35716507D01*
X23022073Y35616811D01*
X23028139Y35614603D01*
X23334444Y35487728D01*
X23340295Y35485000D01*
X23634389Y35331904D01*
X23639980Y35328676D01*
X23919600Y35150539D01*
X23924888Y35146836D01*
X24187916Y34945007D01*
X24192862Y34940857D01*
X24418714Y34733901D01*
X24427607Y34722821D01*
X24431060Y34719369D01*
X24435931Y34710931D01*
X24445261Y34705544D01*
X24460585Y34693786D01*
X27693786Y31460585D01*
X27705544Y31445261D01*
X27710931Y31435931D01*
X27719369Y31431060D01*
X27722821Y31427607D01*
X27733901Y31418714D01*
X27940857Y31192862D01*
X27945007Y31187916D01*
X28146836Y30924888D01*
X28150539Y30919600D01*
X28328676Y30639980D01*
X28331904Y30634389D01*
X28485000Y30340295D01*
X28487728Y30334444D01*
X28614603Y30028139D01*
X28616811Y30022073D01*
X28716507Y29705879D01*
X28718178Y29699644D01*
X28756637Y29526169D01*
X28788944Y29380444D01*
X28789939Y29375954D01*
X28791059Y29369600D01*
X28830547Y29069660D01*
X28834334Y29040892D01*
X28834897Y29034466D01*
X28840508Y28905953D01*
X28848259Y28728416D01*
X28846712Y28714287D01*
X28846712Y28709409D01*
X28844191Y28700000D01*
X28846712Y28690592D01*
X28846979Y28689596D01*
X28849500Y28670443D01*
X28849500Y4054557D01*
X28846979Y4035406D01*
X28844191Y4025000D01*
X28846712Y4015590D01*
X28846712Y4009753D01*
X28848108Y3996676D01*
X28831021Y3648862D01*
X28830309Y3641635D01*
X28775586Y3272718D01*
X28774169Y3265595D01*
X28683548Y2903818D01*
X28681440Y2896869D01*
X28555792Y2545705D01*
X28553021Y2539017D01*
X28541674Y2515024D01*
X28393560Y2201864D01*
X28390137Y2195460D01*
X28198396Y1875558D01*
X28194366Y1869527D01*
X27972192Y1569959D01*
X27967598Y1564361D01*
X27717126Y1288008D01*
X27711994Y1282876D01*
X27435639Y1032402D01*
X27430045Y1027812D01*
X27130473Y805634D01*
X27124442Y801604D01*
X26804540Y609863D01*
X26798136Y606440D01*
X26645368Y534186D01*
X26460983Y446979D01*
X26454295Y444208D01*
X26202241Y354022D01*
X26103131Y318560D01*
X26096182Y316452D01*
X25734405Y225831D01*
X25727282Y224414D01*
X25358365Y169691D01*
X25351138Y168979D01*
X25003324Y151892D01*
X24990247Y153288D01*
X24984410Y153288D01*
X24975000Y155809D01*
X24964594Y153021D01*
X24945443Y150500D01*
X4054557Y150500D01*
X4035406Y153021D01*
X4025000Y155809D01*
X4015590Y153288D01*
X4009753Y153288D01*
X3996676Y151892D01*
X3648862Y168979D01*
X3641635Y169691D01*
X3272718Y224414D01*
X3265595Y225831D01*
X2903818Y316452D01*
X2896869Y318560D01*
X2797759Y354022D01*
X2545705Y444208D01*
X2539017Y446979D01*
X2354632Y534186D01*
X2201864Y606440D01*
X2195460Y609863D01*
X1875558Y801604D01*
X1869527Y805634D01*
X1569955Y1027812D01*
X1564361Y1032402D01*
X1288006Y1282876D01*
X1282874Y1288008D01*
X1032402Y1564361D01*
X1027808Y1569959D01*
X805634Y1869527D01*
X801604Y1875558D01*
X609863Y2195460D01*
X606440Y2201864D01*
X458326Y2515024D01*
X446979Y2539017D01*
X444208Y2545705D01*
X318560Y2896869D01*
X316452Y2903818D01*
X225831Y3265595D01*
X224414Y3272718D01*
X169691Y3641635D01*
X168979Y3648862D01*
X151892Y3996676D01*
X153288Y4009753D01*
X153288Y4015590D01*
X155809Y4025000D01*
X153021Y4035406D01*
X150500Y4054557D01*
X150500Y8596166D01*
X2549500Y8596166D01*
X2552481Y8564631D01*
X2597366Y8436816D01*
X2677850Y8327850D01*
X2786816Y8247366D01*
X2914631Y8202481D01*
X2919114Y8202057D01*
X2919115Y8202057D01*
X2944438Y8199663D01*
X2944445Y8199663D01*
X2946166Y8199500D01*
X3953834Y8199500D01*
X3955555Y8199663D01*
X3955562Y8199663D01*
X3980885Y8202057D01*
X3980886Y8202057D01*
X3985369Y8202481D01*
X4113184Y8247366D01*
X4222150Y8327850D01*
X4302634Y8436816D01*
X4347519Y8564631D01*
X4350500Y8596166D01*
X4350500Y10503834D01*
X4347519Y10535369D01*
X4302634Y10663184D01*
X4222150Y10772150D01*
X4113184Y10852634D01*
X3985369Y10897519D01*
X3980886Y10897943D01*
X3980885Y10897943D01*
X3955562Y10900337D01*
X3955555Y10900337D01*
X3953834Y10900500D01*
X2946166Y10900500D01*
X2944445Y10900337D01*
X2944438Y10900337D01*
X2919115Y10897943D01*
X2919114Y10897943D01*
X2914631Y10897519D01*
X2786816Y10852634D01*
X2677850Y10772150D01*
X2597366Y10663184D01*
X2552481Y10535369D01*
X2549500Y10503834D01*
X2549500Y8596166D01*
X150500Y8596166D01*
X150500Y11016337D01*
X6851450Y11016337D01*
X6854190Y10859395D01*
X6854401Y10856034D01*
X6899648Y10439524D01*
X6900160Y10436213D01*
X6982974Y10025503D01*
X6983783Y10022259D01*
X7103481Y9620740D01*
X7104581Y9617582D01*
X7260177Y9228566D01*
X7261555Y9225527D01*
X7451771Y8852207D01*
X7453424Y8849298D01*
X7676687Y8494763D01*
X7678591Y8492023D01*
X7933063Y8159185D01*
X7935233Y8156600D01*
X8218813Y7848209D01*
X8221201Y7845839D01*
X8531559Y7564422D01*
X8534159Y7562271D01*
X8868750Y7310139D01*
X8871528Y7308237D01*
X9227598Y7087464D01*
X9230540Y7085820D01*
X9605142Y6898233D01*
X9608224Y6896861D01*
X9998305Y6743990D01*
X10001470Y6742912D01*
X10403798Y6626026D01*
X10407086Y6625230D01*
X10818330Y6545292D01*
X10821667Y6544799D01*
X11238791Y6502429D01*
X11241521Y6502253D01*
X11321628Y6500015D01*
X11322714Y6500000D01*
X14361952Y6500000D01*
X14371948Y6503638D01*
X14375000Y6508925D01*
X14375000Y6513048D01*
X14625000Y6513048D01*
X14628638Y6503052D01*
X14633925Y6500000D01*
X17608546Y6500000D01*
X17610213Y6500038D01*
X17920213Y6514115D01*
X17923563Y6514420D01*
X18338639Y6571278D01*
X18341956Y6571887D01*
X18750164Y6666129D01*
X18753414Y6667037D01*
X19151420Y6797894D01*
X19154548Y6799082D01*
X19539056Y6965474D01*
X19542083Y6966950D01*
X19909937Y7167511D01*
X19912782Y7169234D01*
X20260952Y7402313D01*
X20263647Y7404300D01*
X20589257Y7667974D01*
X20591759Y7670196D01*
X20892118Y7962282D01*
X20894419Y7964733D01*
X21167065Y8282834D01*
X21169142Y8285493D01*
X21389927Y8596166D01*
X24649500Y8596166D01*
X24652481Y8564631D01*
X24697366Y8436816D01*
X24777850Y8327850D01*
X24886816Y8247366D01*
X25014631Y8202481D01*
X25019114Y8202057D01*
X25019115Y8202057D01*
X25044438Y8199663D01*
X25044445Y8199663D01*
X25046166Y8199500D01*
X26053834Y8199500D01*
X26055555Y8199663D01*
X26055562Y8199663D01*
X26080885Y8202057D01*
X26080886Y8202057D01*
X26085369Y8202481D01*
X26213184Y8247366D01*
X26322150Y8327850D01*
X26402634Y8436816D01*
X26447519Y8564631D01*
X26450500Y8596166D01*
X26450500Y10503834D01*
X26447519Y10535369D01*
X26402634Y10663184D01*
X26322150Y10772150D01*
X26213184Y10852634D01*
X26085369Y10897519D01*
X26080886Y10897943D01*
X26080885Y10897943D01*
X26055562Y10900337D01*
X26055555Y10900337D01*
X26053834Y10900500D01*
X25046166Y10900500D01*
X25044445Y10900337D01*
X25044438Y10900337D01*
X25019115Y10897943D01*
X25019114Y10897943D01*
X25014631Y10897519D01*
X24886816Y10852634D01*
X24777850Y10772150D01*
X24697366Y10663184D01*
X24652481Y10535369D01*
X24649500Y10503834D01*
X24649500Y8596166D01*
X21389927Y8596166D01*
X21411838Y8626998D01*
X21413655Y8629819D01*
X21624398Y8991912D01*
X21625958Y8994895D01*
X21803021Y9374607D01*
X21804301Y9377714D01*
X21946219Y9771905D01*
X21947215Y9775123D01*
X22052817Y10180535D01*
X22053522Y10183852D01*
X22121948Y10597176D01*
X22122345Y10600507D01*
X22152677Y11013559D01*
X22149481Y11021884D01*
X22143859Y11025000D01*
X14638048Y11025000D01*
X14628052Y11021362D01*
X14625000Y11016075D01*
X14625000Y6513048D01*
X14375000Y6513048D01*
X14375000Y11011952D01*
X14371362Y11021948D01*
X14366075Y11025000D01*
X6864347Y11025000D01*
X6854351Y11021362D01*
X6851450Y11016337D01*
X150500Y11016337D01*
X150500Y11286441D01*
X6847323Y11286441D01*
X6850519Y11278116D01*
X6856141Y11275000D01*
X14361952Y11275000D01*
X14371948Y11278638D01*
X14375000Y11283925D01*
X14375000Y11288048D01*
X14625000Y11288048D01*
X14628638Y11278052D01*
X14633925Y11275000D01*
X22135653Y11275000D01*
X22145649Y11278638D01*
X22148550Y11283663D01*
X22145810Y11440605D01*
X22145599Y11443966D01*
X22100352Y11860476D01*
X22099840Y11863787D01*
X22017026Y12274497D01*
X22016217Y12277741D01*
X21896519Y12679260D01*
X21895419Y12682418D01*
X21739823Y13071434D01*
X21738445Y13074473D01*
X21548229Y13447793D01*
X21546576Y13450702D01*
X21323313Y13805237D01*
X21321409Y13807977D01*
X21066937Y14140815D01*
X21064767Y14143400D01*
X20781187Y14451791D01*
X20778799Y14454161D01*
X20468441Y14735578D01*
X20465841Y14737729D01*
X20131250Y14989861D01*
X20128472Y14991763D01*
X19772402Y15212536D01*
X19769460Y15214180D01*
X19394858Y15401767D01*
X19391776Y15403139D01*
X19001695Y15556010D01*
X18998530Y15557088D01*
X18596202Y15673974D01*
X18592914Y15674770D01*
X18181670Y15754708D01*
X18178333Y15755201D01*
X17761209Y15797571D01*
X17758479Y15797747D01*
X17678372Y15799985D01*
X17677286Y15800000D01*
X14638048Y15800000D01*
X14628052Y15796362D01*
X14625000Y15791075D01*
X14625000Y11288048D01*
X14375000Y11288048D01*
X14375000Y15786952D01*
X14371362Y15796948D01*
X14366075Y15800000D01*
X11391454Y15800000D01*
X11389787Y15799962D01*
X11079787Y15785885D01*
X11076437Y15785580D01*
X10661361Y15728722D01*
X10658044Y15728113D01*
X10249836Y15633871D01*
X10246586Y15632963D01*
X9848580Y15502106D01*
X9845452Y15500918D01*
X9460944Y15334526D01*
X9457917Y15333050D01*
X9090063Y15132489D01*
X9087218Y15130766D01*
X8739048Y14897687D01*
X8736353Y14895700D01*
X8410743Y14632026D01*
X8408241Y14629804D01*
X8107882Y14337718D01*
X8105581Y14335267D01*
X7832935Y14017166D01*
X7830858Y14014507D01*
X7588162Y13673002D01*
X7586345Y13670181D01*
X7375602Y13308088D01*
X7374042Y13305105D01*
X7196979Y12925393D01*
X7195699Y12922286D01*
X7053781Y12528095D01*
X7052785Y12524877D01*
X6947183Y12119465D01*
X6946478Y12116148D01*
X6878052Y11702824D01*
X6877655Y11699493D01*
X6847323Y11286441D01*
X150500Y11286441D01*
X150500Y11796166D01*
X2549500Y11796166D01*
X2552481Y11764631D01*
X2597366Y11636816D01*
X2677850Y11527850D01*
X2786816Y11447366D01*
X2914631Y11402481D01*
X2919114Y11402057D01*
X2919115Y11402057D01*
X2944438Y11399663D01*
X2944445Y11399663D01*
X2946166Y11399500D01*
X3953834Y11399500D01*
X3955555Y11399663D01*
X3955562Y11399663D01*
X3980885Y11402057D01*
X3980886Y11402057D01*
X3985369Y11402481D01*
X4113184Y11447366D01*
X4222150Y11527850D01*
X4302634Y11636816D01*
X4347519Y11764631D01*
X4350500Y11796166D01*
X4350500Y13703834D01*
X4350336Y13705576D01*
X4347943Y13730885D01*
X4347943Y13730886D01*
X4347519Y13735369D01*
X4302634Y13863184D01*
X4222150Y13972150D01*
X4113184Y14052634D01*
X3985369Y14097519D01*
X3980886Y14097943D01*
X3980885Y14097943D01*
X3955562Y14100337D01*
X3955555Y14100337D01*
X3953834Y14100500D01*
X2946166Y14100500D01*
X2944445Y14100337D01*
X2944438Y14100337D01*
X2919115Y14097943D01*
X2919114Y14097943D01*
X2914631Y14097519D01*
X2786816Y14052634D01*
X2677850Y13972150D01*
X2597366Y13863184D01*
X2552481Y13735369D01*
X2552057Y13730886D01*
X2552057Y13730885D01*
X2549665Y13705576D01*
X2549500Y13703834D01*
X2549500Y11796166D01*
X150500Y11796166D01*
X150500Y28231519D01*
X2224500Y28231519D01*
X2224501Y27668482D01*
X2224956Y27665610D01*
X2224956Y27665608D01*
X2225516Y27662075D01*
X2239354Y27574696D01*
X2254307Y27545349D01*
X2294304Y27466850D01*
X2294306Y27466848D01*
X2296950Y27461658D01*
X2386658Y27371950D01*
X2391848Y27369306D01*
X2391850Y27369304D01*
X2494502Y27317000D01*
X2494505Y27316999D01*
X2499696Y27314354D01*
X2505448Y27313443D01*
X2505451Y27313442D01*
X2580468Y27301561D01*
X2593481Y27299500D01*
X3000000Y27299500D01*
X3406518Y27299501D01*
X3409390Y27299956D01*
X3409392Y27299956D01*
X3444833Y27305569D01*
X3500304Y27314354D01*
X3536771Y27332935D01*
X6124778Y27332935D01*
X6126791Y27325423D01*
X6126791Y27325419D01*
X6126978Y27324722D01*
X6129500Y27305569D01*
X6129500Y25702825D01*
X6129399Y25698952D01*
X6127300Y25658900D01*
X6130087Y25651640D01*
X6130087Y25651639D01*
X6136031Y25636155D01*
X6139329Y25625022D01*
X6144393Y25601196D01*
X6149389Y25594320D01*
X6158606Y25577343D01*
X6161654Y25569404D01*
X6178884Y25552174D01*
X6186424Y25543345D01*
X6200740Y25523641D01*
X6207475Y25519753D01*
X6207476Y25519752D01*
X6208100Y25519392D01*
X6223428Y25507631D01*
X6479957Y25251102D01*
X6482624Y25248292D01*
X6509457Y25218491D01*
X6516561Y25215328D01*
X6516564Y25215326D01*
X6531711Y25208583D01*
X6541918Y25203040D01*
X6562346Y25189774D01*
X6570028Y25188557D01*
X6570029Y25188557D01*
X6570744Y25188444D01*
X6589265Y25182958D01*
X6597032Y25179500D01*
X6621391Y25179500D01*
X6632967Y25178589D01*
X6657029Y25174778D01*
X6664541Y25176791D01*
X6664545Y25176791D01*
X6665242Y25176978D01*
X6684395Y25179500D01*
X7047175Y25179500D01*
X7051048Y25179399D01*
X7083333Y25177707D01*
X7091100Y25177300D01*
X7098360Y25180087D01*
X7098361Y25180087D01*
X7113845Y25186031D01*
X7124979Y25189329D01*
X7148804Y25194393D01*
X7155680Y25199389D01*
X7172657Y25208606D01*
X7180596Y25211654D01*
X7197826Y25228884D01*
X7206656Y25236425D01*
X7213461Y25241369D01*
X7226359Y25250740D01*
X7230608Y25258100D01*
X7242369Y25273428D01*
X7341767Y25372826D01*
X7387643Y25394218D01*
X7394093Y25394500D01*
X7660112Y25394500D01*
X7707678Y25377187D01*
X7732988Y25333350D01*
X7724198Y25283500D01*
X7693707Y25254566D01*
X7629947Y25222079D01*
X7629944Y25222077D01*
X7624755Y25219433D01*
X7530567Y25125245D01*
X7527923Y25120056D01*
X7527921Y25120053D01*
X7485127Y25036064D01*
X7470095Y25006562D01*
X7469184Y25000810D01*
X7469183Y25000807D01*
X7454262Y24906594D01*
X7449258Y24875000D01*
X7450169Y24869248D01*
X7469183Y24749193D01*
X7469184Y24749190D01*
X7470095Y24743438D01*
X7472740Y24738247D01*
X7472741Y24738244D01*
X7527921Y24629947D01*
X7527923Y24629944D01*
X7530567Y24624755D01*
X7624755Y24530567D01*
X7629944Y24527923D01*
X7629947Y24527921D01*
X7738244Y24472741D01*
X7738247Y24472740D01*
X7743438Y24470095D01*
X7749190Y24469184D01*
X7749193Y24469183D01*
X7869248Y24450169D01*
X7875000Y24449258D01*
X7880752Y24450169D01*
X8000807Y24469183D01*
X8000810Y24469184D01*
X8006562Y24470095D01*
X8011753Y24472740D01*
X8011756Y24472741D01*
X8120053Y24527921D01*
X8120056Y24527923D01*
X8125245Y24530567D01*
X8219433Y24624755D01*
X8222077Y24629944D01*
X8222079Y24629947D01*
X8277259Y24738244D01*
X8277260Y24738247D01*
X8279905Y24743438D01*
X8280816Y24749190D01*
X8280817Y24749193D01*
X8299831Y24869248D01*
X8300742Y24875000D01*
X8292033Y24929988D01*
X8301692Y24979677D01*
X8312796Y24993890D01*
X8411731Y25092826D01*
X8457607Y25114218D01*
X8464057Y25114500D01*
X9214099Y25114500D01*
X9217972Y25114399D01*
X9250257Y25112707D01*
X9258024Y25112300D01*
X9265284Y25115087D01*
X9265285Y25115087D01*
X9280769Y25121031D01*
X9291903Y25124329D01*
X9315728Y25129393D01*
X9322604Y25134389D01*
X9339581Y25143606D01*
X9347520Y25146654D01*
X9364750Y25163884D01*
X9373580Y25171425D01*
X9378791Y25175211D01*
X9393283Y25185740D01*
X9397170Y25192473D01*
X9397173Y25192476D01*
X9397534Y25193102D01*
X9409293Y25208427D01*
X9693691Y25492826D01*
X9739567Y25514218D01*
X9746017Y25514500D01*
X12204571Y25514500D01*
X12252137Y25497187D01*
X12256897Y25492826D01*
X12416734Y25332989D01*
X12430898Y25306493D01*
X12433090Y25307401D01*
X12435878Y25300670D01*
X12437300Y25293520D01*
X12441349Y25287460D01*
X12465884Y25250740D01*
X12470428Y25243940D01*
X12962042Y24752326D01*
X12983434Y24706450D01*
X12970333Y24657555D01*
X12962042Y24647674D01*
X12470428Y24156060D01*
X12468409Y24153038D01*
X12468408Y24153037D01*
X12441842Y24113277D01*
X12437300Y24106480D01*
X12435879Y24099333D01*
X12433088Y24092596D01*
X12430893Y24093505D01*
X12416733Y24067009D01*
X12406898Y24057174D01*
X12361022Y24035782D01*
X12354572Y24035500D01*
X12147861Y24035500D01*
X12143988Y24035601D01*
X12111703Y24037293D01*
X12103936Y24037700D01*
X12096676Y24034913D01*
X12096675Y24034913D01*
X12081191Y24028969D01*
X12070058Y24025671D01*
X12046232Y24020607D01*
X12039356Y24015611D01*
X12022379Y24006394D01*
X12014440Y24003346D01*
X11997210Y23986116D01*
X11988381Y23978576D01*
X11968677Y23964260D01*
X11964790Y23957527D01*
X11964787Y23957524D01*
X11964426Y23956898D01*
X11952667Y23941573D01*
X10796102Y22785007D01*
X10793292Y22782340D01*
X10763491Y22755507D01*
X10760328Y22748403D01*
X10760326Y22748400D01*
X10753583Y22733253D01*
X10748040Y22723046D01*
X10734774Y22702618D01*
X10733557Y22694936D01*
X10733557Y22694935D01*
X10733444Y22694220D01*
X10727958Y22675699D01*
X10724500Y22667932D01*
X10724500Y22643573D01*
X10723589Y22631997D01*
X10719778Y22607935D01*
X10721791Y22600423D01*
X10721791Y22600419D01*
X10721978Y22599722D01*
X10724500Y22580569D01*
X10724500Y22198990D01*
X10707187Y22151424D01*
X10699723Y22144465D01*
X10699755Y22144433D01*
X10605567Y22050245D01*
X10602923Y22045056D01*
X10602921Y22045053D01*
X10547741Y21936756D01*
X10545095Y21931562D01*
X10544184Y21925810D01*
X10544183Y21925807D01*
X10531370Y21844905D01*
X10524258Y21800000D01*
X10525169Y21794248D01*
X10544183Y21674193D01*
X10544184Y21674190D01*
X10545095Y21668438D01*
X10547740Y21663247D01*
X10547741Y21663244D01*
X10602921Y21554947D01*
X10602923Y21554944D01*
X10605567Y21549755D01*
X10699755Y21455567D01*
X10704944Y21452923D01*
X10704947Y21452921D01*
X10813244Y21397741D01*
X10813247Y21397740D01*
X10818438Y21395095D01*
X10824190Y21394184D01*
X10824193Y21394183D01*
X10944248Y21375169D01*
X10950000Y21374258D01*
X10955752Y21375169D01*
X11075807Y21394183D01*
X11075810Y21394184D01*
X11081562Y21395095D01*
X11086753Y21397740D01*
X11086756Y21397741D01*
X11195053Y21452921D01*
X11195056Y21452923D01*
X11200245Y21455567D01*
X11294433Y21549755D01*
X11297077Y21554944D01*
X11297079Y21554947D01*
X11352259Y21663244D01*
X11352260Y21663247D01*
X11354905Y21668438D01*
X11355816Y21674190D01*
X11355817Y21674193D01*
X11374831Y21794248D01*
X11375742Y21800000D01*
X11368630Y21844905D01*
X11355817Y21925807D01*
X11355816Y21925810D01*
X11354905Y21931562D01*
X11352259Y21936756D01*
X11297079Y22045053D01*
X11297077Y22045056D01*
X11294433Y22050245D01*
X11200245Y22144433D01*
X11201546Y22145734D01*
X11177699Y22181085D01*
X11175500Y22198990D01*
X11175500Y22495942D01*
X11192813Y22543508D01*
X11197174Y22548268D01*
X11295940Y22647034D01*
X11341816Y22668426D01*
X11390711Y22655325D01*
X11412513Y22631428D01*
X11419873Y22618550D01*
X11430298Y22605374D01*
X11433152Y22602168D01*
X11459422Y22575898D01*
X11469061Y22571403D01*
X11474960Y22572984D01*
X11889376Y22987401D01*
X12124102Y23222126D01*
X12128597Y23231765D01*
X12127016Y23237664D01*
X12097857Y23266823D01*
X12094594Y23269720D01*
X12081016Y23280411D01*
X12068704Y23287415D01*
X12035919Y23325982D01*
X12035595Y23376600D01*
X12052967Y23404062D01*
X12211731Y23562826D01*
X12257607Y23584218D01*
X12264057Y23584500D01*
X12470768Y23584500D01*
X12474641Y23584399D01*
X12491605Y23583510D01*
X12538200Y23563731D01*
X12560194Y23520564D01*
X12559778Y23517935D01*
X12561791Y23510423D01*
X12561791Y23510419D01*
X12561978Y23509722D01*
X12564500Y23490569D01*
X12564500Y23000409D01*
X12547187Y22952843D01*
X12503350Y22927533D01*
X12486628Y22926510D01*
X12471703Y22927292D01*
X12463936Y22927699D01*
X12456674Y22924911D01*
X12453572Y22924420D01*
X12403883Y22934078D01*
X12372980Y22970810D01*
X12364340Y22993142D01*
X12358881Y23002695D01*
X12348454Y23015874D01*
X12345600Y23019080D01*
X12319331Y23045349D01*
X12309692Y23049844D01*
X12303793Y23048263D01*
X11889376Y22633847D01*
X11654651Y22399121D01*
X11650156Y22389482D01*
X11651737Y22383583D01*
X11680895Y22354425D01*
X11684158Y22351528D01*
X11697734Y22340838D01*
X11707278Y22335410D01*
X11767658Y22312171D01*
X11805831Y22278928D01*
X11814977Y22246982D01*
X11815345Y22239967D01*
X11814128Y22232285D01*
X11816141Y22224773D01*
X11816141Y22224769D01*
X11816328Y22224072D01*
X11818850Y22204919D01*
X11818850Y21921050D01*
X11818749Y21917177D01*
X11816650Y21877125D01*
X11819437Y21869865D01*
X11819437Y21869864D01*
X11825381Y21854380D01*
X11828679Y21843247D01*
X11833743Y21819421D01*
X11838739Y21812545D01*
X11847956Y21795568D01*
X11851004Y21787629D01*
X11868234Y21770399D01*
X11875774Y21761570D01*
X11890090Y21741866D01*
X11896823Y21737979D01*
X11896826Y21737976D01*
X11897452Y21737615D01*
X11912777Y21725856D01*
X12052826Y21585807D01*
X12074218Y21539931D01*
X12074500Y21533481D01*
X12074500Y21271626D01*
X12057187Y21224060D01*
X12013350Y21198750D01*
X11988926Y21198537D01*
X11980755Y21199831D01*
X11980752Y21199831D01*
X11975000Y21200742D01*
X11969248Y21199831D01*
X11849193Y21180817D01*
X11849190Y21180816D01*
X11843438Y21179905D01*
X11838247Y21177260D01*
X11838244Y21177259D01*
X11729947Y21122079D01*
X11729944Y21122077D01*
X11724755Y21119433D01*
X11630567Y21025245D01*
X11627923Y21020056D01*
X11627921Y21020053D01*
X11572741Y20911756D01*
X11570095Y20906562D01*
X11569184Y20900810D01*
X11569183Y20900807D01*
X11558098Y20830817D01*
X11549258Y20775000D01*
X11550169Y20769248D01*
X11569183Y20649193D01*
X11569184Y20649190D01*
X11570095Y20643438D01*
X11572740Y20638247D01*
X11572741Y20638244D01*
X11627921Y20529947D01*
X11627923Y20529944D01*
X11630567Y20524755D01*
X11724755Y20430567D01*
X11729944Y20427923D01*
X11729947Y20427921D01*
X11838244Y20372741D01*
X11838247Y20372740D01*
X11843438Y20370095D01*
X11849190Y20369184D01*
X11849193Y20369183D01*
X11969248Y20350169D01*
X11975000Y20349258D01*
X11980752Y20350169D01*
X12100807Y20369183D01*
X12100810Y20369184D01*
X12106562Y20370095D01*
X12146906Y20390651D01*
X12197146Y20396820D01*
X12239599Y20369252D01*
X12254500Y20324717D01*
X12254500Y18817861D01*
X12254399Y18813988D01*
X12252300Y18773936D01*
X12255087Y18766676D01*
X12255087Y18766675D01*
X12261031Y18751191D01*
X12264329Y18740058D01*
X12269393Y18716232D01*
X12274389Y18709356D01*
X12283606Y18692379D01*
X12286654Y18684440D01*
X12303884Y18667210D01*
X12311424Y18658381D01*
X12325740Y18638677D01*
X12332473Y18634790D01*
X12332476Y18634787D01*
X12333102Y18634426D01*
X12348427Y18622667D01*
X12952204Y18018890D01*
X12973596Y17973014D01*
X12972967Y17954989D01*
X12964258Y17900000D01*
X12965169Y17894248D01*
X12984183Y17774193D01*
X12984184Y17774190D01*
X12985095Y17768438D01*
X12987740Y17763247D01*
X12987741Y17763244D01*
X13042921Y17654947D01*
X13042923Y17654944D01*
X13045567Y17649755D01*
X13139755Y17555567D01*
X13144944Y17552923D01*
X13144947Y17552921D01*
X13253244Y17497741D01*
X13253247Y17497740D01*
X13258438Y17495095D01*
X13264190Y17494184D01*
X13264193Y17494183D01*
X13384248Y17475169D01*
X13390000Y17474258D01*
X13395752Y17475169D01*
X13515807Y17494183D01*
X13515810Y17494184D01*
X13521562Y17495095D01*
X13526753Y17497740D01*
X13526756Y17497741D01*
X13635053Y17552921D01*
X13635056Y17552923D01*
X13640245Y17555567D01*
X13734433Y17649755D01*
X13737077Y17654944D01*
X13737079Y17654947D01*
X13792259Y17763244D01*
X13792260Y17763247D01*
X13794905Y17768438D01*
X13795816Y17774190D01*
X13795817Y17774193D01*
X13814831Y17894248D01*
X13815742Y17900000D01*
X13796912Y18018890D01*
X13795817Y18025807D01*
X13795816Y18025810D01*
X13794905Y18031562D01*
X13792259Y18036756D01*
X13737079Y18145053D01*
X13737077Y18145056D01*
X13734433Y18150245D01*
X13640245Y18244433D01*
X13635056Y18247077D01*
X13635053Y18247079D01*
X13526756Y18302259D01*
X13526753Y18302260D01*
X13521562Y18304905D01*
X13515810Y18305816D01*
X13515807Y18305817D01*
X13395752Y18324831D01*
X13390000Y18325742D01*
X13335011Y18317033D01*
X13285322Y18326692D01*
X13271109Y18337796D01*
X12727174Y18881731D01*
X12705782Y18927607D01*
X12705500Y18934057D01*
X12705500Y19307360D01*
X12722813Y19354926D01*
X12766650Y19380236D01*
X12813094Y19373294D01*
X12868438Y19345095D01*
X12874190Y19344184D01*
X12874193Y19344183D01*
X12994248Y19325169D01*
X13000000Y19324258D01*
X13005752Y19325169D01*
X13125807Y19344183D01*
X13125810Y19344184D01*
X13131562Y19345095D01*
X13136753Y19347740D01*
X13136756Y19347741D01*
X13245053Y19402921D01*
X13245056Y19402923D01*
X13250245Y19405567D01*
X13344433Y19499755D01*
X13347077Y19504944D01*
X13347079Y19504947D01*
X13402259Y19613244D01*
X13402260Y19613247D01*
X13404905Y19618438D01*
X13405816Y19624190D01*
X13405817Y19624193D01*
X13424831Y19744248D01*
X13425742Y19750000D01*
X13416493Y19808400D01*
X13405817Y19875807D01*
X13405816Y19875810D01*
X13404905Y19881562D01*
X13386511Y19917663D01*
X13347079Y19995053D01*
X13347077Y19995056D01*
X13344433Y20000245D01*
X13250245Y20094433D01*
X13245056Y20097077D01*
X13245053Y20097079D01*
X13136756Y20152259D01*
X13136753Y20152260D01*
X13131562Y20154905D01*
X13125810Y20155816D01*
X13125807Y20155817D01*
X13047924Y20168152D01*
X13003651Y20192693D01*
X12985500Y20241241D01*
X12985500Y20643983D01*
X13002813Y20691549D01*
X13007174Y20696309D01*
X13013899Y20703034D01*
X13016709Y20705701D01*
X13040730Y20727330D01*
X13046509Y20732533D01*
X13049673Y20739639D01*
X13056419Y20754789D01*
X13061957Y20764989D01*
X13070989Y20778898D01*
X13070990Y20778900D01*
X13075225Y20785422D01*
X13076555Y20793818D01*
X13082042Y20812340D01*
X13085500Y20820108D01*
X13085500Y20844468D01*
X13086411Y20856045D01*
X13089005Y20872422D01*
X13090222Y20880105D01*
X13088209Y20887617D01*
X13088209Y20887621D01*
X13088022Y20888318D01*
X13085500Y20907471D01*
X13085500Y21542943D01*
X13102813Y21590509D01*
X13107174Y21595269D01*
X13198911Y21687006D01*
X13244787Y21708398D01*
X13293682Y21695297D01*
X13298552Y21691423D01*
X13302638Y21685799D01*
X13309371Y21681912D01*
X13309374Y21681909D01*
X13310000Y21681548D01*
X13325325Y21669789D01*
X14163349Y20831766D01*
X14184741Y20785890D01*
X14185023Y20779440D01*
X14185023Y20075553D01*
X14167710Y20027987D01*
X14160246Y20021028D01*
X14160278Y20020996D01*
X14066090Y19926808D01*
X14063446Y19921619D01*
X14063444Y19921616D01*
X14008264Y19813319D01*
X14005618Y19808125D01*
X14004707Y19802373D01*
X14004706Y19802370D01*
X13997323Y19755752D01*
X13984781Y19676563D01*
X13985692Y19670811D01*
X14004706Y19550756D01*
X14004707Y19550753D01*
X14005618Y19545001D01*
X14008263Y19539810D01*
X14008264Y19539807D01*
X14063444Y19431510D01*
X14063446Y19431507D01*
X14066090Y19426318D01*
X14119426Y19372982D01*
X14140818Y19327106D01*
X14127717Y19278211D01*
X14119423Y19268328D01*
X14108888Y19257794D01*
X14063011Y19236403D01*
X14044989Y19237033D01*
X13995752Y19244831D01*
X13990000Y19245742D01*
X13984248Y19244831D01*
X13864193Y19225817D01*
X13864190Y19225816D01*
X13858438Y19224905D01*
X13853247Y19222260D01*
X13853244Y19222259D01*
X13744947Y19167079D01*
X13744944Y19167077D01*
X13739755Y19164433D01*
X13645567Y19070245D01*
X13642923Y19065056D01*
X13642921Y19065053D01*
X13592396Y18965892D01*
X13585095Y18951562D01*
X13584184Y18945810D01*
X13584183Y18945807D01*
X13574035Y18881731D01*
X13564258Y18820000D01*
X13565169Y18814248D01*
X13584183Y18694193D01*
X13584184Y18694190D01*
X13585095Y18688438D01*
X13587740Y18683247D01*
X13587741Y18683244D01*
X13642921Y18574947D01*
X13642923Y18574944D01*
X13645567Y18569755D01*
X13739755Y18475567D01*
X13744944Y18472923D01*
X13744947Y18472921D01*
X13853244Y18417741D01*
X13853247Y18417740D01*
X13858438Y18415095D01*
X13864190Y18414184D01*
X13864193Y18414183D01*
X13984248Y18395169D01*
X13990000Y18394258D01*
X13995752Y18395169D01*
X14115807Y18414183D01*
X14115810Y18414184D01*
X14121562Y18415095D01*
X14126753Y18417740D01*
X14126756Y18417741D01*
X14235053Y18472921D01*
X14235056Y18472923D01*
X14240245Y18475567D01*
X14334433Y18569755D01*
X14337077Y18574944D01*
X14337079Y18574947D01*
X14392259Y18683244D01*
X14392260Y18683247D01*
X14394905Y18688438D01*
X14395816Y18694190D01*
X14395817Y18694193D01*
X14414831Y18814248D01*
X14415742Y18820000D01*
X14407746Y18870487D01*
X14417405Y18920176D01*
X14456743Y18952032D01*
X14480835Y18956063D01*
X14607698Y18956063D01*
X14611571Y18955962D01*
X14643856Y18954270D01*
X14651623Y18953863D01*
X14658883Y18956650D01*
X14658884Y18956650D01*
X14674368Y18962594D01*
X14685502Y18965892D01*
X14709327Y18970956D01*
X14716203Y18975952D01*
X14733180Y18985169D01*
X14741119Y18988217D01*
X14758349Y19005447D01*
X14767179Y19012988D01*
X14780589Y19022731D01*
X14786882Y19027303D01*
X14791131Y19034663D01*
X14802892Y19049991D01*
X15059421Y19306520D01*
X15062231Y19309187D01*
X15092032Y19336020D01*
X15095195Y19343124D01*
X15095197Y19343127D01*
X15101940Y19358274D01*
X15107483Y19368482D01*
X15120749Y19388909D01*
X15122079Y19397307D01*
X15127565Y19415828D01*
X15131023Y19423595D01*
X15131023Y19447954D01*
X15131934Y19459530D01*
X15134528Y19475909D01*
X15135745Y19483592D01*
X15133732Y19491104D01*
X15133732Y19491108D01*
X15133545Y19491805D01*
X15131023Y19510958D01*
X15131023Y19873738D01*
X15131124Y19877611D01*
X15132816Y19909897D01*
X15133223Y19917663D01*
X15130435Y19924926D01*
X15124492Y19940409D01*
X15121194Y19951542D01*
X15117747Y19967760D01*
X15117747Y19967761D01*
X15116130Y19975367D01*
X15111132Y19982247D01*
X15101917Y19999219D01*
X15101658Y19999894D01*
X15101657Y19999896D01*
X15098869Y20007158D01*
X15081642Y20024385D01*
X15074101Y20033215D01*
X15064354Y20046630D01*
X15059783Y20052922D01*
X15052420Y20057173D01*
X15037094Y20068933D01*
X14937697Y20168330D01*
X14916305Y20214206D01*
X14916023Y20220656D01*
X14916023Y21011635D01*
X14916124Y21015508D01*
X14917815Y21047775D01*
X14918222Y21055541D01*
X14915434Y21062804D01*
X14909493Y21078282D01*
X14906195Y21089416D01*
X14902747Y21105635D01*
X14901130Y21113245D01*
X14896130Y21120128D01*
X14886915Y21137100D01*
X14886656Y21137775D01*
X14886656Y21137776D01*
X14883868Y21145037D01*
X14866642Y21162263D01*
X14859101Y21171093D01*
X14854621Y21177259D01*
X14844783Y21190800D01*
X14837420Y21195051D01*
X14822094Y21206811D01*
X14325315Y21703590D01*
X16185510Y21703590D01*
X16187091Y21697691D01*
X16251600Y21633182D01*
X16254876Y21630273D01*
X16268444Y21619591D01*
X16277989Y21614161D01*
X16365519Y21580474D01*
X16378726Y21578026D01*
X16471234Y21578106D01*
X16484439Y21580577D01*
X16571896Y21614413D01*
X16581447Y21619871D01*
X16594626Y21630298D01*
X16597832Y21633152D01*
X16624102Y21659421D01*
X16628597Y21669061D01*
X16627017Y21674958D01*
X16398602Y21903373D01*
X16388963Y21907868D01*
X16383064Y21906287D01*
X16190005Y21713229D01*
X16185510Y21703590D01*
X14325315Y21703590D01*
X13984072Y22044833D01*
X13962680Y22090709D01*
X13962398Y22097159D01*
X13962398Y22170736D01*
X15878026Y22170736D01*
X15878106Y22078229D01*
X15880577Y22065024D01*
X15914413Y21977566D01*
X15919871Y21968015D01*
X15930298Y21954836D01*
X15933152Y21951630D01*
X15994777Y21890005D01*
X16004416Y21885510D01*
X16010315Y21887091D01*
X16203373Y22080150D01*
X16207483Y22088963D01*
X16570884Y22088963D01*
X16572465Y22083064D01*
X16800879Y21854650D01*
X16810518Y21850155D01*
X16816417Y21851736D01*
X16845566Y21880886D01*
X16848480Y21884167D01*
X16859162Y21897734D01*
X16864592Y21907280D01*
X16898278Y21994808D01*
X16900726Y22008016D01*
X16900646Y22100523D01*
X16898175Y22113728D01*
X16864339Y22201186D01*
X16858881Y22210737D01*
X16848454Y22223916D01*
X16845600Y22227122D01*
X16783975Y22288747D01*
X16774336Y22293242D01*
X16768437Y22291661D01*
X16575379Y22098602D01*
X16570884Y22088963D01*
X16207483Y22088963D01*
X16207868Y22089789D01*
X16206287Y22095688D01*
X15977874Y22324101D01*
X15968235Y22328596D01*
X15962336Y22327015D01*
X15933186Y22297866D01*
X15930272Y22294585D01*
X15919590Y22281018D01*
X15914160Y22271472D01*
X15880474Y22183944D01*
X15878026Y22170736D01*
X13962398Y22170736D01*
X13962398Y22507201D01*
X13962463Y22509690D01*
X16150157Y22509690D01*
X16151737Y22503792D01*
X16380150Y22275379D01*
X16389789Y22270884D01*
X16395688Y22272465D01*
X16588747Y22465523D01*
X16593242Y22475162D01*
X16591661Y22481061D01*
X16527152Y22545570D01*
X16523876Y22548479D01*
X16510308Y22559161D01*
X16500763Y22564591D01*
X16413233Y22598278D01*
X16400026Y22600726D01*
X16307518Y22600646D01*
X16294313Y22598175D01*
X16206856Y22564339D01*
X16197305Y22558881D01*
X16184125Y22548453D01*
X16180920Y22545600D01*
X16154652Y22519331D01*
X16150157Y22509690D01*
X13962463Y22509690D01*
X13962499Y22511074D01*
X13964191Y22543359D01*
X13964598Y22551126D01*
X13961810Y22558390D01*
X13955869Y22573868D01*
X13952571Y22584999D01*
X13947505Y22608830D01*
X13949825Y22609323D01*
X13947092Y22648331D01*
X13965902Y22680270D01*
X14146741Y22861109D01*
X14858284Y22861109D01*
X14859865Y22855210D01*
X15041687Y22673388D01*
X15047281Y22668797D01*
X15087654Y22641821D01*
X15100866Y22636349D01*
X15164602Y22623671D01*
X15178900Y22623671D01*
X15242636Y22636349D01*
X15255848Y22641821D01*
X15262707Y22646403D01*
X15268995Y22654980D01*
X15268771Y22658398D01*
X15268690Y22658517D01*
X14968845Y22958363D01*
X14959206Y22962858D01*
X14953307Y22961277D01*
X14862779Y22870749D01*
X14858284Y22861109D01*
X14146741Y22861109D01*
X14448028Y23162395D01*
X14493905Y23183787D01*
X14542799Y23170686D01*
X14552680Y23162395D01*
X14702905Y23012170D01*
X14712544Y23007675D01*
X14718443Y23009256D01*
X14817784Y23108597D01*
X15105771Y23108597D01*
X15107352Y23102698D01*
X15405751Y22804300D01*
X15415390Y22799805D01*
X15418698Y22800692D01*
X15418800Y22800796D01*
X15426808Y22812781D01*
X15432280Y22825992D01*
X15438096Y22855232D01*
X15464355Y22898507D01*
X15496237Y22913374D01*
X15525480Y22919191D01*
X15538691Y22924663D01*
X15545550Y22929245D01*
X15551838Y22937822D01*
X15551614Y22941240D01*
X15551533Y22941359D01*
X15251688Y23241205D01*
X15242049Y23245700D01*
X15236150Y23244119D01*
X15110264Y23118232D01*
X15105771Y23108597D01*
X14817784Y23108597D01*
X14952548Y23243360D01*
X15093958Y23384771D01*
X15093981Y23384792D01*
X15190136Y23480947D01*
X15236012Y23502339D01*
X15284907Y23489238D01*
X15294788Y23480947D01*
X15688594Y23087142D01*
X15698233Y23082647D01*
X15701541Y23083534D01*
X15701643Y23083638D01*
X15709651Y23095623D01*
X15715123Y23108835D01*
X15720834Y23137545D01*
X15747093Y23180820D01*
X15778977Y23195687D01*
X15808520Y23201563D01*
X15815669Y23202985D01*
X15865248Y23236113D01*
X15963887Y23334752D01*
X15984752Y23365978D01*
X16025573Y23395910D01*
X16071952Y23393986D01*
X16077382Y23390460D01*
X16085777Y23389131D01*
X16085780Y23389130D01*
X16104301Y23383644D01*
X16112068Y23380186D01*
X16136427Y23380186D01*
X16148003Y23379275D01*
X16172065Y23375464D01*
X16179577Y23377477D01*
X16179581Y23377477D01*
X16180278Y23377664D01*
X16199431Y23380186D01*
X16836147Y23380186D01*
X16883713Y23362873D01*
X16909023Y23319036D01*
X16900233Y23269186D01*
X16888473Y23253860D01*
X16752846Y23118232D01*
X16652480Y23017866D01*
X16636970Y22998169D01*
X16598768Y22898908D01*
X16598861Y22792552D01*
X16601326Y22786181D01*
X16601326Y22786180D01*
X16613193Y22755507D01*
X16637236Y22693359D01*
X16652479Y22674092D01*
X16974092Y22352480D01*
X16975815Y22351123D01*
X16975821Y22351118D01*
X16989428Y22340404D01*
X16989431Y22340402D01*
X16993790Y22336970D01*
X17052361Y22314428D01*
X17086404Y22301326D01*
X17093050Y22298768D01*
X17146994Y22298815D01*
X17192575Y22298855D01*
X17199407Y22298861D01*
X17298600Y22337236D01*
X17317866Y22352479D01*
X17488212Y22522826D01*
X17534088Y22544218D01*
X17540538Y22544500D01*
X17909926Y22544500D01*
X17957492Y22527187D01*
X17962252Y22522826D01*
X18235977Y22249102D01*
X18238644Y22246292D01*
X18265477Y22216491D01*
X18272583Y22213327D01*
X18287733Y22206581D01*
X18297933Y22201043D01*
X18311842Y22192011D01*
X18311844Y22192010D01*
X18318366Y22187775D01*
X18326045Y22186559D01*
X18326047Y22186558D01*
X18326762Y22186445D01*
X18345284Y22180958D01*
X18353052Y22177500D01*
X18377412Y22177500D01*
X18388988Y22176589D01*
X18413049Y22172778D01*
X18420561Y22174791D01*
X18420565Y22174791D01*
X18421262Y22174978D01*
X18440415Y22177500D01*
X18649943Y22177500D01*
X18697509Y22160187D01*
X18722819Y22116350D01*
X18714029Y22066500D01*
X18702269Y22051174D01*
X18528891Y21877796D01*
X18483015Y21856404D01*
X18464989Y21857033D01*
X18415752Y21864831D01*
X18410000Y21865742D01*
X18404248Y21864831D01*
X18284193Y21845817D01*
X18284190Y21845816D01*
X18278438Y21844905D01*
X18273247Y21842260D01*
X18273244Y21842259D01*
X18164947Y21787079D01*
X18164944Y21787077D01*
X18159755Y21784433D01*
X18065567Y21690245D01*
X18062923Y21685056D01*
X18062921Y21685053D01*
X18007741Y21576756D01*
X18005095Y21571562D01*
X18004184Y21565810D01*
X18004183Y21565807D01*
X17986304Y21452921D01*
X17984258Y21440000D01*
X17985169Y21434248D01*
X17992967Y21385011D01*
X17983308Y21335322D01*
X17972204Y21321109D01*
X17511156Y20860061D01*
X17465280Y20838669D01*
X17447256Y20839298D01*
X17375000Y20850742D01*
X17369248Y20849831D01*
X17249193Y20830817D01*
X17249190Y20830816D01*
X17243438Y20829905D01*
X17238247Y20827260D01*
X17238244Y20827259D01*
X17129947Y20772079D01*
X17129944Y20772077D01*
X17124755Y20769433D01*
X17030567Y20675245D01*
X17027923Y20670056D01*
X17027921Y20670053D01*
X17011714Y20638244D01*
X16970095Y20556562D01*
X16969184Y20550810D01*
X16969183Y20550807D01*
X16965057Y20524755D01*
X16949258Y20425000D01*
X16958099Y20369183D01*
X16960702Y20352746D01*
X16951043Y20303057D01*
X16939939Y20288844D01*
X16486156Y19835061D01*
X16440280Y19813669D01*
X16422256Y19814298D01*
X16350000Y19825742D01*
X16344248Y19824831D01*
X16224193Y19805817D01*
X16224190Y19805816D01*
X16218438Y19804905D01*
X16213247Y19802260D01*
X16213244Y19802259D01*
X16104947Y19747079D01*
X16104944Y19747077D01*
X16099755Y19744433D01*
X16005567Y19650245D01*
X16002923Y19645056D01*
X16002921Y19645053D01*
X15949296Y19539807D01*
X15945095Y19531562D01*
X15944184Y19525810D01*
X15944183Y19525807D01*
X15929227Y19431374D01*
X15924258Y19400000D01*
X15930867Y19358274D01*
X15932967Y19345012D01*
X15923308Y19295323D01*
X15912204Y19281110D01*
X14346102Y17715007D01*
X14343292Y17712340D01*
X14313491Y17685507D01*
X14310328Y17678403D01*
X14310326Y17678400D01*
X14303583Y17663253D01*
X14298040Y17653046D01*
X14284774Y17632618D01*
X14283557Y17624936D01*
X14283557Y17624935D01*
X14283444Y17624220D01*
X14277958Y17605699D01*
X14274500Y17597932D01*
X14274500Y17573573D01*
X14273589Y17561997D01*
X14269778Y17537935D01*
X14271791Y17530423D01*
X14271791Y17530419D01*
X14271978Y17529722D01*
X14274500Y17510569D01*
X14274500Y17208990D01*
X14257187Y17161424D01*
X14249723Y17154465D01*
X14249755Y17154433D01*
X14155567Y17060245D01*
X14152923Y17055056D01*
X14152921Y17055053D01*
X14097741Y16946756D01*
X14095095Y16941562D01*
X14094184Y16935810D01*
X14094183Y16935807D01*
X14075169Y16815752D01*
X14074258Y16810000D01*
X14075169Y16804248D01*
X14094183Y16684193D01*
X14094184Y16684190D01*
X14095095Y16678438D01*
X14097740Y16673247D01*
X14097741Y16673244D01*
X14152921Y16564947D01*
X14152923Y16564944D01*
X14155567Y16559755D01*
X14249755Y16465567D01*
X14254944Y16462923D01*
X14254947Y16462921D01*
X14363244Y16407741D01*
X14363247Y16407740D01*
X14368438Y16405095D01*
X14374190Y16404184D01*
X14374193Y16404183D01*
X14494248Y16385169D01*
X14500000Y16384258D01*
X14505752Y16385169D01*
X14625807Y16404183D01*
X14625810Y16404184D01*
X14631562Y16405095D01*
X14636753Y16407740D01*
X14636756Y16407741D01*
X14745053Y16462921D01*
X14745056Y16462923D01*
X14750245Y16465567D01*
X14844433Y16559755D01*
X14847077Y16564944D01*
X14847079Y16564947D01*
X14902259Y16673244D01*
X14902260Y16673247D01*
X14904905Y16678438D01*
X14905816Y16684190D01*
X14905817Y16684193D01*
X14924831Y16804248D01*
X14925742Y16810000D01*
X14924831Y16815752D01*
X14905817Y16935807D01*
X14905816Y16935810D01*
X14904905Y16941562D01*
X14902259Y16946756D01*
X14847079Y17055053D01*
X14847077Y17055056D01*
X14844433Y17060245D01*
X14750245Y17154433D01*
X14751546Y17155734D01*
X14727699Y17191085D01*
X14725500Y17208990D01*
X14725500Y17425942D01*
X14742813Y17473508D01*
X14747174Y17478268D01*
X16231110Y18962204D01*
X16276986Y18983596D01*
X16295011Y18982967D01*
X16350000Y18974258D01*
X16355752Y18975169D01*
X16475807Y18994183D01*
X16475810Y18994184D01*
X16481562Y18995095D01*
X16486753Y18997740D01*
X16486756Y18997741D01*
X16595053Y19052921D01*
X16595056Y19052923D01*
X16600245Y19055567D01*
X16694433Y19149755D01*
X16697077Y19154944D01*
X16697079Y19154947D01*
X16752259Y19263244D01*
X16752260Y19263247D01*
X16754905Y19268438D01*
X16755816Y19274190D01*
X16755817Y19274193D01*
X16774831Y19394248D01*
X16775742Y19400000D01*
X16769767Y19437723D01*
X16779425Y19487410D01*
X16790530Y19501624D01*
X17273375Y19984470D01*
X17319251Y20005862D01*
X17337274Y20005233D01*
X17375000Y19999258D01*
X17380752Y20000169D01*
X17500807Y20019183D01*
X17500810Y20019184D01*
X17506562Y20020095D01*
X17511753Y20022740D01*
X17511756Y20022741D01*
X17620053Y20077921D01*
X17620056Y20077923D01*
X17625245Y20080567D01*
X17719433Y20174755D01*
X17722077Y20179944D01*
X17722079Y20179947D01*
X17777259Y20288244D01*
X17777260Y20288247D01*
X17779905Y20293438D01*
X17780816Y20299190D01*
X17780817Y20299193D01*
X17799831Y20419248D01*
X17800742Y20425000D01*
X17794767Y20462723D01*
X17804425Y20512411D01*
X17815530Y20526625D01*
X18291110Y21002204D01*
X18336987Y21023596D01*
X18355011Y21022967D01*
X18410000Y21014258D01*
X18415752Y21015169D01*
X18535807Y21034183D01*
X18535810Y21034184D01*
X18541562Y21035095D01*
X18546753Y21037740D01*
X18546756Y21037741D01*
X18655053Y21092921D01*
X18655056Y21092923D01*
X18660245Y21095567D01*
X18754433Y21189755D01*
X18757077Y21194944D01*
X18757079Y21194947D01*
X18812259Y21303244D01*
X18812260Y21303247D01*
X18814905Y21308438D01*
X18815816Y21314190D01*
X18815817Y21314193D01*
X18834831Y21434248D01*
X18835742Y21440000D01*
X18827033Y21494988D01*
X18836692Y21544677D01*
X18847796Y21558890D01*
X19202842Y21913937D01*
X19205652Y21916604D01*
X19206288Y21917177D01*
X19235453Y21943437D01*
X19239101Y21951630D01*
X19245363Y21965693D01*
X19250901Y21975893D01*
X19259933Y21989802D01*
X19259934Y21989804D01*
X19264169Y21996326D01*
X19265386Y22004006D01*
X19268173Y22011268D01*
X19270592Y22010339D01*
X19289245Y22043993D01*
X19336500Y22062136D01*
X19349372Y22061236D01*
X19419248Y22050169D01*
X19425000Y22049258D01*
X19430752Y22050169D01*
X19550807Y22069183D01*
X19550810Y22069184D01*
X19556562Y22070095D01*
X19561753Y22072740D01*
X19561756Y22072741D01*
X19670053Y22127921D01*
X19670056Y22127923D01*
X19675245Y22130567D01*
X19769433Y22224755D01*
X19772077Y22229944D01*
X19772079Y22229947D01*
X19827259Y22338244D01*
X19827260Y22338247D01*
X19829905Y22343438D01*
X19830816Y22349190D01*
X19830817Y22349193D01*
X19849831Y22469248D01*
X19850742Y22475000D01*
X19843167Y22522826D01*
X19830817Y22600807D01*
X19830816Y22600810D01*
X19829905Y22606562D01*
X19817236Y22631428D01*
X19769433Y22725245D01*
X19770688Y22725884D01*
X19758592Y22768075D01*
X19780085Y22815235D01*
X20109765Y23144915D01*
X20155641Y23166307D01*
X20199089Y23154259D01*
X20199755Y23155567D01*
X20313244Y23097741D01*
X20313247Y23097740D01*
X20318438Y23095095D01*
X20324190Y23094184D01*
X20324193Y23094183D01*
X20444248Y23075169D01*
X20450000Y23074258D01*
X20455752Y23075169D01*
X20575807Y23094183D01*
X20575810Y23094184D01*
X20581562Y23095095D01*
X20586753Y23097740D01*
X20586756Y23097741D01*
X20695053Y23152921D01*
X20695056Y23152923D01*
X20700245Y23155567D01*
X20794433Y23249755D01*
X20797077Y23254944D01*
X20797079Y23254947D01*
X20852259Y23363244D01*
X20852260Y23363247D01*
X20854905Y23368438D01*
X20855816Y23374190D01*
X20855817Y23374193D01*
X20874831Y23494248D01*
X20875742Y23500000D01*
X20868204Y23547592D01*
X20855817Y23625807D01*
X20855816Y23625810D01*
X20854905Y23631562D01*
X20794433Y23750245D01*
X20795688Y23750884D01*
X20783592Y23793075D01*
X20805085Y23840235D01*
X21134765Y24169915D01*
X21180641Y24191307D01*
X21224089Y24179259D01*
X21224755Y24180567D01*
X21338244Y24122741D01*
X21338247Y24122740D01*
X21343438Y24120095D01*
X21349190Y24119184D01*
X21349193Y24119183D01*
X21469248Y24100169D01*
X21475000Y24099258D01*
X21480752Y24100169D01*
X21600807Y24119183D01*
X21600810Y24119184D01*
X21606562Y24120095D01*
X21611753Y24122740D01*
X21611756Y24122741D01*
X21720053Y24177921D01*
X21720056Y24177923D01*
X21725245Y24180567D01*
X21819433Y24274755D01*
X21822077Y24279944D01*
X21822079Y24279947D01*
X21877259Y24388244D01*
X21877260Y24388247D01*
X21879905Y24393438D01*
X21880816Y24399190D01*
X21880817Y24399193D01*
X21899831Y24519248D01*
X21900742Y24525000D01*
X21885595Y24620636D01*
X21880817Y24650807D01*
X21880816Y24650810D01*
X21879905Y24656562D01*
X21868492Y24678963D01*
X21819433Y24775245D01*
X21820688Y24775884D01*
X21808592Y24818075D01*
X21830085Y24865235D01*
X22149765Y25184915D01*
X22195641Y25206307D01*
X22239089Y25194259D01*
X22239755Y25195567D01*
X22353244Y25137741D01*
X22353247Y25137740D01*
X22358438Y25135095D01*
X22364190Y25134184D01*
X22364193Y25134183D01*
X22484248Y25115169D01*
X22490000Y25114258D01*
X22495752Y25115169D01*
X22615807Y25134183D01*
X22615810Y25134184D01*
X22621562Y25135095D01*
X22626753Y25137740D01*
X22626756Y25137741D01*
X22735053Y25192921D01*
X22735056Y25192923D01*
X22740245Y25195567D01*
X22834433Y25289755D01*
X22837077Y25294944D01*
X22837079Y25294947D01*
X22892259Y25403244D01*
X22892260Y25403247D01*
X22894905Y25408438D01*
X22895816Y25414190D01*
X22895817Y25414193D01*
X22914831Y25534248D01*
X22915742Y25540000D01*
X22910554Y25572759D01*
X22895817Y25665807D01*
X22895816Y25665810D01*
X22894905Y25671562D01*
X22892259Y25676756D01*
X22837079Y25785053D01*
X22837077Y25785056D01*
X22834433Y25790245D01*
X22740245Y25884433D01*
X22735056Y25887077D01*
X22735053Y25887079D01*
X22626756Y25942259D01*
X22626753Y25942260D01*
X22621562Y25944905D01*
X22615810Y25945816D01*
X22615807Y25945817D01*
X22495752Y25964831D01*
X22490000Y25965742D01*
X22484248Y25964831D01*
X22364193Y25945817D01*
X22364190Y25945816D01*
X22358438Y25944905D01*
X22283093Y25906515D01*
X22232853Y25900347D01*
X22190401Y25927916D01*
X22175500Y25972450D01*
X22175500Y27225501D01*
X22192813Y27273067D01*
X22236650Y27298377D01*
X22249500Y27299501D01*
X22356518Y27299501D01*
X22359390Y27299956D01*
X22359392Y27299956D01*
X22394833Y27305569D01*
X22450304Y27314354D01*
X22507496Y27343495D01*
X22558150Y27369304D01*
X22558152Y27369306D01*
X22563342Y27371950D01*
X22653050Y27461658D01*
X22655694Y27466848D01*
X22655696Y27466850D01*
X22708000Y27569502D01*
X22708001Y27569505D01*
X22710646Y27574696D01*
X22711557Y27580448D01*
X22711558Y27580451D01*
X22725045Y27665608D01*
X22725500Y27668481D01*
X22725499Y28231518D01*
X22724485Y28237924D01*
X22711557Y28319550D01*
X22710646Y28325304D01*
X22681848Y28381823D01*
X22655696Y28433150D01*
X22655694Y28433152D01*
X22653050Y28438342D01*
X22563342Y28528050D01*
X22558152Y28530694D01*
X22558150Y28530696D01*
X22455498Y28583000D01*
X22455495Y28583001D01*
X22450304Y28585646D01*
X22444552Y28586557D01*
X22444549Y28586558D01*
X22359392Y28600045D01*
X22356519Y28600500D01*
X22353610Y28600500D01*
X21950001Y28600499D01*
X21543482Y28600499D01*
X21540610Y28600044D01*
X21540608Y28600044D01*
X21508910Y28595024D01*
X21449696Y28585646D01*
X21407926Y28564363D01*
X21341850Y28530696D01*
X21341848Y28530694D01*
X21336658Y28528050D01*
X21246950Y28438342D01*
X21244306Y28433152D01*
X21244304Y28433150D01*
X21192000Y28330498D01*
X21189354Y28325304D01*
X21188443Y28319552D01*
X21188442Y28319549D01*
X21175514Y28237924D01*
X21150973Y28193651D01*
X21102425Y28175500D01*
X21074057Y28175500D01*
X21026491Y28192813D01*
X21021731Y28197174D01*
X20875007Y28343898D01*
X20872340Y28346708D01*
X20858568Y28362003D01*
X20845507Y28376509D01*
X20838403Y28379672D01*
X20838400Y28379674D01*
X20823253Y28386417D01*
X20813045Y28391960D01*
X20799142Y28400989D01*
X20792618Y28405226D01*
X20784936Y28406443D01*
X20784935Y28406443D01*
X20784220Y28406556D01*
X20765699Y28412042D01*
X20757932Y28415500D01*
X20733573Y28415500D01*
X20721997Y28416411D01*
X20716428Y28417293D01*
X20697935Y28420222D01*
X20690423Y28418209D01*
X20690419Y28418209D01*
X20689722Y28418022D01*
X20670569Y28415500D01*
X20505339Y28415500D01*
X20457773Y28432813D01*
X20437710Y28459461D01*
X20427137Y28483265D01*
X20424363Y28489510D01*
X20349092Y28564650D01*
X20342844Y28567412D01*
X20342843Y28567413D01*
X20256903Y28605407D01*
X20256900Y28605408D01*
X20251817Y28607655D01*
X20241841Y28608818D01*
X20229543Y28610252D01*
X20229541Y28610252D01*
X20227415Y28610500D01*
X20002260Y28610500D01*
X19772586Y28610499D01*
X19770417Y28610241D01*
X19770416Y28610241D01*
X19753204Y28608194D01*
X19753203Y28608194D01*
X19747690Y28607538D01*
X19742619Y28605286D01*
X19742617Y28605285D01*
X19676558Y28575942D01*
X19650490Y28564363D01*
X19575350Y28489092D01*
X19572587Y28482843D01*
X19572586Y28482841D01*
X19562302Y28459579D01*
X19527234Y28423074D01*
X19494621Y28415500D01*
X19405339Y28415500D01*
X19357773Y28432813D01*
X19337710Y28459461D01*
X19327137Y28483265D01*
X19324363Y28489510D01*
X19249092Y28564650D01*
X19242844Y28567412D01*
X19242843Y28567413D01*
X19156903Y28605407D01*
X19156900Y28605408D01*
X19151817Y28607655D01*
X19141841Y28608818D01*
X19129543Y28610252D01*
X19129541Y28610252D01*
X19127415Y28610500D01*
X18902260Y28610500D01*
X18672586Y28610499D01*
X18670417Y28610241D01*
X18670416Y28610241D01*
X18653204Y28608194D01*
X18653203Y28608194D01*
X18647690Y28607538D01*
X18642619Y28605286D01*
X18642617Y28605285D01*
X18576558Y28575942D01*
X18550490Y28564363D01*
X18475350Y28489092D01*
X18472588Y28482844D01*
X18472587Y28482843D01*
X18434593Y28396903D01*
X18434592Y28396900D01*
X18432345Y28391817D01*
X18429500Y28367415D01*
X18429501Y28012586D01*
X18429759Y28010417D01*
X18429759Y28010416D01*
X18431191Y27998380D01*
X18432462Y27987690D01*
X18434714Y27982619D01*
X18434715Y27982617D01*
X18462342Y27920421D01*
X18475637Y27890490D01*
X18480474Y27885661D01*
X18480475Y27885660D01*
X18504926Y27861252D01*
X18550908Y27815350D01*
X18557156Y27812588D01*
X18557157Y27812587D01*
X18643097Y27774593D01*
X18643100Y27774592D01*
X18648183Y27772345D01*
X18653707Y27771701D01*
X18670457Y27769748D01*
X18670459Y27769748D01*
X18672585Y27769500D01*
X18897740Y27769500D01*
X19127414Y27769501D01*
X19129583Y27769759D01*
X19129584Y27769759D01*
X19146796Y27771806D01*
X19146797Y27771806D01*
X19152310Y27772462D01*
X19157381Y27774714D01*
X19157383Y27774715D01*
X19243265Y27812863D01*
X19249510Y27815637D01*
X19255757Y27821894D01*
X19319821Y27886071D01*
X19324650Y27890908D01*
X19337698Y27920421D01*
X19372766Y27956926D01*
X19405379Y27964500D01*
X19494661Y27964500D01*
X19542227Y27947187D01*
X19562289Y27920540D01*
X19575637Y27890490D01*
X19650908Y27815350D01*
X19657156Y27812588D01*
X19657157Y27812587D01*
X19743097Y27774593D01*
X19743100Y27774592D01*
X19748183Y27772345D01*
X19753707Y27771701D01*
X19770457Y27769748D01*
X19770459Y27769748D01*
X19772585Y27769500D01*
X19997740Y27769500D01*
X20227414Y27769501D01*
X20229583Y27769759D01*
X20229584Y27769759D01*
X20246796Y27771806D01*
X20246797Y27771806D01*
X20252310Y27772462D01*
X20257381Y27774714D01*
X20257383Y27774715D01*
X20343265Y27812863D01*
X20349510Y27815637D01*
X20355757Y27821894D01*
X20419821Y27886071D01*
X20424650Y27890908D01*
X20437698Y27920421D01*
X20472766Y27956926D01*
X20505379Y27964500D01*
X20585942Y27964500D01*
X20633508Y27947187D01*
X20638268Y27942826D01*
X20784994Y27796100D01*
X20787660Y27793291D01*
X20806521Y27772345D01*
X20814493Y27763491D01*
X20821599Y27760327D01*
X20836749Y27753581D01*
X20846949Y27748043D01*
X20860858Y27739011D01*
X20860860Y27739010D01*
X20867382Y27734775D01*
X20875061Y27733559D01*
X20875063Y27733558D01*
X20875778Y27733445D01*
X20894300Y27727958D01*
X20902068Y27724500D01*
X20926428Y27724500D01*
X20938004Y27723589D01*
X20962065Y27719778D01*
X20969577Y27721791D01*
X20969581Y27721791D01*
X20970278Y27721978D01*
X20989431Y27724500D01*
X21102427Y27724500D01*
X21149993Y27707187D01*
X21175516Y27662076D01*
X21189354Y27574696D01*
X21204307Y27545349D01*
X21244304Y27466850D01*
X21244306Y27466848D01*
X21246950Y27461658D01*
X21336658Y27371950D01*
X21341848Y27369306D01*
X21341850Y27369304D01*
X21444502Y27317000D01*
X21444505Y27316999D01*
X21449696Y27314354D01*
X21455448Y27313443D01*
X21455451Y27313442D01*
X21530468Y27301561D01*
X21543481Y27299500D01*
X21650500Y27299500D01*
X21698066Y27282187D01*
X21723376Y27238350D01*
X21724500Y27225500D01*
X21724500Y25824093D01*
X21707187Y25776527D01*
X21702826Y25771767D01*
X20263284Y24332225D01*
X20217408Y24310833D01*
X20168513Y24323934D01*
X20145024Y24350955D01*
X20110822Y24418080D01*
X20094433Y24450245D01*
X20000245Y24544433D01*
X19995056Y24547077D01*
X19995053Y24547079D01*
X19886756Y24602259D01*
X19886753Y24602260D01*
X19881562Y24604905D01*
X19875810Y24605816D01*
X19875807Y24605817D01*
X19755752Y24624831D01*
X19750000Y24625742D01*
X19744248Y24624831D01*
X19624193Y24605817D01*
X19624190Y24605816D01*
X19618438Y24604905D01*
X19613247Y24602260D01*
X19613244Y24602259D01*
X19504947Y24547079D01*
X19504944Y24547077D01*
X19499755Y24544433D01*
X19405567Y24450245D01*
X19402923Y24445056D01*
X19402921Y24445053D01*
X19354976Y24350955D01*
X19345095Y24331562D01*
X19344184Y24325810D01*
X19344183Y24325807D01*
X19339697Y24297481D01*
X19324258Y24200000D01*
X19325169Y24194248D01*
X19344183Y24074193D01*
X19344184Y24074190D01*
X19345095Y24068438D01*
X19373294Y24013094D01*
X19379463Y23962854D01*
X19351895Y23920401D01*
X19307360Y23905500D01*
X18531825Y23905500D01*
X18527952Y23905601D01*
X18495666Y23907293D01*
X18487900Y23907700D01*
X18480637Y23904912D01*
X18465154Y23898969D01*
X18454021Y23895671D01*
X18437803Y23892224D01*
X18437802Y23892224D01*
X18430196Y23890607D01*
X18423317Y23885609D01*
X18406344Y23876394D01*
X18405669Y23876135D01*
X18405667Y23876134D01*
X18398405Y23873346D01*
X18392233Y23867174D01*
X18390946Y23866574D01*
X18386382Y23863610D01*
X18385965Y23864251D01*
X18346357Y23845782D01*
X18339907Y23845500D01*
X17889016Y23845500D01*
X17841450Y23862813D01*
X17836690Y23867174D01*
X17349966Y24353898D01*
X17347299Y24356708D01*
X17325671Y24380728D01*
X17320466Y24386509D01*
X17313362Y24389672D01*
X17313359Y24389674D01*
X17298212Y24396417D01*
X17288004Y24401960D01*
X17274101Y24410989D01*
X17267577Y24415226D01*
X17259895Y24416443D01*
X17259894Y24416443D01*
X17259179Y24416556D01*
X17240658Y24422042D01*
X17232891Y24425500D01*
X17208532Y24425500D01*
X17196956Y24426411D01*
X17186784Y24428022D01*
X17172894Y24430222D01*
X17165382Y24428209D01*
X17165378Y24428209D01*
X17164681Y24428022D01*
X17145528Y24425500D01*
X16686763Y24425500D01*
X16639197Y24442813D01*
X16634437Y24447174D01*
X16481174Y24600437D01*
X16459782Y24646313D01*
X16459500Y24652763D01*
X16459500Y25008748D01*
X16459601Y25012621D01*
X16461293Y25044907D01*
X16461700Y25052673D01*
X16457258Y25064245D01*
X16452969Y25075419D01*
X16449671Y25086552D01*
X16444607Y25110376D01*
X16448066Y25111111D01*
X16445559Y25146788D01*
X16464373Y25178741D01*
X16529572Y25243940D01*
X16534358Y25251102D01*
X16557432Y25285636D01*
X16562700Y25293520D01*
X16578260Y25371751D01*
X16570963Y25408438D01*
X16564122Y25442835D01*
X16564121Y25442836D01*
X16562700Y25449983D01*
X16529572Y25499562D01*
X16456375Y25572759D01*
X16434983Y25618635D01*
X16448084Y25667530D01*
X16482182Y25694169D01*
X16500062Y25701033D01*
X16511191Y25704329D01*
X16535016Y25709393D01*
X16541892Y25714389D01*
X16558869Y25723606D01*
X16566808Y25726654D01*
X16584038Y25743884D01*
X16592868Y25751425D01*
X16612571Y25765740D01*
X16616458Y25772473D01*
X16616461Y25772476D01*
X16616822Y25773102D01*
X16628581Y25788427D01*
X16768070Y25927916D01*
X16912747Y26072594D01*
X16958623Y26093986D01*
X16991652Y26089330D01*
X17015963Y26079974D01*
X17015965Y26079974D01*
X17022340Y26077520D01*
X17076285Y26077567D01*
X17121864Y26077607D01*
X17128696Y26077613D01*
X17157039Y26088578D01*
X17222697Y26113979D01*
X17222699Y26113980D01*
X17227889Y26115988D01*
X17247156Y26131231D01*
X17568768Y26452844D01*
X17570125Y26454567D01*
X17570130Y26454573D01*
X17580844Y26468180D01*
X17580846Y26468183D01*
X17584278Y26472542D01*
X17606820Y26531113D01*
X17620027Y26565428D01*
X17620027Y26565429D01*
X17622480Y26571802D01*
X17622387Y26678159D01*
X17610744Y26708254D01*
X17609727Y26758861D01*
X17627433Y26787279D01*
X17803908Y26963754D01*
X17806718Y26966421D01*
X17830732Y26988043D01*
X17830733Y26988044D01*
X17836509Y26993245D01*
X17839889Y27000835D01*
X17846418Y27015499D01*
X17851952Y27025693D01*
X17865226Y27046134D01*
X17866556Y27054532D01*
X17872042Y27073053D01*
X17875500Y27080820D01*
X17875500Y27105179D01*
X17876411Y27116755D01*
X17879005Y27133134D01*
X17880222Y27140817D01*
X17878209Y27148329D01*
X17878209Y27148333D01*
X17878022Y27149030D01*
X17875500Y27168183D01*
X17875500Y28575942D01*
X17892813Y28623508D01*
X17897174Y28628268D01*
X18231731Y28962826D01*
X18277607Y28984218D01*
X18284057Y28984500D01*
X18394661Y28984500D01*
X18442227Y28967187D01*
X18462289Y28940540D01*
X18475637Y28910490D01*
X18550908Y28835350D01*
X18557156Y28832588D01*
X18557157Y28832587D01*
X18643097Y28794593D01*
X18643100Y28794592D01*
X18648183Y28792345D01*
X18653707Y28791701D01*
X18670457Y28789748D01*
X18670459Y28789748D01*
X18672585Y28789500D01*
X18897740Y28789500D01*
X19127414Y28789501D01*
X19129583Y28789759D01*
X19129584Y28789759D01*
X19146796Y28791806D01*
X19146797Y28791806D01*
X19152310Y28792462D01*
X19157381Y28794714D01*
X19157383Y28794715D01*
X19243265Y28832863D01*
X19249510Y28835637D01*
X19254459Y28840594D01*
X19319412Y28905661D01*
X19324650Y28910908D01*
X19347603Y28962826D01*
X19365407Y29003097D01*
X19365408Y29003100D01*
X19367655Y29008183D01*
X19370500Y29032585D01*
X19370500Y29034835D01*
X19530000Y29034835D01*
X19530258Y29030487D01*
X19532300Y29013319D01*
X19535209Y29002736D01*
X19573282Y28917020D01*
X19580889Y28905953D01*
X19646361Y28840594D01*
X19657442Y28833007D01*
X19743210Y28795090D01*
X19753830Y28792194D01*
X19770523Y28790248D01*
X19774794Y28790000D01*
X19861952Y28790000D01*
X19871948Y28793638D01*
X19875000Y28798925D01*
X19875000Y28803048D01*
X20125000Y28803048D01*
X20128638Y28793052D01*
X20133925Y28790000D01*
X20225165Y28790000D01*
X20229513Y28790258D01*
X20246681Y28792300D01*
X20257264Y28795209D01*
X20342980Y28833282D01*
X20354047Y28840889D01*
X20419406Y28906361D01*
X20426993Y28917442D01*
X20464910Y29003210D01*
X20467806Y29013830D01*
X20469752Y29030523D01*
X20470000Y29034794D01*
X20470000Y29071952D01*
X20466362Y29081948D01*
X20461075Y29085000D01*
X20138048Y29085000D01*
X20128052Y29081362D01*
X20125000Y29076075D01*
X20125000Y28803048D01*
X19875000Y28803048D01*
X19875000Y29071952D01*
X19871362Y29081948D01*
X19866075Y29085000D01*
X19543048Y29085000D01*
X19533052Y29081362D01*
X19530000Y29076075D01*
X19530000Y29034835D01*
X19370500Y29034835D01*
X19370499Y29171429D01*
X21175001Y29171429D01*
X21175456Y29165646D01*
X21188924Y29080606D01*
X21192481Y29069660D01*
X21244713Y28967147D01*
X21251478Y28957836D01*
X21332836Y28876478D01*
X21342147Y28869713D01*
X21444658Y28817481D01*
X21455607Y28813923D01*
X21540646Y28800455D01*
X21546428Y28800000D01*
X21811952Y28800000D01*
X21821948Y28803638D01*
X21825000Y28808925D01*
X21825000Y28813049D01*
X22075000Y28813049D01*
X22078638Y28803053D01*
X22083925Y28800001D01*
X22353571Y28800001D01*
X22359354Y28800456D01*
X22444394Y28813924D01*
X22455340Y28817481D01*
X22557853Y28869713D01*
X22567164Y28876478D01*
X22648522Y28957836D01*
X22655287Y28967147D01*
X22707519Y29069658D01*
X22711077Y29080607D01*
X22724545Y29165646D01*
X22725000Y29171428D01*
X22725000Y29311952D01*
X22721362Y29321948D01*
X22716075Y29325000D01*
X22088048Y29325000D01*
X22078052Y29321362D01*
X22075000Y29316075D01*
X22075000Y28813049D01*
X21825000Y28813049D01*
X21825000Y29311952D01*
X21821362Y29321948D01*
X21816075Y29325000D01*
X21188049Y29325000D01*
X21178053Y29321362D01*
X21175001Y29316075D01*
X21175001Y29171429D01*
X19370499Y29171429D01*
X19370499Y29283442D01*
X19387812Y29331008D01*
X19392173Y29335768D01*
X19414363Y29357958D01*
X19460239Y29379350D01*
X19509134Y29366249D01*
X19528490Y29341025D01*
X19538925Y29335000D01*
X20456952Y29335000D01*
X20466948Y29338638D01*
X20470000Y29343925D01*
X20470000Y29385500D01*
X20487313Y29433066D01*
X20531150Y29458376D01*
X20544000Y29459500D01*
X20877139Y29459500D01*
X20881012Y29459399D01*
X20913297Y29457707D01*
X20921064Y29457300D01*
X20928324Y29460087D01*
X20928325Y29460087D01*
X20943809Y29466031D01*
X20954943Y29469329D01*
X20978768Y29474393D01*
X20985644Y29479389D01*
X21002621Y29488606D01*
X21010560Y29491654D01*
X21027790Y29508884D01*
X21036620Y29516425D01*
X21056323Y29530740D01*
X21060210Y29537473D01*
X21060213Y29537476D01*
X21060574Y29538102D01*
X21072333Y29553427D01*
X21086704Y29567798D01*
X21132580Y29589190D01*
X21176029Y29579558D01*
X21183924Y29575000D01*
X22711951Y29575000D01*
X22721947Y29578638D01*
X22724999Y29583925D01*
X22724999Y29728571D01*
X22724544Y29734354D01*
X22711076Y29819396D01*
X22706775Y29832633D01*
X22708541Y29883221D01*
X22742412Y29920838D01*
X22777153Y29929500D01*
X22845942Y29929500D01*
X22893508Y29912187D01*
X22898268Y29907826D01*
X23677826Y29128269D01*
X23699218Y29082393D01*
X23699500Y29075943D01*
X23699500Y28157861D01*
X23699399Y28153988D01*
X23697300Y28113936D01*
X23700087Y28106676D01*
X23700087Y28106675D01*
X23706031Y28091191D01*
X23709329Y28080058D01*
X23714393Y28056232D01*
X23719389Y28049356D01*
X23728606Y28032379D01*
X23731654Y28024440D01*
X23748884Y28007210D01*
X23756424Y27998381D01*
X23770740Y27978677D01*
X23777473Y27974790D01*
X23777476Y27974787D01*
X23778102Y27974426D01*
X23793427Y27962667D01*
X26827826Y24928268D01*
X26849218Y24882392D01*
X26849500Y24875942D01*
X26849500Y14824057D01*
X26832187Y14776491D01*
X26827826Y14771731D01*
X26168796Y14112701D01*
X26122920Y14091309D01*
X26091948Y14095209D01*
X26090981Y14095548D01*
X26089619Y14096027D01*
X26089615Y14096028D01*
X26085369Y14097519D01*
X26080886Y14097943D01*
X26080885Y14097943D01*
X26055562Y14100337D01*
X26055555Y14100337D01*
X26053834Y14100500D01*
X25046166Y14100500D01*
X25044445Y14100337D01*
X25044438Y14100337D01*
X25019115Y14097943D01*
X25019114Y14097943D01*
X25014631Y14097519D01*
X24886816Y14052634D01*
X24777850Y13972150D01*
X24697366Y13863184D01*
X24652481Y13735369D01*
X24652057Y13730886D01*
X24652057Y13730885D01*
X24649665Y13705576D01*
X24649500Y13703834D01*
X24649500Y11796166D01*
X24652481Y11764631D01*
X24697366Y11636816D01*
X24777850Y11527850D01*
X24886816Y11447366D01*
X25014631Y11402481D01*
X25019114Y11402057D01*
X25019115Y11402057D01*
X25044438Y11399663D01*
X25044445Y11399663D01*
X25046166Y11399500D01*
X26053834Y11399500D01*
X26055555Y11399663D01*
X26055562Y11399663D01*
X26080885Y11402057D01*
X26080886Y11402057D01*
X26085369Y11402481D01*
X26213184Y11447366D01*
X26322150Y11527850D01*
X26402634Y11636816D01*
X26447519Y11764631D01*
X26450500Y11796166D01*
X26450500Y13703834D01*
X26450337Y13705562D01*
X26450336Y13705576D01*
X26449221Y13717367D01*
X26461978Y13766352D01*
X26470566Y13776660D01*
X27228908Y14535002D01*
X27231718Y14537669D01*
X27255728Y14559288D01*
X27261509Y14564493D01*
X27264673Y14571599D01*
X27264675Y14571602D01*
X27271418Y14586747D01*
X27276957Y14596950D01*
X27285991Y14610861D01*
X27285992Y14610863D01*
X27290226Y14617383D01*
X27291443Y14625065D01*
X27291444Y14625068D01*
X27291557Y14625781D01*
X27297041Y14644297D01*
X27297337Y14644962D01*
X27297338Y14644965D01*
X27300500Y14652068D01*
X27300500Y14676428D01*
X27301411Y14688004D01*
X27304005Y14704383D01*
X27305222Y14712066D01*
X27303209Y14719578D01*
X27303209Y14719582D01*
X27303022Y14720279D01*
X27300500Y14739432D01*
X27300500Y24992139D01*
X27300601Y24996012D01*
X27302293Y25028298D01*
X27302700Y25036064D01*
X27299912Y25043327D01*
X27293969Y25058810D01*
X27290671Y25069943D01*
X27287224Y25086161D01*
X27287224Y25086162D01*
X27285607Y25093768D01*
X27280609Y25100648D01*
X27271394Y25117620D01*
X27271135Y25118295D01*
X27271134Y25118297D01*
X27268346Y25125559D01*
X27251119Y25142786D01*
X27243578Y25151616D01*
X27243189Y25152152D01*
X27229260Y25171323D01*
X27221897Y25175574D01*
X27206571Y25187334D01*
X24172174Y28221731D01*
X24167610Y28231519D01*
X25224500Y28231519D01*
X25224501Y27668482D01*
X25224956Y27665610D01*
X25224956Y27665608D01*
X25225516Y27662075D01*
X25239354Y27574696D01*
X25254307Y27545349D01*
X25294304Y27466850D01*
X25294306Y27466848D01*
X25296950Y27461658D01*
X25386658Y27371950D01*
X25391848Y27369306D01*
X25391850Y27369304D01*
X25494502Y27317000D01*
X25494505Y27316999D01*
X25499696Y27314354D01*
X25505448Y27313443D01*
X25505451Y27313442D01*
X25580468Y27301561D01*
X25593481Y27299500D01*
X26000000Y27299500D01*
X26406518Y27299501D01*
X26409390Y27299956D01*
X26409392Y27299956D01*
X26444833Y27305569D01*
X26500304Y27314354D01*
X26557496Y27343495D01*
X26608150Y27369304D01*
X26608152Y27369306D01*
X26613342Y27371950D01*
X26703050Y27461658D01*
X26705694Y27466848D01*
X26705696Y27466850D01*
X26758000Y27569502D01*
X26758001Y27569505D01*
X26760646Y27574696D01*
X26761557Y27580448D01*
X26761558Y27580451D01*
X26775045Y27665608D01*
X26775500Y27668481D01*
X26775499Y28231518D01*
X26774485Y28237924D01*
X26761557Y28319550D01*
X26760646Y28325304D01*
X26731848Y28381823D01*
X26705696Y28433150D01*
X26705694Y28433152D01*
X26703050Y28438342D01*
X26613342Y28528050D01*
X26608152Y28530694D01*
X26608150Y28530696D01*
X26505498Y28583000D01*
X26505495Y28583001D01*
X26500304Y28585646D01*
X26494552Y28586557D01*
X26494549Y28586558D01*
X26409392Y28600045D01*
X26406519Y28600500D01*
X26403610Y28600500D01*
X26000001Y28600499D01*
X25593482Y28600499D01*
X25590610Y28600044D01*
X25590608Y28600044D01*
X25558910Y28595024D01*
X25499696Y28585646D01*
X25457926Y28564363D01*
X25391850Y28530696D01*
X25391848Y28530694D01*
X25386658Y28528050D01*
X25296950Y28438342D01*
X25294306Y28433152D01*
X25294304Y28433150D01*
X25242000Y28330498D01*
X25239354Y28325304D01*
X25238443Y28319552D01*
X25238442Y28319549D01*
X25225515Y28237925D01*
X25224500Y28231519D01*
X24167610Y28231519D01*
X24150782Y28267607D01*
X24150500Y28274057D01*
X24150500Y29171429D01*
X25225001Y29171429D01*
X25225456Y29165646D01*
X25238924Y29080606D01*
X25242481Y29069660D01*
X25294713Y28967147D01*
X25301478Y28957836D01*
X25382836Y28876478D01*
X25392147Y28869713D01*
X25494658Y28817481D01*
X25505607Y28813923D01*
X25590646Y28800455D01*
X25596428Y28800000D01*
X25861952Y28800000D01*
X25871948Y28803638D01*
X25875000Y28808925D01*
X25875000Y28813049D01*
X26125000Y28813049D01*
X26128638Y28803053D01*
X26133925Y28800001D01*
X26403571Y28800001D01*
X26409354Y28800456D01*
X26494394Y28813924D01*
X26505340Y28817481D01*
X26607853Y28869713D01*
X26617164Y28876478D01*
X26698522Y28957836D01*
X26705287Y28967147D01*
X26757519Y29069658D01*
X26761077Y29080607D01*
X26774545Y29165646D01*
X26775000Y29171428D01*
X26775000Y29311952D01*
X26771362Y29321948D01*
X26766075Y29325000D01*
X26138048Y29325000D01*
X26128052Y29321362D01*
X26125000Y29316075D01*
X26125000Y28813049D01*
X25875000Y28813049D01*
X25875000Y29311952D01*
X25871362Y29321948D01*
X25866075Y29325000D01*
X25238049Y29325000D01*
X25228053Y29321362D01*
X25225001Y29316075D01*
X25225001Y29171429D01*
X24150500Y29171429D01*
X24150500Y29192139D01*
X24150601Y29196012D01*
X24152293Y29228297D01*
X24152700Y29236064D01*
X24143969Y29258810D01*
X24140671Y29269943D01*
X24137224Y29286159D01*
X24135607Y29293768D01*
X24130611Y29300644D01*
X24121393Y29317622D01*
X24121132Y29318302D01*
X24118346Y29325560D01*
X24101116Y29342790D01*
X24093575Y29351620D01*
X24088970Y29357958D01*
X24079260Y29371323D01*
X24072527Y29375210D01*
X24072524Y29375213D01*
X24071898Y29375574D01*
X24056573Y29387333D01*
X23855858Y29588048D01*
X25225000Y29588048D01*
X25228638Y29578052D01*
X25233925Y29575000D01*
X25861952Y29575000D01*
X25871948Y29578638D01*
X25875000Y29583925D01*
X25875000Y29588048D01*
X26125000Y29588048D01*
X26128638Y29578052D01*
X26133925Y29575000D01*
X26761951Y29575000D01*
X26771947Y29578638D01*
X26774999Y29583925D01*
X26774999Y29728571D01*
X26774544Y29734354D01*
X26761076Y29819394D01*
X26757519Y29830340D01*
X26705287Y29932853D01*
X26698522Y29942164D01*
X26617164Y30023522D01*
X26607853Y30030287D01*
X26505342Y30082519D01*
X26494393Y30086077D01*
X26409354Y30099545D01*
X26403572Y30100000D01*
X26138048Y30100000D01*
X26128052Y30096362D01*
X26125000Y30091075D01*
X26125000Y29588048D01*
X25875000Y29588048D01*
X25875000Y30086951D01*
X25871362Y30096947D01*
X25866075Y30099999D01*
X25596429Y30099999D01*
X25590646Y30099544D01*
X25505606Y30086076D01*
X25494660Y30082519D01*
X25392147Y30030287D01*
X25382836Y30023522D01*
X25301478Y29942164D01*
X25294713Y29932853D01*
X25242481Y29830342D01*
X25238923Y29819393D01*
X25225455Y29734354D01*
X25225000Y29728572D01*
X25225000Y29588048D01*
X23855858Y29588048D01*
X23135007Y30308898D01*
X23132340Y30311708D01*
X23110712Y30335728D01*
X23105507Y30341509D01*
X23098403Y30344672D01*
X23098400Y30344674D01*
X23083253Y30351417D01*
X23073045Y30356960D01*
X23059142Y30365989D01*
X23052618Y30370226D01*
X23044936Y30371443D01*
X23044935Y30371443D01*
X23044220Y30371556D01*
X23025699Y30377042D01*
X23017932Y30380500D01*
X22993573Y30380500D01*
X22981997Y30381411D01*
X22957935Y30385222D01*
X22950423Y30383209D01*
X22950419Y30383209D01*
X22949722Y30383022D01*
X22930569Y30380500D01*
X21362849Y30380500D01*
X21358977Y30380601D01*
X21318936Y30382699D01*
X21311678Y30379913D01*
X21311673Y30379912D01*
X21296195Y30373970D01*
X21285061Y30370672D01*
X21278811Y30369343D01*
X21261232Y30365607D01*
X21254939Y30361035D01*
X21254350Y30360607D01*
X21237377Y30351392D01*
X21236702Y30351133D01*
X21236701Y30351133D01*
X21229440Y30348345D01*
X21212214Y30331119D01*
X21203384Y30323578D01*
X21183677Y30309260D01*
X21179790Y30302527D01*
X21179789Y30302526D01*
X21179426Y30301897D01*
X21167666Y30286571D01*
X20813269Y29932174D01*
X20767393Y29910782D01*
X20760943Y29910500D01*
X19430342Y29910500D01*
X19426469Y29910601D01*
X19394202Y29912292D01*
X19386436Y29912699D01*
X19379173Y29909911D01*
X19363695Y29903970D01*
X19352561Y29900672D01*
X19346311Y29899343D01*
X19328732Y29895607D01*
X19322439Y29891035D01*
X19321850Y29890607D01*
X19304877Y29881392D01*
X19304202Y29881133D01*
X19304201Y29881133D01*
X19296940Y29878345D01*
X19279714Y29861119D01*
X19270884Y29853578D01*
X19251177Y29839260D01*
X19247290Y29832527D01*
X19247289Y29832526D01*
X19246926Y29831897D01*
X19235166Y29816571D01*
X19070769Y29652174D01*
X19024893Y29630782D01*
X19018443Y29630500D01*
X18697639Y29630499D01*
X18672586Y29630499D01*
X18670417Y29630241D01*
X18670416Y29630241D01*
X18653204Y29628194D01*
X18653203Y29628194D01*
X18647690Y29627538D01*
X18642619Y29625286D01*
X18642617Y29625285D01*
X18558786Y29588048D01*
X18550490Y29584363D01*
X18545661Y29579526D01*
X18545660Y29579525D01*
X18545247Y29579111D01*
X18475350Y29509092D01*
X18472587Y29502843D01*
X18472586Y29502841D01*
X18462302Y29479579D01*
X18427234Y29443074D01*
X18394621Y29435500D01*
X18167861Y29435500D01*
X18163988Y29435601D01*
X18131702Y29437293D01*
X18123936Y29437700D01*
X18116673Y29434912D01*
X18101190Y29428969D01*
X18090057Y29425671D01*
X18073839Y29422224D01*
X18073838Y29422224D01*
X18066232Y29420607D01*
X18059353Y29415609D01*
X18042380Y29406394D01*
X18041705Y29406135D01*
X18041703Y29406134D01*
X18034441Y29403346D01*
X18017214Y29386119D01*
X18008384Y29378578D01*
X17988677Y29364260D01*
X17984790Y29357527D01*
X17984789Y29357526D01*
X17984426Y29356897D01*
X17972666Y29341571D01*
X17578269Y28947174D01*
X17532393Y28925782D01*
X17525943Y28925500D01*
X16431362Y28925500D01*
X16383796Y28942813D01*
X16362139Y28973342D01*
X16352285Y28999420D01*
X16350710Y29003588D01*
X16300891Y29076075D01*
X16264062Y29129661D01*
X16264060Y29129663D01*
X16261531Y29133343D01*
X16178651Y29207187D01*
X16147310Y29235111D01*
X16147307Y29235113D01*
X16143976Y29238081D01*
X16025822Y29300641D01*
X16008771Y29309669D01*
X16008770Y29309669D01*
X16004831Y29311755D01*
X15852128Y29350111D01*
X15770583Y29350538D01*
X15699142Y29350912D01*
X15699139Y29350912D01*
X15694684Y29350935D01*
X15690349Y29349894D01*
X15690347Y29349894D01*
X15545927Y29315222D01*
X15545925Y29315221D01*
X15541588Y29314180D01*
X15537743Y29312196D01*
X15487171Y29311847D01*
X15459674Y29329231D01*
X15185007Y29603898D01*
X15182340Y29606708D01*
X15164116Y29626948D01*
X15155507Y29636509D01*
X15148403Y29639672D01*
X15148400Y29639674D01*
X15133253Y29646417D01*
X15123045Y29651960D01*
X15102618Y29665226D01*
X15094936Y29666443D01*
X15094935Y29666443D01*
X15094220Y29666556D01*
X15075699Y29672042D01*
X15067932Y29675500D01*
X15043573Y29675500D01*
X15031997Y29676411D01*
X15026428Y29677293D01*
X15007935Y29680222D01*
X15000423Y29678209D01*
X15000419Y29678209D01*
X14999722Y29678022D01*
X14980569Y29675500D01*
X11832861Y29675500D01*
X11828988Y29675601D01*
X11796703Y29677293D01*
X11788936Y29677700D01*
X11781673Y29674912D01*
X11781672Y29674912D01*
X11766194Y29668971D01*
X11755063Y29665673D01*
X11741917Y29662878D01*
X11731232Y29660607D01*
X11724942Y29656037D01*
X11724940Y29656036D01*
X11724353Y29655609D01*
X11707378Y29646392D01*
X11699440Y29643345D01*
X11682214Y29626119D01*
X11673384Y29618578D01*
X11653677Y29604260D01*
X11649790Y29597527D01*
X11649789Y29597526D01*
X11649426Y29596897D01*
X11637666Y29581571D01*
X11513269Y29457174D01*
X11467393Y29435782D01*
X11460943Y29435500D01*
X10605339Y29435500D01*
X10557773Y29452813D01*
X10537710Y29479461D01*
X10527137Y29503265D01*
X10524363Y29509510D01*
X10449092Y29584650D01*
X10442844Y29587412D01*
X10442843Y29587413D01*
X10356903Y29625407D01*
X10356900Y29625408D01*
X10351817Y29627655D01*
X10341841Y29628818D01*
X10329543Y29630252D01*
X10329541Y29630252D01*
X10327415Y29630500D01*
X10102260Y29630500D01*
X9872586Y29630499D01*
X9870417Y29630241D01*
X9870416Y29630241D01*
X9853204Y29628194D01*
X9853203Y29628194D01*
X9847690Y29627538D01*
X9842619Y29625286D01*
X9842617Y29625285D01*
X9758786Y29588048D01*
X9750490Y29584363D01*
X9745661Y29579526D01*
X9745660Y29579525D01*
X9745247Y29579111D01*
X9675350Y29509092D01*
X9672588Y29502844D01*
X9672587Y29502843D01*
X9634593Y29416903D01*
X9634592Y29416900D01*
X9632345Y29411817D01*
X9629500Y29387415D01*
X9629501Y29032586D01*
X9629759Y29030417D01*
X9629759Y29030416D01*
X9631793Y29013319D01*
X9632462Y29007690D01*
X9634714Y29002619D01*
X9634715Y29002617D01*
X9662342Y28940421D01*
X9675637Y28910490D01*
X9750908Y28835350D01*
X9757156Y28832588D01*
X9757157Y28832587D01*
X9843097Y28794593D01*
X9843100Y28794592D01*
X9848183Y28792345D01*
X9853707Y28791701D01*
X9870457Y28789748D01*
X9870459Y28789748D01*
X9872585Y28789500D01*
X10097740Y28789500D01*
X10327414Y28789501D01*
X10329583Y28789759D01*
X10329584Y28789759D01*
X10346796Y28791806D01*
X10346797Y28791806D01*
X10352310Y28792462D01*
X10357381Y28794714D01*
X10357383Y28794715D01*
X10443265Y28832863D01*
X10449510Y28835637D01*
X10454459Y28840594D01*
X10519412Y28905661D01*
X10524650Y28910908D01*
X10531102Y28925500D01*
X10537698Y28940421D01*
X10572766Y28976926D01*
X10605379Y28984500D01*
X11577139Y28984500D01*
X11581012Y28984399D01*
X11613297Y28982707D01*
X11621064Y28982300D01*
X11628324Y28985087D01*
X11628325Y28985087D01*
X11643809Y28991031D01*
X11654943Y28994329D01*
X11678768Y28999393D01*
X11685644Y29004389D01*
X11702621Y29013606D01*
X11710560Y29016654D01*
X11727790Y29033884D01*
X11736620Y29041425D01*
X11750030Y29051168D01*
X11756323Y29055740D01*
X11760572Y29063100D01*
X11772333Y29078428D01*
X11896731Y29202826D01*
X11942607Y29224218D01*
X11949057Y29224500D01*
X12661654Y29224500D01*
X12709220Y29207187D01*
X12734530Y29163350D01*
X12725740Y29113500D01*
X12722197Y29107949D01*
X12655510Y29013064D01*
X12651324Y29005255D01*
X12597419Y28866997D01*
X12595214Y28858410D01*
X12592519Y28837936D01*
X12594821Y28827551D01*
X12598146Y28825000D01*
X13281000Y28825000D01*
X13328566Y28807687D01*
X13353876Y28763850D01*
X13355000Y28751000D01*
X13355000Y28074814D01*
X13358638Y28064818D01*
X13361105Y28063394D01*
X13364061Y28063469D01*
X13412050Y28047368D01*
X13438463Y28004186D01*
X13430939Y27954129D01*
X13418262Y27937167D01*
X13378954Y27897859D01*
X13376144Y27895192D01*
X13346343Y27868359D01*
X13343180Y27861255D01*
X13343178Y27861252D01*
X13336435Y27846105D01*
X13330892Y27835898D01*
X13317626Y27815470D01*
X13316409Y27807788D01*
X13316409Y27807787D01*
X13316296Y27807072D01*
X13310810Y27788551D01*
X13307352Y27780784D01*
X13307352Y27756425D01*
X13306441Y27744849D01*
X13302630Y27720787D01*
X13304643Y27713275D01*
X13304643Y27713271D01*
X13304830Y27712574D01*
X13307352Y27693421D01*
X13307352Y27289500D01*
X13290039Y27241934D01*
X13246202Y27216624D01*
X13233352Y27215500D01*
X13196421Y27215500D01*
X13148855Y27232813D01*
X13123545Y27276650D01*
X13122421Y27289436D01*
X13122414Y27298377D01*
X13122395Y27319850D01*
X13122393Y27321865D01*
X13122387Y27328696D01*
X13109790Y27361257D01*
X13086021Y27422697D01*
X13086020Y27422699D01*
X13084012Y27427889D01*
X13068769Y27447156D01*
X12747156Y27768768D01*
X12745433Y27770125D01*
X12745427Y27770130D01*
X12731820Y27780844D01*
X12731817Y27780846D01*
X12727458Y27784278D01*
X12645978Y27815637D01*
X12634572Y27820027D01*
X12634571Y27820027D01*
X12628198Y27822480D01*
X12574254Y27822433D01*
X12528673Y27822393D01*
X12521841Y27822387D01*
X12515470Y27819922D01*
X12515469Y27819922D01*
X12497223Y27812863D01*
X12422648Y27784012D01*
X12418287Y27780561D01*
X12418286Y27780561D01*
X12407088Y27771701D01*
X12403382Y27768769D01*
X12152480Y27517866D01*
X12151124Y27516144D01*
X12144192Y27507340D01*
X12136970Y27498169D01*
X12112329Y27434142D01*
X12111625Y27432314D01*
X12078383Y27394140D01*
X12046435Y27384994D01*
X12039968Y27384655D01*
X12032285Y27385872D01*
X12024773Y27383859D01*
X12024769Y27383859D01*
X12024072Y27383672D01*
X12004919Y27381150D01*
X11721038Y27381150D01*
X11717166Y27381251D01*
X11677125Y27383349D01*
X11669867Y27380563D01*
X11669862Y27380562D01*
X11654384Y27374620D01*
X11643250Y27371322D01*
X11637000Y27369993D01*
X11619421Y27366257D01*
X11613128Y27361685D01*
X11612539Y27361257D01*
X11595566Y27352042D01*
X11594891Y27351783D01*
X11594890Y27351783D01*
X11587629Y27348995D01*
X11570403Y27331769D01*
X11561573Y27324228D01*
X11541866Y27309910D01*
X11537979Y27303177D01*
X11537978Y27303176D01*
X11537615Y27302547D01*
X11525855Y27287221D01*
X11169204Y26930570D01*
X11166394Y26927903D01*
X11136593Y26901070D01*
X11133430Y26893966D01*
X11133428Y26893963D01*
X11126685Y26878816D01*
X11121142Y26868609D01*
X11107876Y26848181D01*
X11106659Y26840499D01*
X11106659Y26840498D01*
X11106546Y26839783D01*
X11101060Y26821262D01*
X11097602Y26813495D01*
X11097602Y26789136D01*
X11096691Y26777560D01*
X11092880Y26753498D01*
X11094893Y26745986D01*
X11094893Y26745982D01*
X11095080Y26745285D01*
X11097602Y26726132D01*
X11097602Y26607956D01*
X11080289Y26560390D01*
X11075928Y26555630D01*
X11067472Y26547174D01*
X11021596Y26525782D01*
X11015146Y26525500D01*
X9397842Y26525500D01*
X9393969Y26525601D01*
X9361702Y26527292D01*
X9353936Y26527699D01*
X9346673Y26524911D01*
X9331195Y26518970D01*
X9320061Y26515672D01*
X9313811Y26514343D01*
X9296232Y26510607D01*
X9289939Y26506035D01*
X9289350Y26505607D01*
X9272377Y26496392D01*
X9271702Y26496133D01*
X9271701Y26496133D01*
X9264440Y26493345D01*
X9247214Y26476119D01*
X9238384Y26468578D01*
X9218677Y26454260D01*
X9214790Y26447527D01*
X9214789Y26447526D01*
X9214426Y26446897D01*
X9202666Y26431571D01*
X8918269Y26147174D01*
X8872393Y26125782D01*
X8865943Y26125500D01*
X7248990Y26125500D01*
X7201424Y26142813D01*
X7194465Y26150277D01*
X7194433Y26150245D01*
X7100245Y26244433D01*
X7095056Y26247077D01*
X7095053Y26247079D01*
X6986756Y26302259D01*
X6986753Y26302260D01*
X6981562Y26304905D01*
X6975810Y26305816D01*
X6975807Y26305817D01*
X6855752Y26324831D01*
X6850000Y26325742D01*
X6844248Y26324831D01*
X6724193Y26305817D01*
X6724190Y26305816D01*
X6718438Y26304905D01*
X6688093Y26289444D01*
X6637855Y26283274D01*
X6595402Y26310843D01*
X6580500Y26355378D01*
X6580500Y27220942D01*
X6597813Y27268508D01*
X6602174Y27273268D01*
X6606732Y27277826D01*
X6652608Y27299218D01*
X6659058Y27299500D01*
X7328577Y27299501D01*
X7456518Y27299501D01*
X7459390Y27299956D01*
X7459392Y27299956D01*
X7494833Y27305569D01*
X7550304Y27314354D01*
X7607496Y27343495D01*
X7658150Y27369304D01*
X7658152Y27369306D01*
X7663342Y27371950D01*
X7753050Y27461658D01*
X7755694Y27466848D01*
X7755696Y27466850D01*
X7808000Y27569502D01*
X7808001Y27569505D01*
X7810646Y27574696D01*
X7811557Y27580448D01*
X7811558Y27580451D01*
X7824486Y27662076D01*
X7849027Y27706349D01*
X7897575Y27724500D01*
X8067139Y27724500D01*
X8071012Y27724399D01*
X8103297Y27722707D01*
X8111064Y27722300D01*
X8118324Y27725087D01*
X8118325Y27725087D01*
X8133809Y27731031D01*
X8144943Y27734329D01*
X8168768Y27739393D01*
X8175644Y27744389D01*
X8192621Y27753606D01*
X8200560Y27756654D01*
X8217790Y27773884D01*
X8226620Y27781425D01*
X8230547Y27784278D01*
X8246323Y27795740D01*
X8250572Y27803100D01*
X8262333Y27818428D01*
X8386731Y27942826D01*
X8432607Y27964218D01*
X8439057Y27964500D01*
X8494661Y27964500D01*
X8542227Y27947187D01*
X8562289Y27920540D01*
X8575637Y27890490D01*
X8650908Y27815350D01*
X8657156Y27812588D01*
X8657157Y27812587D01*
X8743097Y27774593D01*
X8743100Y27774592D01*
X8748183Y27772345D01*
X8753707Y27771701D01*
X8770457Y27769748D01*
X8770459Y27769748D01*
X8772585Y27769500D01*
X8997740Y27769500D01*
X9227414Y27769501D01*
X9229583Y27769759D01*
X9229584Y27769759D01*
X9246796Y27771806D01*
X9246797Y27771806D01*
X9252310Y27772462D01*
X9257381Y27774714D01*
X9257383Y27774715D01*
X9343265Y27812863D01*
X9349510Y27815637D01*
X9355757Y27821894D01*
X9419821Y27886071D01*
X9424650Y27890908D01*
X9437698Y27920421D01*
X9472766Y27956926D01*
X9505379Y27964500D01*
X9594661Y27964500D01*
X9642227Y27947187D01*
X9662289Y27920540D01*
X9675637Y27890490D01*
X9750908Y27815350D01*
X9757156Y27812588D01*
X9757157Y27812587D01*
X9843097Y27774593D01*
X9843100Y27774592D01*
X9848183Y27772345D01*
X9853707Y27771701D01*
X9870457Y27769748D01*
X9870459Y27769748D01*
X9872585Y27769500D01*
X10097740Y27769500D01*
X10327414Y27769501D01*
X10329583Y27769759D01*
X10329584Y27769759D01*
X10346796Y27771806D01*
X10346797Y27771806D01*
X10352310Y27772462D01*
X10357381Y27774714D01*
X10357383Y27774715D01*
X10443265Y27812863D01*
X10449510Y27815637D01*
X10455757Y27821894D01*
X10519821Y27886071D01*
X10524650Y27890908D01*
X10552600Y27954129D01*
X10565407Y27983097D01*
X10565408Y27983100D01*
X10567655Y27988183D01*
X10570500Y28012585D01*
X10570499Y28367414D01*
X10569417Y28376509D01*
X10568194Y28386796D01*
X10568194Y28386797D01*
X10567538Y28392310D01*
X10563135Y28402224D01*
X10527137Y28483265D01*
X10524363Y28489510D01*
X10449092Y28564650D01*
X10442844Y28567412D01*
X10442843Y28567413D01*
X10442628Y28567508D01*
X12590646Y28567508D01*
X12592036Y28554918D01*
X12594059Y28546292D01*
X12645059Y28406927D01*
X12649080Y28399037D01*
X12731853Y28275856D01*
X12737635Y28269158D01*
X12847402Y28169279D01*
X12854625Y28164146D01*
X12985038Y28093337D01*
X12993279Y28090074D01*
X13092378Y28064076D01*
X13102970Y28065059D01*
X13104533Y28066638D01*
X13105000Y28068772D01*
X13105000Y28561952D01*
X13101362Y28571948D01*
X13096075Y28575000D01*
X12602867Y28575000D01*
X12592871Y28571362D01*
X12590646Y28567508D01*
X10442628Y28567508D01*
X10356903Y28605407D01*
X10356900Y28605408D01*
X10351817Y28607655D01*
X10341841Y28608818D01*
X10329543Y28610252D01*
X10329541Y28610252D01*
X10327415Y28610500D01*
X10102260Y28610500D01*
X9872586Y28610499D01*
X9870417Y28610241D01*
X9870416Y28610241D01*
X9853204Y28608194D01*
X9853203Y28608194D01*
X9847690Y28607538D01*
X9842619Y28605286D01*
X9842617Y28605285D01*
X9776558Y28575942D01*
X9750490Y28564363D01*
X9675350Y28489092D01*
X9672587Y28482843D01*
X9672586Y28482841D01*
X9662302Y28459579D01*
X9627234Y28423074D01*
X9594621Y28415500D01*
X9505339Y28415500D01*
X9457773Y28432813D01*
X9437710Y28459461D01*
X9427137Y28483265D01*
X9424363Y28489510D01*
X9349092Y28564650D01*
X9342844Y28567412D01*
X9342843Y28567413D01*
X9256903Y28605407D01*
X9256900Y28605408D01*
X9251817Y28607655D01*
X9241841Y28608818D01*
X9229543Y28610252D01*
X9229541Y28610252D01*
X9227415Y28610500D01*
X9002260Y28610500D01*
X8772586Y28610499D01*
X8770417Y28610241D01*
X8770416Y28610241D01*
X8753204Y28608194D01*
X8753203Y28608194D01*
X8747690Y28607538D01*
X8742619Y28605286D01*
X8742617Y28605285D01*
X8676558Y28575942D01*
X8650490Y28564363D01*
X8575350Y28489092D01*
X8572587Y28482843D01*
X8572586Y28482841D01*
X8562302Y28459579D01*
X8527234Y28423074D01*
X8494621Y28415500D01*
X8322861Y28415500D01*
X8318988Y28415601D01*
X8286703Y28417293D01*
X8278936Y28417700D01*
X8271673Y28414912D01*
X8271672Y28414912D01*
X8256194Y28408971D01*
X8245063Y28405673D01*
X8231917Y28402878D01*
X8221232Y28400607D01*
X8214942Y28396037D01*
X8214940Y28396036D01*
X8214353Y28395609D01*
X8197378Y28386392D01*
X8189440Y28383345D01*
X8172214Y28366119D01*
X8163384Y28358578D01*
X8143677Y28344260D01*
X8139790Y28337527D01*
X8139789Y28337526D01*
X8139426Y28336897D01*
X8127666Y28321571D01*
X8003269Y28197174D01*
X7957393Y28175782D01*
X7950943Y28175500D01*
X7897573Y28175500D01*
X7850007Y28192813D01*
X7824484Y28237925D01*
X7819784Y28267607D01*
X7810646Y28325304D01*
X7781848Y28381823D01*
X7755696Y28433150D01*
X7755694Y28433152D01*
X7753050Y28438342D01*
X7663342Y28528050D01*
X7658152Y28530694D01*
X7658150Y28530696D01*
X7555498Y28583000D01*
X7555495Y28583001D01*
X7550304Y28585646D01*
X7544552Y28586557D01*
X7544549Y28586558D01*
X7459392Y28600045D01*
X7456519Y28600500D01*
X7453610Y28600500D01*
X7050001Y28600499D01*
X6643482Y28600499D01*
X6640610Y28600044D01*
X6640608Y28600044D01*
X6608910Y28595024D01*
X6549696Y28585646D01*
X6507926Y28564363D01*
X6441850Y28530696D01*
X6441848Y28530694D01*
X6436658Y28528050D01*
X6346950Y28438342D01*
X6344306Y28433152D01*
X6344304Y28433150D01*
X6292000Y28330498D01*
X6289354Y28325304D01*
X6288443Y28319552D01*
X6288442Y28319549D01*
X6275515Y28237925D01*
X6274500Y28231519D01*
X6274501Y27668482D01*
X6274955Y27665613D01*
X6274956Y27665605D01*
X6280234Y27632276D01*
X6270574Y27582587D01*
X6259471Y27568376D01*
X6201102Y27510007D01*
X6198292Y27507340D01*
X6168491Y27480507D01*
X6165328Y27473403D01*
X6165326Y27473400D01*
X6158583Y27458253D01*
X6153040Y27448046D01*
X6139774Y27427618D01*
X6138557Y27419936D01*
X6138557Y27419935D01*
X6138444Y27419220D01*
X6132958Y27400699D01*
X6129500Y27392932D01*
X6129500Y27368573D01*
X6128589Y27356997D01*
X6124778Y27332935D01*
X3536771Y27332935D01*
X3557496Y27343495D01*
X3608150Y27369304D01*
X3608152Y27369306D01*
X3613342Y27371950D01*
X3703050Y27461658D01*
X3705694Y27466848D01*
X3705696Y27466850D01*
X3758000Y27569502D01*
X3758001Y27569505D01*
X3760646Y27574696D01*
X3761557Y27580448D01*
X3761558Y27580451D01*
X3775045Y27665608D01*
X3775500Y27668481D01*
X3775499Y28231518D01*
X3774485Y28237924D01*
X3761557Y28319550D01*
X3760646Y28325304D01*
X3731848Y28381823D01*
X3705696Y28433150D01*
X3705694Y28433152D01*
X3703050Y28438342D01*
X3613342Y28528050D01*
X3608152Y28530694D01*
X3608150Y28530696D01*
X3505498Y28583000D01*
X3505495Y28583001D01*
X3500304Y28585646D01*
X3494552Y28586557D01*
X3494549Y28586558D01*
X3409392Y28600045D01*
X3406519Y28600500D01*
X3403610Y28600500D01*
X3000001Y28600499D01*
X2593482Y28600499D01*
X2590610Y28600044D01*
X2590608Y28600044D01*
X2558910Y28595024D01*
X2499696Y28585646D01*
X2457926Y28564363D01*
X2391850Y28530696D01*
X2391848Y28530694D01*
X2386658Y28528050D01*
X2296950Y28438342D01*
X2294306Y28433152D01*
X2294304Y28433150D01*
X2242000Y28330498D01*
X2239354Y28325304D01*
X2238443Y28319552D01*
X2238442Y28319549D01*
X2225515Y28237925D01*
X2224500Y28231519D01*
X150500Y28231519D01*
X150500Y28670443D01*
X153021Y28689596D01*
X153288Y28690592D01*
X155809Y28700000D01*
X153288Y28709409D01*
X153288Y28714287D01*
X151741Y28728416D01*
X159492Y28905953D01*
X165103Y29034466D01*
X165666Y29040892D01*
X169454Y29069660D01*
X182852Y29171429D01*
X2225001Y29171429D01*
X2225456Y29165646D01*
X2238924Y29080606D01*
X2242481Y29069660D01*
X2294713Y28967147D01*
X2301478Y28957836D01*
X2382836Y28876478D01*
X2392147Y28869713D01*
X2494658Y28817481D01*
X2505607Y28813923D01*
X2590646Y28800455D01*
X2596428Y28800000D01*
X2861952Y28800000D01*
X2871948Y28803638D01*
X2875000Y28808925D01*
X2875000Y28813049D01*
X3125000Y28813049D01*
X3128638Y28803053D01*
X3133925Y28800001D01*
X3403571Y28800001D01*
X3409354Y28800456D01*
X3494394Y28813924D01*
X3505340Y28817481D01*
X3607853Y28869713D01*
X3617164Y28876478D01*
X3698522Y28957836D01*
X3705287Y28967147D01*
X3757519Y29069658D01*
X3761077Y29080607D01*
X3774545Y29165646D01*
X3775000Y29171428D01*
X3775000Y29171429D01*
X6275001Y29171429D01*
X6275456Y29165646D01*
X6288924Y29080606D01*
X6292481Y29069660D01*
X6344713Y28967147D01*
X6351478Y28957836D01*
X6432836Y28876478D01*
X6442147Y28869713D01*
X6544658Y28817481D01*
X6555607Y28813923D01*
X6640646Y28800455D01*
X6646428Y28800000D01*
X6911952Y28800000D01*
X6921948Y28803638D01*
X6925000Y28808925D01*
X6925000Y28813049D01*
X7175000Y28813049D01*
X7178638Y28803053D01*
X7183925Y28800001D01*
X7453571Y28800001D01*
X7459354Y28800456D01*
X7544394Y28813924D01*
X7555340Y28817481D01*
X7657853Y28869713D01*
X7667164Y28876478D01*
X7748522Y28957836D01*
X7755287Y28967147D01*
X7789776Y29034835D01*
X8530000Y29034835D01*
X8530258Y29030487D01*
X8532300Y29013319D01*
X8535209Y29002736D01*
X8573282Y28917020D01*
X8580889Y28905953D01*
X8646361Y28840594D01*
X8657442Y28833007D01*
X8743210Y28795090D01*
X8753830Y28792194D01*
X8770523Y28790248D01*
X8774794Y28790000D01*
X8861952Y28790000D01*
X8871948Y28793638D01*
X8875000Y28798925D01*
X8875000Y28803048D01*
X9125000Y28803048D01*
X9128638Y28793052D01*
X9133925Y28790000D01*
X9225165Y28790000D01*
X9229513Y28790258D01*
X9246681Y28792300D01*
X9257264Y28795209D01*
X9342980Y28833282D01*
X9354047Y28840889D01*
X9419406Y28906361D01*
X9426993Y28917442D01*
X9464910Y29003210D01*
X9467806Y29013830D01*
X9469752Y29030523D01*
X9470000Y29034794D01*
X9470000Y29071952D01*
X9466362Y29081948D01*
X9461075Y29085000D01*
X9138048Y29085000D01*
X9128052Y29081362D01*
X9125000Y29076075D01*
X9125000Y28803048D01*
X8875000Y28803048D01*
X8875000Y29071952D01*
X8871362Y29081948D01*
X8866075Y29085000D01*
X8543048Y29085000D01*
X8533052Y29081362D01*
X8530000Y29076075D01*
X8530000Y29034835D01*
X7789776Y29034835D01*
X7807519Y29069658D01*
X7811077Y29080607D01*
X7824545Y29165646D01*
X7825000Y29171428D01*
X7825000Y29311952D01*
X7821362Y29321948D01*
X7816075Y29325000D01*
X7188048Y29325000D01*
X7178052Y29321362D01*
X7175000Y29316075D01*
X7175000Y28813049D01*
X6925000Y28813049D01*
X6925000Y29311952D01*
X6921362Y29321948D01*
X6916075Y29325000D01*
X6288049Y29325000D01*
X6278053Y29321362D01*
X6275001Y29316075D01*
X6275001Y29171429D01*
X3775000Y29171429D01*
X3775000Y29311952D01*
X3771362Y29321948D01*
X3766075Y29325000D01*
X3138048Y29325000D01*
X3128052Y29321362D01*
X3125000Y29316075D01*
X3125000Y28813049D01*
X2875000Y28813049D01*
X2875000Y29311952D01*
X2871362Y29321948D01*
X2866075Y29325000D01*
X2238049Y29325000D01*
X2228053Y29321362D01*
X2225001Y29316075D01*
X2225001Y29171429D01*
X182852Y29171429D01*
X206104Y29348048D01*
X8530000Y29348048D01*
X8533638Y29338052D01*
X8538925Y29335000D01*
X8861952Y29335000D01*
X8871948Y29338638D01*
X8875000Y29343925D01*
X8875000Y29348048D01*
X9125000Y29348048D01*
X9128638Y29338052D01*
X9133925Y29335000D01*
X9456952Y29335000D01*
X9466948Y29338638D01*
X9470000Y29343925D01*
X9470000Y29385165D01*
X9469742Y29389513D01*
X9467700Y29406681D01*
X9464791Y29417264D01*
X9426718Y29502980D01*
X9419111Y29514047D01*
X9353639Y29579406D01*
X9342558Y29586993D01*
X9256790Y29624910D01*
X9246170Y29627806D01*
X9229477Y29629752D01*
X9225206Y29630000D01*
X9138048Y29630000D01*
X9128052Y29626362D01*
X9125000Y29621075D01*
X9125000Y29348048D01*
X8875000Y29348048D01*
X8875000Y29616952D01*
X8871362Y29626948D01*
X8866075Y29630000D01*
X8774835Y29630000D01*
X8770487Y29629742D01*
X8753319Y29627700D01*
X8742736Y29624791D01*
X8657020Y29586718D01*
X8645953Y29579111D01*
X8580594Y29513639D01*
X8573007Y29502558D01*
X8535090Y29416790D01*
X8532194Y29406170D01*
X8530248Y29389477D01*
X8530000Y29385206D01*
X8530000Y29348048D01*
X206104Y29348048D01*
X208941Y29369600D01*
X210061Y29375954D01*
X211057Y29380444D01*
X243363Y29526169D01*
X257081Y29588048D01*
X2225000Y29588048D01*
X2228638Y29578052D01*
X2233925Y29575000D01*
X2861952Y29575000D01*
X2871948Y29578638D01*
X2875000Y29583925D01*
X2875000Y29588048D01*
X3125000Y29588048D01*
X3128638Y29578052D01*
X3133925Y29575000D01*
X3761951Y29575000D01*
X3771947Y29578638D01*
X3774999Y29583925D01*
X3774999Y29588048D01*
X6275000Y29588048D01*
X6278638Y29578052D01*
X6283925Y29575000D01*
X6911952Y29575000D01*
X6921948Y29578638D01*
X6925000Y29583925D01*
X6925000Y29588048D01*
X7175000Y29588048D01*
X7178638Y29578052D01*
X7183925Y29575000D01*
X7811951Y29575000D01*
X7821947Y29578638D01*
X7824999Y29583925D01*
X7824999Y29728571D01*
X7824544Y29734354D01*
X7811076Y29819394D01*
X7807519Y29830340D01*
X7755287Y29932853D01*
X7748522Y29942164D01*
X7667164Y30023522D01*
X7657853Y30030287D01*
X7555342Y30082519D01*
X7544393Y30086077D01*
X7459354Y30099545D01*
X7453572Y30100000D01*
X7188048Y30100000D01*
X7178052Y30096362D01*
X7175000Y30091075D01*
X7175000Y29588048D01*
X6925000Y29588048D01*
X6925000Y30086951D01*
X6921362Y30096947D01*
X6916075Y30099999D01*
X6646429Y30099999D01*
X6640646Y30099544D01*
X6555606Y30086076D01*
X6544660Y30082519D01*
X6442147Y30030287D01*
X6432836Y30023522D01*
X6351478Y29942164D01*
X6344713Y29932853D01*
X6292481Y29830342D01*
X6288923Y29819393D01*
X6275455Y29734354D01*
X6275000Y29728572D01*
X6275000Y29588048D01*
X3774999Y29588048D01*
X3774999Y29728571D01*
X3774544Y29734354D01*
X3761076Y29819394D01*
X3757519Y29830340D01*
X3705287Y29932853D01*
X3698522Y29942164D01*
X3617164Y30023522D01*
X3607853Y30030287D01*
X3505342Y30082519D01*
X3494393Y30086077D01*
X3409354Y30099545D01*
X3403572Y30100000D01*
X3138048Y30100000D01*
X3128052Y30096362D01*
X3125000Y30091075D01*
X3125000Y29588048D01*
X2875000Y29588048D01*
X2875000Y30086951D01*
X2871362Y30096947D01*
X2866075Y30099999D01*
X2596429Y30099999D01*
X2590646Y30099544D01*
X2505606Y30086076D01*
X2494660Y30082519D01*
X2392147Y30030287D01*
X2382836Y30023522D01*
X2301478Y29942164D01*
X2294713Y29932853D01*
X2242481Y29830342D01*
X2238923Y29819393D01*
X2225455Y29734354D01*
X2225000Y29728572D01*
X2225000Y29588048D01*
X257081Y29588048D01*
X281822Y29699644D01*
X283493Y29705879D01*
X383189Y30022073D01*
X385397Y30028139D01*
X512272Y30334444D01*
X515000Y30340295D01*
X668096Y30634389D01*
X671324Y30639980D01*
X849461Y30919600D01*
X853164Y30924888D01*
X1054993Y31187916D01*
X1059143Y31192862D01*
X1266099Y31418714D01*
X1277179Y31427607D01*
X1280631Y31431060D01*
X1289069Y31435931D01*
X1294456Y31445261D01*
X1306214Y31460585D01*
X2825688Y32980059D01*
X9399500Y32980059D01*
X9435252Y32742857D01*
X9505959Y32513632D01*
X9610040Y32297506D01*
X9745170Y32099306D01*
X9908331Y31923461D01*
X10095878Y31773897D01*
X10303622Y31653956D01*
X10526921Y31566317D01*
X10529614Y31565702D01*
X10529615Y31565702D01*
X10758093Y31513553D01*
X10758097Y31513552D01*
X10760789Y31512938D01*
X10763549Y31512731D01*
X10763550Y31512731D01*
X10816427Y31508768D01*
X10998540Y31495121D01*
X11000000Y31494864D01*
X11019918Y31498376D01*
X11032767Y31499500D01*
X17967233Y31499500D01*
X17980082Y31498376D01*
X18000000Y31494864D01*
X18001460Y31495121D01*
X18174019Y31508053D01*
X18236450Y31512731D01*
X18236451Y31512731D01*
X18239211Y31512938D01*
X18241903Y31513552D01*
X18241907Y31513553D01*
X18470385Y31565702D01*
X18470386Y31565702D01*
X18473079Y31566317D01*
X18696378Y31653956D01*
X18904122Y31773897D01*
X19091669Y31923461D01*
X19254830Y32099306D01*
X19389960Y32297506D01*
X19494041Y32513632D01*
X19564748Y32742857D01*
X19600500Y32980059D01*
X19600500Y33219941D01*
X19564748Y33457143D01*
X19494041Y33686368D01*
X19389960Y33902494D01*
X19254830Y34100694D01*
X19091669Y34276539D01*
X18904122Y34426103D01*
X18696378Y34546044D01*
X18473079Y34633683D01*
X18470385Y34634298D01*
X18241907Y34686447D01*
X18241903Y34686448D01*
X18239211Y34687062D01*
X18236451Y34687269D01*
X18236450Y34687269D01*
X18183573Y34691232D01*
X18001460Y34704879D01*
X18000000Y34705136D01*
X17993631Y34704013D01*
X17980083Y34701624D01*
X17967233Y34700500D01*
X11032767Y34700500D01*
X11019917Y34701624D01*
X11006369Y34704013D01*
X11000000Y34705136D01*
X10998540Y34704879D01*
X10825981Y34691947D01*
X10763550Y34687269D01*
X10763549Y34687269D01*
X10760789Y34687062D01*
X10758097Y34686448D01*
X10758093Y34686447D01*
X10529615Y34634298D01*
X10526921Y34633683D01*
X10303622Y34546044D01*
X10095878Y34426103D01*
X9908331Y34276539D01*
X9745170Y34100694D01*
X9610040Y33902494D01*
X9505959Y33686368D01*
X9435252Y33457143D01*
X9399500Y33219941D01*
X9399500Y32980059D01*
X2825688Y32980059D01*
X4539415Y34693786D01*
X4554739Y34705544D01*
X4564069Y34710931D01*
X4568940Y34719369D01*
X4572393Y34722821D01*
X4581286Y34733901D01*
X4807138Y34940857D01*
X4812084Y34945007D01*
X5075112Y35146836D01*
X5080400Y35150539D01*
X5360020Y35328676D01*
X5365611Y35331904D01*
X5659705Y35485000D01*
X5665556Y35487728D01*
X5971861Y35614603D01*
X5977927Y35616811D01*
X6294121Y35716507D01*
X6300356Y35718178D01*
X6494639Y35761250D01*
X6624051Y35789940D01*
X6630400Y35791059D01*
X6959113Y35834334D01*
X6965534Y35834897D01*
X7141047Y35842560D01*
X7271584Y35848259D01*
X7285713Y35846712D01*
X7290591Y35846712D01*
X7300000Y35844191D01*
X7310406Y35846979D01*
X7329557Y35849500D01*
X21670443Y35849500D01*
X21689594Y35846979D01*
G37*
%TD.AperFunction*%
%TA.AperFunction,Conductor*%
G36*
X17398066Y28457187D02*
G01*
X17423376Y28413350D01*
X17424500Y28400500D01*
X17424500Y27252809D01*
X17407187Y27205243D01*
X17402826Y27200483D01*
X17308501Y27106158D01*
X17262625Y27084766D01*
X17229596Y27089422D01*
X17205285Y27098778D01*
X17205283Y27098778D01*
X17198908Y27101232D01*
X17144963Y27101185D01*
X17099384Y27101145D01*
X17092552Y27101139D01*
X17086181Y27098674D01*
X17086180Y27098674D01*
X16998551Y27064773D01*
X16998549Y27064772D01*
X16993359Y27062764D01*
X16988994Y27059310D01*
X16988993Y27059310D01*
X16978702Y27051168D01*
X16974092Y27047521D01*
X16652480Y26725908D01*
X16651123Y26724185D01*
X16651118Y26724179D01*
X16640404Y26710572D01*
X16640402Y26710569D01*
X16636970Y26706210D01*
X16598768Y26606950D01*
X16598861Y26500593D01*
X16601326Y26494222D01*
X16601326Y26494221D01*
X16610504Y26470498D01*
X16611520Y26419889D01*
X16593815Y26391472D01*
X16369517Y26167174D01*
X16323641Y26145782D01*
X16317191Y26145500D01*
X16293547Y26145500D01*
X16289674Y26145601D01*
X16257388Y26147293D01*
X16249622Y26147700D01*
X16242359Y26144912D01*
X16226876Y26138969D01*
X16215743Y26135671D01*
X16199525Y26132224D01*
X16199524Y26132224D01*
X16191918Y26130607D01*
X16185277Y26125782D01*
X16185039Y26125609D01*
X16168066Y26116394D01*
X16167391Y26116135D01*
X16167389Y26116134D01*
X16160127Y26113346D01*
X16142900Y26096119D01*
X16134070Y26088578D01*
X16114363Y26074260D01*
X16110476Y26067527D01*
X16110475Y26067526D01*
X16110112Y26066897D01*
X16098352Y26051571D01*
X16083146Y26036365D01*
X16037270Y26014973D01*
X15987062Y26029015D01*
X15979335Y26034681D01*
X15975917Y26034457D01*
X15975798Y26034376D01*
X15525305Y25583884D01*
X15315328Y25373906D01*
X15303201Y25347900D01*
X15301747Y25331282D01*
X15287007Y25310231D01*
X14552326Y24575549D01*
X14506450Y24554157D01*
X14457555Y24567258D01*
X14447674Y24575549D01*
X14375549Y24647674D01*
X14354157Y24693550D01*
X14367258Y24742445D01*
X14375549Y24752326D01*
X15108677Y25485453D01*
X15141851Y25504606D01*
X15170992Y25512414D01*
X15525305Y25866726D01*
X15830015Y26171437D01*
X15834510Y26181076D01*
X15833623Y26184384D01*
X15833517Y26184488D01*
X15820639Y26193093D01*
X15790708Y26233914D01*
X15793319Y26272488D01*
X15790720Y26273040D01*
X15792338Y26280651D01*
X15795500Y26287754D01*
X15795500Y26312114D01*
X15796411Y26323690D01*
X15799005Y26340069D01*
X15800222Y26347752D01*
X15798209Y26355264D01*
X15798209Y26355268D01*
X15798022Y26355965D01*
X15795500Y26375118D01*
X15795500Y26562139D01*
X15795601Y26566012D01*
X15797293Y26598298D01*
X15797700Y26606064D01*
X15794912Y26613327D01*
X15788969Y26628810D01*
X15785671Y26639943D01*
X15782224Y26656161D01*
X15782224Y26656162D01*
X15780607Y26663768D01*
X15775609Y26670648D01*
X15766394Y26687620D01*
X15766135Y26688295D01*
X15766134Y26688297D01*
X15763346Y26695559D01*
X15746119Y26712786D01*
X15738578Y26721616D01*
X15728831Y26735031D01*
X15724260Y26741323D01*
X15716897Y26745574D01*
X15701571Y26757334D01*
X15569423Y26889482D01*
X16150156Y26889482D01*
X16151737Y26883583D01*
X16180895Y26854425D01*
X16184158Y26851528D01*
X16197734Y26840838D01*
X16207280Y26835408D01*
X16294808Y26801722D01*
X16308016Y26799274D01*
X16400523Y26799354D01*
X16413728Y26801825D01*
X16501186Y26835661D01*
X16510737Y26841119D01*
X16523916Y26851546D01*
X16527122Y26854400D01*
X16588747Y26916025D01*
X16593242Y26925664D01*
X16591661Y26931563D01*
X16398602Y27124621D01*
X16388963Y27129116D01*
X16383064Y27127535D01*
X16154651Y26899121D01*
X16150156Y26889482D01*
X15569423Y26889482D01*
X15476175Y26982730D01*
X15473508Y26985540D01*
X15451880Y27009560D01*
X15446675Y27015341D01*
X15439571Y27018504D01*
X15439568Y27018506D01*
X15424421Y27025249D01*
X15414213Y27030792D01*
X15400310Y27039821D01*
X15393786Y27044058D01*
X15386104Y27045275D01*
X15386103Y27045275D01*
X15385388Y27045388D01*
X15366867Y27050874D01*
X15359100Y27054332D01*
X15334741Y27054332D01*
X15323165Y27055243D01*
X15299103Y27059054D01*
X15291591Y27057041D01*
X15291587Y27057041D01*
X15290890Y27056854D01*
X15271737Y27054332D01*
X15016674Y27054332D01*
X15012801Y27054433D01*
X14980534Y27056124D01*
X14972768Y27056531D01*
X14965505Y27053743D01*
X14950027Y27047802D01*
X14938893Y27044504D01*
X14932643Y27043175D01*
X14915064Y27039439D01*
X14908771Y27034867D01*
X14908182Y27034439D01*
X14891209Y27025224D01*
X14890534Y27024965D01*
X14890533Y27024965D01*
X14883272Y27022177D01*
X14866046Y27004951D01*
X14857216Y26997410D01*
X14837509Y26983092D01*
X14833622Y26976359D01*
X14833621Y26976358D01*
X14833258Y26975729D01*
X14821498Y26960403D01*
X14552326Y26691231D01*
X14506450Y26669839D01*
X14457555Y26682940D01*
X14447674Y26691231D01*
X14156175Y26982730D01*
X14153508Y26985540D01*
X14131880Y27009560D01*
X14126675Y27015341D01*
X14119571Y27018504D01*
X14119568Y27018506D01*
X14104421Y27025249D01*
X14094213Y27030792D01*
X14080310Y27039821D01*
X14073786Y27044058D01*
X14066104Y27045275D01*
X14066103Y27045275D01*
X14065388Y27045388D01*
X14046867Y27050874D01*
X14039100Y27054332D01*
X14014741Y27054332D01*
X14003165Y27055243D01*
X13979103Y27059054D01*
X13971591Y27057041D01*
X13971587Y27057041D01*
X13970890Y27056854D01*
X13951737Y27054332D01*
X13835167Y27054332D01*
X13787601Y27071645D01*
X13762291Y27115482D01*
X13762260Y27115756D01*
X13763074Y27120897D01*
X13761061Y27128409D01*
X13761061Y27128413D01*
X13760874Y27129110D01*
X13758352Y27148263D01*
X13758352Y27321274D01*
X15878026Y27321274D01*
X15878106Y27228766D01*
X15880577Y27215561D01*
X15914413Y27128104D01*
X15919871Y27118553D01*
X15930298Y27105374D01*
X15933152Y27102168D01*
X15959422Y27075898D01*
X15969061Y27071403D01*
X15974960Y27072984D01*
X16203373Y27301398D01*
X16207483Y27310211D01*
X16570884Y27310211D01*
X16572465Y27304312D01*
X16765523Y27111253D01*
X16775162Y27106758D01*
X16781061Y27108339D01*
X16845570Y27172848D01*
X16848479Y27176124D01*
X16859161Y27189692D01*
X16864591Y27199237D01*
X16898278Y27286767D01*
X16900726Y27299974D01*
X16900646Y27392482D01*
X16898175Y27405687D01*
X16864339Y27493144D01*
X16858881Y27502695D01*
X16848454Y27515874D01*
X16845600Y27519080D01*
X16819331Y27545349D01*
X16809692Y27549844D01*
X16803793Y27548263D01*
X16575379Y27319850D01*
X16570884Y27310211D01*
X16207483Y27310211D01*
X16207868Y27311037D01*
X16206287Y27316936D01*
X16013229Y27509995D01*
X16003590Y27514490D01*
X15997691Y27512909D01*
X15933182Y27448400D01*
X15930273Y27445124D01*
X15919591Y27431556D01*
X15914161Y27422011D01*
X15880474Y27334481D01*
X15878026Y27321274D01*
X13758352Y27321274D01*
X13758352Y27608794D01*
X13775665Y27656360D01*
X13780026Y27661120D01*
X13814490Y27695584D01*
X16185510Y27695584D01*
X16187091Y27689685D01*
X16380150Y27496627D01*
X16389789Y27492132D01*
X16395688Y27493713D01*
X16624102Y27722126D01*
X16628597Y27731765D01*
X16627016Y27737664D01*
X16597857Y27766823D01*
X16594594Y27769720D01*
X16581018Y27780410D01*
X16571472Y27785840D01*
X16483944Y27819526D01*
X16470736Y27821974D01*
X16378229Y27821894D01*
X16365024Y27819423D01*
X16277566Y27785587D01*
X16268015Y27780129D01*
X16254836Y27769702D01*
X16251630Y27766848D01*
X16190005Y27705223D01*
X16185510Y27695584D01*
X13814490Y27695584D01*
X14189827Y28070921D01*
X14235703Y28092313D01*
X14260929Y28090173D01*
X14411069Y28050785D01*
X14464860Y28049940D01*
X14564038Y28048382D01*
X14568495Y28048312D01*
X14572837Y28049306D01*
X14572842Y28049307D01*
X14717621Y28082466D01*
X14717624Y28082467D01*
X14721968Y28083462D01*
X14862625Y28154205D01*
X14874265Y28164146D01*
X14978955Y28253560D01*
X14982348Y28256458D01*
X15074224Y28384317D01*
X15075298Y28383545D01*
X15109313Y28413327D01*
X15159920Y28414391D01*
X15197499Y28385610D01*
X15271251Y28275856D01*
X15273958Y28271828D01*
X15390410Y28165865D01*
X15394333Y28163735D01*
X15524852Y28092868D01*
X15524856Y28092866D01*
X15528776Y28090738D01*
X15681069Y28050785D01*
X15734860Y28049940D01*
X15834038Y28048382D01*
X15838495Y28048312D01*
X15842837Y28049306D01*
X15842842Y28049307D01*
X15987621Y28082466D01*
X15987624Y28082467D01*
X15991968Y28083462D01*
X16132625Y28154205D01*
X16144265Y28164146D01*
X16248955Y28253560D01*
X16252348Y28256458D01*
X16330508Y28365229D01*
X16341620Y28380693D01*
X16341620Y28380694D01*
X16344224Y28384317D01*
X16346462Y28389883D01*
X16361825Y28428101D01*
X16395630Y28465777D01*
X16430485Y28474500D01*
X17350500Y28474500D01*
X17398066Y28457187D01*
G37*
%TD.AperFunction*%
M02*
