%TF.GenerationSoftware,KiCad,Pcbnew,(6.0.7-1)-1*%
%TF.CreationDate,2022-09-29T17:50:23+03:00*%
%TF.ProjectId,Flux_Capacitor_Micro,466c7578-5f43-4617-9061-6369746f725f,3.0A*%
%TF.SameCoordinates,PX86594f8PY6db8610*%
%TF.FileFunction,Paste,Bot*%
%TF.FilePolarity,Positive*%
%FSLAX46Y46*%
G04 Gerber Fmt 4.6, Leading zero omitted, Abs format (unit mm)*
G04 Created by KiCad (PCBNEW (6.0.7-1)-1) date 2022-09-29 17:50:23*
%MOMM*%
%LPD*%
G01*
G04 APERTURE LIST*
G04 Aperture macros list*
%AMRoundRect*
0 Rectangle with rounded corners*
0 $1 Rounding radius*
0 $2 $3 $4 $5 $6 $7 $8 $9 X,Y pos of 4 corners*
0 Add a 4 corners polygon primitive as box body*
4,1,4,$2,$3,$4,$5,$6,$7,$8,$9,$2,$3,0*
0 Add four circle primitives for the rounded corners*
1,1,$1+$1,$2,$3*
1,1,$1+$1,$4,$5*
1,1,$1+$1,$6,$7*
1,1,$1+$1,$8,$9*
0 Add four rect primitives between the rounded corners*
20,1,$1+$1,$2,$3,$4,$5,0*
20,1,$1+$1,$4,$5,$6,$7,0*
20,1,$1+$1,$6,$7,$8,$9,0*
20,1,$1+$1,$8,$9,$2,$3,0*%
G04 Aperture macros list end*
%ADD10RoundRect,0.100000X-0.150000X0.100000X-0.150000X-0.100000X0.150000X-0.100000X0.150000X0.100000X0*%
%ADD11RoundRect,0.250000X0.375000X0.250000X-0.375000X0.250000X-0.375000X-0.250000X0.375000X-0.250000X0*%
%ADD12C,1.000000*%
%ADD13RoundRect,0.300000X0.450000X0.900000X-0.450000X0.900000X-0.450000X-0.900000X0.450000X-0.900000X0*%
%ADD14RoundRect,0.100000X0.176777X0.035355X0.035355X0.176777X-0.176777X-0.035355X-0.035355X-0.176777X0*%
%ADD15RoundRect,0.100000X-0.035355X0.176777X-0.176777X0.035355X0.035355X-0.176777X0.176777X-0.035355X0*%
%ADD16RoundRect,0.100000X0.150000X-0.100000X0.150000X0.100000X-0.150000X0.100000X-0.150000X-0.100000X0*%
%ADD17RoundRect,0.100000X0.035355X-0.176777X0.176777X-0.035355X-0.035355X0.176777X-0.176777X0.035355X0*%
%ADD18RoundRect,0.082500X0.000000X0.272236X-0.272236X0.000000X0.000000X-0.272236X0.272236X0.000000X0*%
%ADD19RoundRect,0.050000X0.212132X0.282843X-0.282843X-0.212132X-0.212132X-0.282843X0.282843X0.212132X0*%
%ADD20RoundRect,0.050000X-0.212132X0.282843X-0.282843X0.212132X0.212132X-0.282843X0.282843X-0.212132X0*%
G04 APERTURE END LIST*
D10*
X10100000Y29210000D03*
X10100000Y28190000D03*
D11*
X26000000Y27950000D03*
X21950000Y29450000D03*
X26000000Y29450000D03*
X21950000Y27950000D03*
D12*
X12000000Y13650000D03*
D13*
X3450000Y12750000D03*
D12*
X17000000Y8650000D03*
X9500000Y11150000D03*
X17000000Y13650000D03*
X12000000Y8650000D03*
D13*
X3450000Y9550000D03*
D12*
X19500000Y11150000D03*
X14500000Y11150000D03*
D13*
X25550000Y9550000D03*
X25550000Y12750000D03*
D14*
X11889376Y22810624D03*
X12610624Y22089376D03*
D10*
X18900000Y29210000D03*
X18900000Y28190000D03*
D11*
X3000000Y27950000D03*
X7050000Y29450000D03*
X3000000Y29450000D03*
X7050000Y27950000D03*
D15*
X16389376Y22089376D03*
X17110624Y22810624D03*
D16*
X20000000Y29210000D03*
X20000000Y28190000D03*
D17*
X12610624Y27310624D03*
X11889376Y26589376D03*
D14*
X16389376Y27310624D03*
X17110624Y26589376D03*
D16*
X9000000Y29210000D03*
X9000000Y28190000D03*
D18*
X14500000Y24134315D03*
X14500000Y25265685D03*
X15065685Y24700000D03*
X13934315Y24700000D03*
D19*
X14959619Y26290990D03*
X15242462Y26008148D03*
X15525305Y25725305D03*
X15808148Y25442462D03*
X16090990Y25159619D03*
D20*
X16090990Y24240381D03*
X15808148Y23957538D03*
X15525305Y23674695D03*
X15242462Y23391852D03*
X14959619Y23109010D03*
D19*
X14040381Y23109010D03*
X13757538Y23391852D03*
X13474695Y23674695D03*
X13191852Y23957538D03*
X12909010Y24240381D03*
D20*
X12909010Y25159619D03*
X13191852Y25442462D03*
X13474695Y25725305D03*
X13757538Y26008148D03*
X14040381Y26290990D03*
M02*
