%TF.GenerationSoftware,KiCad,Pcbnew,(6.0.7-1)-1*%
%TF.CreationDate,2022-09-29T17:50:34+03:00*%
%TF.ProjectId,Flux_Capacitor_Micro,466c7578-5f43-4617-9061-6369746f725f,3.0A*%
%TF.SameCoordinates,PX86594f8PY6db8610*%
%TF.FileFunction,Drillmap*%
%TF.FilePolarity,Positive*%
%FSLAX45Y45*%
G04 Gerber Fmt 4.5, Leading zero omitted, Abs format (unit mm)*
G04 Created by KiCad (PCBNEW (6.0.7-1)-1) date 2022-09-29 17:50:34*
%MOMM*%
%LPD*%
G01*
G04 APERTURE LIST*
%ADD10C,0.100000*%
%ADD11C,0.200000*%
G04 APERTURE END LIST*
D10*
X2497500Y0D02*
X402500Y0D01*
X2454611Y3482110D02*
G75*
G03*
X2170000Y3600000I-284611J-284611D01*
G01*
X117889Y3154610D02*
G75*
G03*
X0Y2870000I284610J-284611D01*
G01*
X1100000Y3410000D02*
X1800000Y3410000D01*
X730000Y3600000D02*
G75*
G03*
X445389Y3482110I0J-402500D01*
G01*
X2900000Y2870000D02*
G75*
G03*
X2782111Y3154610I-402500J0D01*
G01*
X2497500Y0D02*
G75*
G03*
X2900000Y402500I0J402500D01*
G01*
X1800000Y3210000D02*
X1100000Y3210000D01*
X2782111Y3154610D02*
X2454611Y3482110D01*
X0Y402500D02*
X0Y2870000D01*
X2900000Y2870000D02*
X2900000Y402500D01*
X730000Y3600000D02*
X2170000Y3600000D01*
X1800000Y3210000D02*
G75*
G03*
X1800000Y3410000I0J100000D01*
G01*
X445389Y3482110D02*
X117889Y3154610D01*
X0Y402500D02*
G75*
G03*
X402500Y0I402500J0D01*
G01*
X1100000Y3410000D02*
G75*
G03*
X1100000Y3210000I0J-100000D01*
G01*
D11*
X252619Y-315476D02*
X252619Y-115476D01*
X300238Y-115476D01*
X328810Y-125000D01*
X347857Y-144048D01*
X357381Y-163095D01*
X366905Y-201190D01*
X366905Y-229762D01*
X357381Y-267857D01*
X347857Y-286905D01*
X328810Y-305952D01*
X300238Y-315476D01*
X252619Y-315476D01*
X452619Y-315476D02*
X452619Y-182143D01*
X452619Y-220238D02*
X462143Y-201190D01*
X471667Y-191667D01*
X490714Y-182143D01*
X509762Y-182143D01*
X576429Y-315476D02*
X576429Y-182143D01*
X576429Y-115476D02*
X566905Y-125000D01*
X576429Y-134524D01*
X585952Y-125000D01*
X576429Y-115476D01*
X576429Y-134524D01*
X700238Y-315476D02*
X681190Y-305952D01*
X671667Y-286905D01*
X671667Y-115476D01*
X805000Y-315476D02*
X785952Y-305952D01*
X776428Y-286905D01*
X776428Y-115476D01*
X1033571Y-315476D02*
X1033571Y-115476D01*
X1100238Y-258333D01*
X1166905Y-115476D01*
X1166905Y-315476D01*
X1347857Y-315476D02*
X1347857Y-210714D01*
X1338333Y-191667D01*
X1319286Y-182143D01*
X1281190Y-182143D01*
X1262143Y-191667D01*
X1347857Y-305952D02*
X1328810Y-315476D01*
X1281190Y-315476D01*
X1262143Y-305952D01*
X1252619Y-286905D01*
X1252619Y-267857D01*
X1262143Y-248809D01*
X1281190Y-239286D01*
X1328810Y-239286D01*
X1347857Y-229762D01*
X1443095Y-182143D02*
X1443095Y-382143D01*
X1443095Y-191667D02*
X1462143Y-182143D01*
X1500238Y-182143D01*
X1519286Y-191667D01*
X1528809Y-201190D01*
X1538333Y-220238D01*
X1538333Y-277381D01*
X1528809Y-296429D01*
X1519286Y-305952D01*
X1500238Y-315476D01*
X1462143Y-315476D01*
X1443095Y-305952D01*
X1624048Y-296429D02*
X1633571Y-305952D01*
X1624048Y-315476D01*
X1614524Y-305952D01*
X1624048Y-296429D01*
X1624048Y-315476D01*
X1624048Y-191667D02*
X1633571Y-201190D01*
X1624048Y-210714D01*
X1614524Y-201190D01*
X1624048Y-191667D01*
X1624048Y-210714D01*
M02*
